<svg width="20" height="26" viewBox="0 0 20 26" fill="none" xmlns="http://www.w3.org/2000/svg">
<path d="M10.8171 19.056C10.4591 19.4091 9.87785 19.4091 9.51992 19.056L4.93837 14.5373C4.58044 14.1843 4.58044 13.611 4.93837 13.258C5.2963 12.905 5.87759 12.905 6.23552 13.258L10.1699 17.1384L14.1043 13.2608C14.4623 12.9078 15.0435 12.9078 15.4015 13.2608C15.7594 13.6138 15.7594 14.1871 15.4015 14.5402L10.8199 19.0589L10.8171 19.056ZM15.3986 9.11492L10.8171 13.6336C10.4591 13.9866 9.87785 13.9866 9.51992 13.6336L4.93837 9.11492C4.58044 8.7619 4.58044 8.18859 4.93837 7.83557C5.2963 7.48254 5.87759 7.48254 6.23552 7.83557L10.1699 11.716L14.1043 7.83839C14.4623 7.48537 15.0435 7.48537 15.4015 7.83839C15.7594 8.19141 15.7594 8.76472 15.4015 9.11775L15.3986 9.11492Z" fill="#333333"/>
</svg>
