<svg width="32" height="33" viewBox="0 0 32 33" fill="none" xmlns="http://www.w3.org/2000/svg">
<path d="M19.9117 11.4137C19.0924 11.4137 18.4305 10.7463 18.4305 9.92021C18.4305 9.09414 19.0924 8.42676 19.9117 8.42676H27.3182C28.1375 8.42676 28.7995 9.09414 28.7995 9.92021V17.3875C28.7995 18.2135 28.1375 18.8809 27.3182 18.8809C26.4989 18.8809 25.8369 18.2135 25.8369 17.3875V13.5278L17.9953 21.4291C17.4167 22.0125 16.477 22.0125 15.8984 21.4291L11.024 16.5147L4.66373 22.9226C4.0851 23.5059 3.14541 23.5059 2.56678 22.9226C1.98816 22.3392 1.98816 21.3918 2.56678 20.8084L9.97323 13.3411C10.5519 12.7578 11.4915 12.7578 12.0702 13.3411L16.9492 18.2602L23.74 11.4137H19.9117Z" fill="#003686"/>
</svg>
