<svg width="20" height="26" viewBox="0 0 20 26" fill="none" xmlns="http://www.w3.org/2000/svg">
<path d="M10.778 7.82141C10.4201 7.46839 9.83879 7.46839 9.48085 7.82141L4.89931 12.3401C4.54138 12.6931 4.54138 13.2664 4.89931 13.6194C5.25724 13.9725 5.83853 13.9725 6.19646 13.6194L10.1309 9.73903L14.0653 13.6166C14.4232 13.9696 15.0045 13.9696 15.3624 13.6166C15.7203 13.2636 15.7203 12.6903 15.3624 12.3373L10.7809 7.81858L10.778 7.82141ZM15.3595 17.7625L10.778 13.2438C10.4201 12.8908 9.83879 12.8908 9.48085 13.2438L4.89931 17.7625C4.54138 18.1155 4.54138 18.6889 4.89931 19.0419C5.25724 19.3949 5.83853 19.3949 6.19646 19.0419L10.1309 15.1615L14.0653 19.039C14.4232 19.3921 15.0045 19.3921 15.3624 19.039C15.7203 18.686 15.7203 18.1127 15.3624 17.7597L15.3595 17.7625Z" fill="#333333"/>
</svg>
