<svg width="146" height="129" viewBox="0 0 146 129" fill="none" xmlns="http://www.w3.org/2000/svg">
<g clip-path="url(#clip0_297_11231)">
<path d="M3.697 70.0887C3.83175 69.9359 4.25532 69.7512 4.28846 69.9502L3.69587 70.4251L3.70242 70.0924L3.697 70.0887Z" fill="#003686"/>
<path d="M5.69929 70.4184C5.50562 70.776 5.08634 71.3007 4.386 71.5332C4.89613 70.9941 4.59349 71.1008 5.22455 70.4837C5.19261 70.2933 4.81294 70.3395 4.58191 70.5029C4.71245 70.3549 4.25695 70.3492 4.62272 70.0329C5.29422 69.9416 5.49405 70.1781 5.25648 70.6742C5.44361 70.6492 5.57836 70.4964 5.69387 70.4147L5.69929 70.4184Z" fill="#003686"/>
<path d="M19.1565 82.9597L18.998 82.9512C19.0604 82.94 19.11 82.9432 19.1565 82.9597Z" fill="#003686"/>
<path d="M29.015 88.936C28.9477 88.8746 28.9573 88.8047 28.9927 88.7448C29.0378 88.8216 29.0721 88.891 29.015 88.936Z" fill="#003686"/>
<path d="M31.2016 89.1475C31.1477 89.1491 31.112 89.1401 31.0679 89.1406C31.1459 89.1017 31.2028 89.0867 31.2016 89.1475Z" fill="#003686"/>
<path d="M19.1558 82.96L19.5637 82.9795C19.404 83.1607 19.3096 83.0118 19.1558 82.96Z" fill="#003686"/>
<path d="M5.61095 73.3767C5.60553 73.3041 5.63315 73.2236 5.6842 73.1362C5.68722 73.1918 5.69564 73.2511 5.70827 73.3057C5.67763 73.3306 5.64579 73.347 5.61095 73.3767Z" fill="#003686"/>
<path d="M15.8254 79.306L15.7581 79.2446C15.8061 79.1704 15.868 79.0904 15.9383 79.0009L15.8254 79.306Z" fill="#003686"/>
<path d="M13.2554 76.5635C13.3396 76.606 12.8445 77.0097 12.6418 77.2002C12.8144 77.0044 12.8758 76.8856 12.8595 76.8055C12.957 76.7344 13.0821 76.6516 13.2554 76.5635Z" fill="#003686"/>
<path d="M8.37882 72.6922L8.38968 72.5611C8.38485 72.5963 8.38788 72.6522 8.37882 72.6922Z" fill="#003686"/>
<path d="M17.9741 81.0088C18.0492 80.9532 18.1201 80.9023 18.1658 80.88C18.1099 80.9335 18.0378 80.9759 17.9741 81.0088Z" fill="#003686"/>
<path d="M118.046 69.0031C117.999 68.9866 117.977 68.9717 117.94 68.9541C118.011 68.9637 118.061 68.9754 118.046 69.0031Z" fill="#003686"/>
<path d="M117.245 63.819L117.182 63.8603C117.064 63.8174 116.947 63.783 116.833 63.7354L117.245 63.819Z" fill="#003686"/>
<path d="M34.8352 89.9368C34.8352 89.9368 34.8253 89.9379 34.8153 89.939C34.7611 89.8382 34.8057 89.8688 34.8352 89.9368Z" fill="#003686"/>
<path d="M67.2538 94.4527C66.9639 95.0277 67.9886 95.0483 67.5104 95.7088C67.5206 95.4706 66.8369 94.8564 67.2538 94.4527Z" fill="#003686"/>
<path d="M5.74878 73.418C5.77523 73.4668 5.80048 73.507 5.84074 73.5499C5.77584 73.5054 5.7548 73.4604 5.74878 73.418Z" fill="#003686"/>
<path d="M67.5157 95.7025L67.4601 95.7655C67.4857 95.7364 67.4986 95.7219 67.5102 95.6987L67.5157 95.7025Z" fill="#003686"/>
<path d="M42.4738 92.8899C42.424 92.9858 42.3651 93.0526 42.3062 93.1193C42.3321 93.0605 42.3717 92.9959 42.4738 92.8899Z" fill="#003686"/>
<path d="M36.2363 91.7939L36.416 91.7784C36.3367 91.8089 36.2775 91.8067 36.2363 91.7939Z" fill="#003686"/>
<path d="M45.3813 94.4609C45.4751 94.4334 45.5273 94.3544 45.6199 94.4561C45.5989 94.48 45.582 94.499 45.5652 94.5181C45.5478 94.4297 45.5021 94.383 45.3813 94.4609Z" fill="#003686"/>
<path d="M48.7456 95.0513C48.7173 95.0932 48.6867 95.1181 48.6585 95.1599C48.6314 95.1414 48.5906 95.1287 48.5581 95.1064L48.7456 95.0513Z" fill="#003686"/>
<path d="M111.553 77.1319C111.452 76.9709 111.319 76.8263 111.182 76.6865C111.523 76.9889 111.994 76.7001 111.553 77.1319Z" fill="#003686"/>
<path d="M5.9314 73.191C5.79924 73.2917 5.74999 73.3574 5.753 73.413C5.73857 73.3802 5.72835 73.3426 5.71813 73.305C5.79322 73.2493 5.87372 73.1974 5.93561 73.1863L5.9314 73.191Z" fill="#003686"/>
<path d="M44.3125 99.0537L44.9206 99.0727C44.7433 99.0965 44.5228 99.0908 44.3125 99.0537Z" fill="#003686"/>
<path d="M91.4644 92.1768L91.6216 92.1767C91.5878 92.2151 91.5339 92.2167 91.4644 92.1768Z" fill="#003686"/>
<path d="M46.629 99.4614C46.778 99.2728 46.9156 99.1758 47.0441 99.1186C47.061 99.1684 47.0766 99.2097 47.082 99.2823L46.6344 99.4651L46.629 99.4614Z" fill="#003686"/>
<path d="M114.777 74.768C114.47 75.194 113.915 74.5225 113.432 74.3517C112.856 74.7083 113.79 74.9113 114.032 75.307C113.609 75.5002 112.743 75.2897 112.586 75.5269C112.688 75.6192 112.693 75.6919 112.89 75.7348C112.054 75.6676 112.054 76.633 111.044 76.5075C111.078 76.577 111.129 76.6274 111.175 76.674C110.874 76.3754 110.525 76.1208 110.267 75.9596C110.105 76.1241 109.549 75.9656 109.946 76.3528C110.023 76.2366 110.216 76.3617 110.399 76.4105L110.043 76.4498C110.557 77.0699 110.485 76.3622 110.969 76.7011C110.446 76.9097 109.549 76.9311 109.493 77.3295C110.075 77.8429 110.262 76.8524 110.507 77.6184L110.633 77.0227C111.357 78.0549 110.79 76.7165 111.605 77.7731C111.283 78.4639 110.749 78.1823 110.393 78.8422C109.928 78.6996 109.918 78.4248 109.453 78.2822C108.097 78.5482 110.413 80.0512 109.038 79.9745C108.49 79.798 107.668 79.2421 107.685 79.9514L108.502 80.3656C108.054 80.9322 107.233 79.8634 107.156 80.7684C107.516 80.8925 107.781 80.553 107.786 80.6946C107.965 81.4765 107.166 80.6294 106.883 80.8804L107.416 81.4294C106.735 81.8666 105.677 82.0609 104.931 82.5226C105.135 82.6467 105.427 82.7092 105.449 82.9999C104.889 83.2212 104.498 83.6351 104.12 84.0733C103.757 84.5142 103.459 85.0299 103.2 85.5111L102.415 85.2873C102.345 85.3468 102.484 85.603 102.655 85.6358C102.501 86.0666 102.351 85.3505 102.009 85.2847C101.794 85.3903 102.026 85.7484 102.281 85.7934C101.795 85.8126 101.189 85.9183 100.669 86.1136C100.139 86.3015 99.7171 86.6023 99.6335 87.0814L99.8863 87.1397C99.5615 87.6755 98.4468 86.5054 98.3946 87.2741L98.5601 87.3033C98.1119 87.7622 97.5205 88.1076 96.961 88.4366C96.4123 88.7731 95.9533 89.1556 95.8145 89.7959C95.0916 89.1473 94.9386 90.7891 94.1062 89.7819C93.8428 90.6816 94.1678 90.7664 93.4609 91.6074C93.242 91.7867 92.6263 91.1349 92.2466 91.1811L92.6156 91.7481L91.7995 91.3727L92.0145 92.1636L91.6288 92.1673C91.7281 92.0745 91.7118 91.7875 91.5872 91.6332C90.9674 91.6067 90.7366 92.5977 90.8967 92.899C90.4418 92.932 89.9617 92.9246 89.4923 92.9247C89.6554 93.1438 89.8901 93.1437 90.1314 93.2248C89.1812 92.903 90.3861 93.8821 89.5123 93.582C89.5087 93.4186 89.2704 93.2552 89.1861 93.1438C89.1206 93.6123 88.4961 93.8967 87.9461 93.9488L88.2573 94.3153C87.8656 94.5525 87.3975 94.699 86.9132 94.8343C86.4288 94.9697 85.8987 95.0584 85.4228 95.2531C85.6706 94.9327 85.2312 94.2484 84.9232 94.2824L85.1213 94.9545C84.7475 94.6294 85.2969 94.6075 84.6915 94.2692C84.3732 94.4724 84.8018 95.0803 85.1135 95.2097L84.5726 95.153C84.64 95.3525 84.7856 95.414 84.9307 95.6436C84.5612 95.3137 84.4748 96.5646 83.888 95.9785L83.95 96.1743C83.4675 96.3568 83.0872 96.4333 82.7346 96.4981C82.37 96.5469 82.0276 96.5804 81.6221 96.6855C81.3722 96.1312 81.1099 96.3498 80.685 95.9743C80.1785 96.3319 79.6936 96.9803 78.9602 97.1517C78.3602 97.024 78.6394 96.7173 78.2933 96.4495C78.4529 96.9879 77.708 97.1132 78.2117 97.3895C77.3116 97.5233 77.0582 97.5642 75.8385 97.4101C75.8872 97.1676 75.9913 97.0397 75.8709 96.8806C75.6506 96.8446 75.4925 97.2112 75.596 97.4584L75.661 97.5029C74.9305 97.2473 74.3548 97.841 73.7502 98.3C73.1576 98.7749 72.5547 99.2121 71.927 98.7512L71.992 98.7958L70.8276 98.4114C70.374 98.5907 71.1996 98.7582 70.9187 99.1556C70.2651 98.8226 69.8349 98.9261 69.4209 99.0408C69.0136 99.1676 68.6346 99.3215 68.1218 99.085C67.6457 100.758 65.555 99.3252 64.6917 100.373L64.7061 99.9922C64.4124 99.6453 64.4215 100.226 64.2356 100.329C64.2331 100.036 64.4786 99.9742 64.2999 99.7827C63.2011 99.6195 62.1175 99.8727 61.0049 100.129C59.8912 100.377 58.7577 100.726 57.6289 100.903C56.7991 101.016 57.2198 98.9521 56.1724 99.8047L56.4301 100.518C55.6267 100.059 54.7958 100.026 53.9564 100.002C53.5394 99.9919 53.1236 99.9904 52.7186 99.9273C52.3166 99.851 51.9128 99.7274 51.5439 99.5052C51.6174 99.6782 51.5928 99.8835 51.7516 99.9004C51.3486 100.367 50.4982 99.7844 50.5571 99.3728C50.3056 99.3919 50.4428 99.7388 50.2594 99.9272C49.8755 100.185 49.5137 99.1862 49.2544 99.6674C49.2117 99.7454 49.3183 99.8414 49.3736 99.887C49.1936 99.6181 48.3344 99.8336 48.6514 99.2771C48.004 99.4692 47.576 98.8311 47.0358 99.089C46.8683 98.392 45.9545 99.2213 46.0674 98.295C45.8937 99.2409 44.8484 98.8692 44.5908 98.3632C44.6438 98.6677 44.1937 98.5967 44.2335 99.0147C43.8099 98.9235 43.4765 98.6413 43.6803 98.1835C42.5794 99.1067 42.411 96.9228 41.5358 98.2305C40.9948 97.8291 40.4664 97.4822 39.947 97.1645C39.4433 96.8193 38.9444 96.508 38.4461 96.2354C38.1316 97.1537 39.6076 96.702 39.2076 97.6384C38.2965 96.9372 38.0243 95.9845 36.9243 95.8818C36.612 95.9206 36.9075 96.3147 36.9341 96.5014C36.4977 96.1487 35.9826 96.0331 35.5126 95.8566C35.0427 95.68 34.5907 95.4928 34.2585 95.0812C34.2212 95.1629 34.2736 95.2908 34.332 95.3921C34.1719 95.2977 33.8632 95.3619 34.0767 94.972L34.1941 95.1444C34.7482 94.6737 34.1023 93.6717 34.2334 93.3556C33.9509 94.6022 33.2243 93.3075 32.9539 94.9149C32.8781 94.7939 32.8293 94.5536 32.9935 94.2984C32.7847 94.3085 32.6475 94.4444 32.6651 94.8088C32.1499 94.3484 32.5969 94.0189 32.0288 93.8058C31.929 93.9978 31.9994 94.115 31.9411 94.3585C31.8447 93.8864 31.7916 93.3751 31.2368 93.3242C31.2014 93.4531 31.0618 93.572 31.1978 93.6346C30.4323 93.2018 30.4332 92.0379 29.3652 91.9877C29.1193 92.9071 28.9085 92.1114 28.4219 92.7815L28.083 92.3577L28.4831 92.1109C28.0624 91.9375 28.0484 91.2537 27.5647 91.2899L27.6658 91.727L27.0231 91.1945L27.611 91.1684C27.4574 90.6035 28.2353 90.3323 27.5963 90.239C27.6529 90.3621 27.2105 90.0359 26.7329 90.3214C26.6925 90.0026 26.6605 89.6742 26.2555 89.6801C26.0257 89.852 25.7779 90.4483 25.633 90.5635C25.8518 89.9014 24.8349 89.9015 25.0411 89.1848C25.0129 89.3647 24.7591 89.7116 24.6796 89.7721L24.8631 89.239C24.5754 89.2793 24.5002 89.3351 24.312 89.6274C23.721 89.3909 25.1097 88.91 24.2251 88.8784C24.2444 88.9452 24.1734 88.9961 24.2162 89.125C23.4574 88.9114 23.2664 88.0833 22.5311 87.9317C21.829 88.4618 22.8922 88.4091 22.2473 88.8251C21.5275 88.1632 21.1992 86.9882 20.3261 86.5889L20.527 86.6271C21.2278 85.6747 19.5811 86.6453 19.5906 85.9546C19.6195 86.0893 19.261 86.5254 19.3278 86.4103C18.6863 86.1621 18.4869 85.4126 17.9957 84.5703L17.8706 84.8599C17.3814 84.8234 16.9619 84.3827 16.5575 84.2204C16.6922 83.9297 16.4804 83.8151 16.9142 83.5991C15.8125 83.794 15.538 83.2381 15.3128 82.6854C15.0822 82.1289 14.9148 81.5698 13.9437 81.6857C14.0394 81.7742 13.9732 82.066 13.895 81.9971L13.4098 81.1972C13.8725 80.909 13.7443 81.074 14.2094 80.9408C14.3604 80.6612 14.3405 80.3488 14.19 80.1843C14.2088 80.6952 13.5373 80.7176 13.1835 80.7739C13.3333 80.6927 13.4241 80.5404 13.5619 80.4433C12.4975 80.6944 14.3295 79.7207 13.3812 79.6529L13.1893 79.8508C13.1272 79.5861 13.2583 79.201 13.0098 79.0689C12.4508 79.3677 12.9683 79.4313 12.5833 79.7496C12.3474 79.4653 12.9862 78.5241 12.2672 78.6595C12.2437 78.8733 12.3984 79.033 12.375 79.2468C11.5549 79.4278 11.6662 79.2819 11.3846 79.1578L11.4201 79.1668L10.7142 78.9128L10.9831 78.9133C11.9348 77.6273 10.5497 78.0646 10.9616 77.0062C10.5768 78.0142 10.5694 77.4116 10.0352 77.8499C9.76201 77.8541 9.43947 77.7863 9.31676 77.955C9.58139 77.4086 8.63438 77.832 9.03133 77.0469C8.837 77.1588 8.80804 76.8172 8.38632 77.187C8.28153 76.7934 8.76537 77.0331 8.97893 76.8501C9.23085 75.9731 7.2988 76.3114 7.62345 75.0859C7.51555 74.2918 8.05638 73.7968 7.96355 73.0743C7.52008 73.0844 7.3758 73.6521 7.3758 73.6521C6.87575 73.5391 6.76136 73.2845 6.78172 72.8771C6.65239 73.0336 6.47068 73.0623 6.1939 73.1101C6.07951 72.8555 6.78706 72.536 6.28158 72.4194C6.10653 72.5982 5.80753 72.8683 5.671 73.1118C5.65226 72.7388 5.82484 72.2672 5.80189 71.8991C5.4096 72.0286 5.40848 72.3649 5.25449 72.5888C5.17858 72.192 4.97025 71.6202 5.44612 71.2185L5.78069 71.3023C5.7241 71.1792 5.27289 71.5135 5.23862 71.6509C5.01189 72.1544 5.70682 71.9182 5.91199 71.8136L5.89387 71.5484C7.18626 71.0782 6.28158 72.4194 6.63427 72.7684L7.34295 72.1126L6.95382 72.9185C7.2306 72.8707 7.73178 72.6473 7.70946 72.3868C8.31419 72.4106 7.59824 72.8086 8.22221 72.7612C8.30765 72.7432 8.34134 72.705 8.35999 72.6641L8.31616 73.0784C8.45512 72.9209 8.92623 72.7611 8.68913 72.6752C9.52436 72.8417 8.70143 73.7945 9.46195 73.5727L9.48119 73.5016C9.74673 74.3042 8.93733 73.9409 8.65835 74.8682L10.3821 74.234L9.84911 74.6808C9.92494 74.7328 10.0808 74.8319 10.2944 74.6489C10.1032 75.1614 10.005 74.78 9.74754 75.1704C10.543 75.1257 10.2472 76.2101 11.2273 75.6407C10.8856 76.0577 10.6316 75.5772 10.6166 76.1262C11.681 75.5303 10.781 76.6296 11.476 76.6003C11.9061 76.152 11.4067 76.0778 12.1005 76.04C11.3906 76.8253 12.7968 76.433 12.8546 76.7714C12.1928 77.2755 13.066 77.4679 13.2171 78.0159C13.4144 77.8217 14.2859 78.4497 14.8618 78.6145L14.9502 78.5143C14.3745 79.108 14.8577 79.3779 14.989 79.7513C15.3674 79.4208 15.4654 79.2505 15.4985 78.9667C15.5833 79.0478 15.6544 79.1348 15.7434 79.2112C15.5991 79.434 15.5738 79.6006 15.6726 79.8138L16.081 79.3506C16.4066 79.6811 16.2365 80.4455 17.0025 80.5722C16.5965 80.9834 15.4208 81.3114 15.6213 82.0005C15.8776 81.8084 16.2891 81.4699 16.2614 81.2747C16.2752 81.3378 16.2115 81.5776 16.3999 81.5611L16.5995 81.0391C16.9804 81.0703 16.3806 81.4253 16.5828 81.5409C16.9167 81.2411 16.9444 81.4364 17.1814 81.1774C17.1718 81.1095 16.8974 81.1743 16.9653 80.9987C17.2157 81.109 17.6339 81.1275 17.9582 80.9667C17.7506 81.1232 17.5166 81.3689 17.6081 81.5312C17.9337 81.8616 18.1237 81.2717 18.4992 81.2992C18.3536 81.5825 18.8152 81.5618 18.3327 82.0202C18.438 82.1077 18.6793 81.913 18.8525 81.8249C18.8081 82.2005 19.6831 82.578 18.9533 82.9129L18.8696 82.9092C18.8696 82.9092 18.8829 82.9336 18.8811 82.9553C19.0558 83.9102 20.483 83.7009 20.917 84.3815L21.0602 84.2191C21.2745 84.6955 21.8071 84.9686 21.7591 85.5256C21.8783 85.6073 22.3103 85.413 22.4342 85.1838C22.6268 85.5074 22.5047 85.7148 23.1864 85.7301C23.1316 85.2405 23.5167 85.5428 23.0588 85.3132C23.5835 85.4277 23.8963 85.2207 23.9314 85.9496C24.1503 85.4255 24.6835 85.5994 24.7636 85.8535L24.2299 85.9856C24.3906 86.1877 24.6072 86.2673 24.8251 86.3553L25.1944 85.7197C25.8809 85.631 25.9954 86.1615 26.1441 86.6235C26.2886 87.0903 26.5041 87.4372 27.267 87.0254C27.1865 87.5601 26.5925 87.0611 26.4272 87.6526C26.8827 87.7963 27.9133 87.1696 28.03 87.2343C28.7924 87.1976 27.8991 88.378 28.6206 88.4665C28.4004 88.6374 27.9288 89.1722 28.2207 89.6098C28.6763 89.7534 29.3187 88.9756 29.1917 88.6664C29.1135 88.5974 29.0166 88.6383 28.9739 88.7163C28.8986 88.5651 28.7993 88.3821 29.111 88.2357L29.0184 88.4786C29.3595 88.3677 29.8789 88.6854 29.9901 88.2636C30.1448 88.6302 29.8801 88.6939 29.5852 88.6833C30.2856 88.6577 30.3928 89.0683 31.0601 89.1197C30.9007 89.2019 30.6577 89.4184 30.7419 89.4608C31.6993 89.5577 30.8293 90.0417 31.3096 90.3938C31.8198 90.1996 31.686 89.5333 32.0556 90.0701C32.5195 89.9974 32.4701 89.5114 32.4556 89.2717C32.6856 89.9273 33.5218 89.4126 33.8366 89.4598L33.6915 89.1611C33.78 89.3367 33.9051 89.3919 34.0315 89.4555L33.6357 89.8354C33.8252 89.8274 33.9558 89.8863 34.0556 89.6942C34.0443 90.0618 33.5191 90.3913 33.6058 90.9335C33.9368 90.7849 34.1162 91.4289 34.5036 90.8516C33.7388 90.8024 34.9006 90.2733 34.4017 89.962C34.4667 90.0755 34.6003 90.1211 34.7928 90.0999C34.8476 90.0378 34.8379 89.9699 34.8157 89.9163C35.7164 89.6144 34.7328 90.71 35.3924 90.9475C35.4861 90.5751 35.8706 90.3559 35.9356 90.4695C35.678 90.3772 35.5205 90.9894 35.6301 91.348C36.1771 91.2402 35.9864 91.7224 36.2187 91.7744L35.9052 91.8047C35.8223 92.1845 36.0521 92.2195 36.2989 92.4423C36.4523 92.1796 36.1207 92.1516 36.2814 92.0778C36.3218 92.8104 37.309 91.7403 37.5709 92.3105C37.894 92.1412 37.8842 91.6595 38.1388 91.5582C38.456 92.174 38.8968 91.2504 39.2773 91.7946C38.9272 92.2211 38.9434 92.0944 39.1337 92.6768L38.3772 92.0663L38.662 92.9357C38.3864 92.8541 38.213 92.4594 38.012 92.4902C38.118 92.9613 38.1439 92.8334 37.8419 93.1857C38.5205 92.5936 38.4179 93.8334 39.0532 93.4874L39.5157 92.3027C40.3592 91.9769 40.4149 93.2638 41.3638 93.2324L41.0196 93.3566C40.9559 93.8722 41.5203 93.5772 41.7322 93.8296C41.8458 93.4249 42.0702 93.3182 42.2693 93.1022C42.1551 93.3993 42.8981 93.2268 42.716 94.0443L43.2653 93.6087C44.0156 93.5561 43.7055 94.9523 44.4227 94.9766C44.3432 94.4854 44.7288 94.2747 44.3749 93.8483C44.5976 93.9013 44.8136 93.8732 44.7408 94.1527C44.9388 93.9283 45.2073 94.8555 45.5232 94.4974C45.5701 94.6905 45.4902 95.126 45.7604 95.135C45.8127 95.056 45.8097 94.9313 45.8097 94.9313C45.7604 95.135 46.1419 95.2739 45.8044 95.6862C46.8193 94.5354 47.7746 96.1325 48.6161 95.1388C49.0807 95.3806 49.6657 95.5747 50.117 95.6542C50.1085 95.5258 50.1512 95.4478 50.0531 95.4802C50.7414 95.1628 50.2526 96.7125 51.0486 96.3617C51.5166 95.7324 50.7175 95.9586 50.9829 95.7267C51.2798 94.375 51.8199 96.0093 52.404 95.2681L52.2975 95.1721C52.715 94.7381 53.1262 95.8091 53.7454 95.7278C53.7454 95.7278 53.7231 95.6053 53.7603 95.5236C54.1071 96.2439 54.884 96.5159 55.4629 96.7365C55.3117 96.1886 55.2149 96.4363 55.3586 95.8989C55.6162 95.9912 55.2234 96.7716 55.7524 96.9503C55.9419 96.6664 56.3335 96.4292 56.4068 95.8436L55.9194 95.7853C56.2056 95.0468 56.5482 95.8409 56.8153 95.7252L56.793 95.3958C57.5337 95.5511 57.5291 96.3447 58.3468 96.2846L58.2651 96.535C58.7141 97.3561 58.6392 96.0713 59.087 96.677L59.2078 95.8405C59.5003 96.0409 60.2502 96.6392 60.7948 96.7903C60.4679 96.1755 59.8414 95.861 59.4628 95.502C59.7499 95.4918 60.4431 95.5533 60.6092 95.9659C60.4901 95.8843 60.3348 95.6859 60.2253 95.81C60.5997 96.4497 61.095 96.8046 61.6769 96.736C61.4725 95.125 63.1636 96.2228 63.4702 94.939C64.0016 95.2036 64.4961 95.1059 64.9961 94.943C65.5003 94.7753 66.0039 94.4999 66.5876 94.4785C66.3671 95.783 66.9336 94.4705 67.0632 95.7622C67.3533 95.8078 67.4556 95.7707 67.4682 95.6874L68.166 94.8173C68.2904 94.4199 67.8566 94.5669 67.8307 94.281C68.4023 94.1058 67.9792 93.7086 68.2956 93.3202C68.3029 93.7849 68.6291 93.9472 68.9257 93.7291L68.5726 94.3758C69.5397 94.9544 69.0597 93.1928 70.0196 93.7204L69.6766 93.3704C70.1483 93.5252 71.2043 93.0768 71.8844 94.0103C71.9205 93.8512 71.9276 93.4883 71.7188 93.4295C72.6773 93.1211 74.2558 94.0115 74.8453 93.2051L74.6725 92.9181C74.8843 92.9637 75.1775 93.4098 75.3164 93.0453C75.2598 92.9223 75.1436 92.7584 75.2213 92.7196C75.35 92.8002 75.8911 93.1328 76.0769 92.8924L75.7519 92.6007C76.5834 91.9831 77.5181 93.0222 78.4165 92.979C78.0757 92.0942 78.7116 91.5801 79.0172 91.3222L78.951 91.2002C79.4756 90.9699 80.022 91.0303 80.5738 91.0944C81.1214 91.1633 81.6966 91.2894 82.2803 91.2681C82.4557 90.0936 84.22 90.123 84.8883 89.1484C84.8263 89.3665 85.2681 89.7918 85.4889 89.7976C85.6219 89.5287 86.4506 90.0967 85.9822 89.3466L85.9112 89.3976C85.6571 88.5722 86.2336 88.5689 86.5843 88.388L87.2296 89.3512C87.2566 88.887 87.4485 88.6202 87.7084 88.4536C87.9616 88.2747 88.2926 88.1951 88.6205 88.1287C89.2709 87.9923 89.8835 87.8988 89.7172 87.1413C90.1017 87.267 90.3749 87.1248 90.7636 87.2457L90.3989 86.7428C90.9289 86.3093 91.1617 86.0552 91.983 85.7447L91.5683 85.4759C91.9497 85.201 93.1625 86.6145 93.5783 86.4092L93.1262 85.6013C93.8686 85.1832 94.076 84.1301 95.2897 84.3108C95.1928 84.2138 94.9936 84.0159 94.8636 84.0648C95.1716 83.8239 95.6925 82.7405 96.4238 83.7934C95.8779 83.1511 97.0807 83.2554 97.7089 83.2723L97.2287 82.8512C98.079 83.2271 98.2475 83.3809 98.8203 83.2143C98.8642 83.0758 98.5681 82.7809 98.5405 82.9995C98.6462 82.505 99.2084 83.2275 99.384 82.6736L98.9537 82.5013C99.2629 82.1999 99.3857 82.376 99.8966 82.5653C100.294 82.5774 100.444 81.9446 100.089 81.5096C100.383 81.7186 100.897 81.8946 100.986 81.6262C100.859 81.4549 100.688 81.422 100.607 81.405C100.74 81.0369 101.087 80.9986 101.39 80.9609C101.686 80.911 101.943 80.8653 101.905 80.4945C101.757 80.3471 101.71 80.2532 101.69 80.1863C101.277 80.5768 100.949 80.8888 101.008 80.8909C100.595 80.4926 100.872 80.1387 100.014 79.811C100.607 79.8879 101.767 80.1089 101.91 79.6319C101.888 79.5784 101.861 79.5296 101.802 79.4585L101.717 79.4463C101.751 79.3391 101.86 79.3142 101.998 79.3248C102.034 79.1656 102.049 79.0606 102.148 78.9677C101.824 78.6156 102.349 78.4542 102.496 78.2871C102.963 78.714 103.112 78.4562 103.299 78.9829C103.292 78.932 103.213 78.9623 103.073 79.0424C103.03 79.0514 102.994 79.0726 102.949 79.0647C102.965 79.0758 102.981 79.087 103.002 79.0933C102.873 79.1809 102.714 79.3019 102.542 79.4372C102.918 79.5336 103.272 79.585 103.196 79.1882C103.595 79.377 104.008 79.5685 104.215 79.6491C103.785 78.8561 103.875 78.1521 103.505 77.7448C104.27 77.4879 104.831 76.7536 106.094 77.1831C106.361 77.1364 105.982 76.8075 105.885 76.6415C105.705 76.6484 105.628 76.7561 105.448 76.6941C105.973 76.6017 106.373 75.9412 107.115 76.3808C107.164 75.8021 106.29 76.1141 106.888 75.7119L106.616 75.6255C106.529 74.7385 107.304 74.6488 108.085 74.5022C108.862 74.3605 109.63 74.1593 109.39 73.1212C109.409 73.257 109.419 73.3249 109.524 73.4124C109.771 72.5705 110.402 71.9534 111.052 71.3342C111.677 70.705 112.304 70.0624 112.188 69.071C112.224 68.567 112.738 68.7818 113.269 68.7318L112.698 68.3251L113.69 68.2846C114.6 67.9513 112.825 66.5352 114.263 66.2644L114.643 66.563C114.711 66.2495 115.386 65.8085 114.857 65.6299C114.956 65.6362 115.358 65.7428 115.196 65.5322L114.86 65.371L115.822 64.9501C115.864 64.3205 114.421 64.4496 114.775 63.6734C115.062 63.4564 116.225 63.2807 116.4 63.4769C116.353 63.5984 116.449 63.8551 116.793 64.0068L117.118 63.8158C118.162 64.179 119.329 64.3735 119.661 65.3368L118.782 65.5544L119.19 65.9103L119.443 65.5246C119.781 65.9399 119.289 65.9166 118.923 65.957C119.159 66.1034 119.307 66.2508 119.355 66.3835L118.139 66.4314C118.504 66.6584 119.033 66.5612 119.076 66.966C118.511 66.9852 118.312 66.3735 117.822 66.6044C118.151 67.0293 118.557 67.131 118.026 67.2197C118.264 67.3746 118.457 67.3921 118.629 67.3342C118.188 67.4303 118.148 67.9003 117.558 67.78C117.996 68.2791 116.95 68.4893 117.89 68.9114C117.617 68.877 116.9 68.9604 116.726 69.1477C118.084 69.3125 116.279 69.9599 117.522 70.452C116.352 70.2321 116.409 71.2516 115.544 71.4635C115.639 71.4746 115.834 71.509 115.81 71.4385C115.704 71.7647 115.949 72.0092 115.993 72.2846C115.168 71.8799 114.671 72.1978 114.012 72.1369C114.521 72.8996 115.091 72.4704 115.746 72.9885C115.115 72.6099 114.666 73.1983 114.22 72.7777C114.495 73.3033 114.285 73.1283 114.832 73.6412C113.822 73.1104 114.485 73.7787 113.73 73.6292C113.93 74.2795 114.565 74.2783 113.961 74.5002C114.107 74.8763 114.727 74.7261 114.727 74.7261L114.777 74.768ZM104.765 82.3857L104.776 82.3932C104.865 82.3316 104.941 82.2844 104.996 82.2525C104.946 82.2796 104.883 82.321 104.775 82.3847L104.765 82.3857ZM103.989 83.049C104.068 82.9498 104.176 82.8474 104.302 82.7428C104.17 82.5678 103.976 82.4426 103.903 82.5153C104.055 82.5805 103.962 82.8235 103.984 83.0453L103.989 83.049ZM102.308 78.7173C102.128 78.7545 102.183 78.8691 102.266 78.972C102.329 78.9306 102.406 78.8918 102.522 78.8489C102.539 78.86 102.566 78.8786 102.591 78.8886C102.489 78.8181 102.391 78.7513 102.308 78.7173Z" fill="#003686"/>
<path d="M103.138 79.0866C103.138 79.0866 103.193 79.0935 103.219 79.0734C103.237 79.1316 103.254 79.1814 103.256 79.2286C103.188 79.1973 103.124 79.1613 103.062 79.1338C103.084 79.1184 103.11 79.0983 103.128 79.0877L103.138 79.0866Z" fill="#003686"/>
<path d="M18.9689 82.9451L18.994 82.9467C18.994 82.9467 18.9268 82.9628 18.8901 82.9844C18.9225 82.9677 18.9408 82.9569 18.9634 82.9413L18.9689 82.9451Z" fill="#003686"/>
<path d="M92.6898 91.8909L92.6033 91.7628L92.7595 91.8316L92.6898 91.8909Z" fill="#003686"/>
<path d="M13.2008 80.7936C13.1509 80.8206 13.0902 80.8402 13.0229 80.8477C13.059 80.8265 13.1251 80.8106 13.2008 80.7936Z" fill="#003686"/>
<path d="M11.4127 79.1853L10.9927 79.0811C11.1964 79.1059 11.3244 79.1477 11.4127 79.1853Z" fill="#003686"/>
<path d="M9.85551 78.0633C9.93119 77.9775 9.99247 77.9276 10.0537 77.8778L9.8501 78.0596L9.85551 78.0633Z" fill="#003686"/>
<path d="M34.3451 95.4165C34.3451 95.4165 34.3884 95.4462 34.4016 95.4705C34.5188 95.6427 34.4232 95.5542 34.3451 95.4165Z" fill="#003686"/>
<path d="M26.7511 90.3502C26.7704 90.4858 26.7897 90.6214 26.8342 90.7284C26.6677 90.6909 26.5481 90.6395 26.7511 90.3502Z" fill="#003686"/>
<path d="M44.2441 99.0517C44.2441 99.0517 44.2441 99.0517 44.2484 99.0468C44.2693 99.0533 44.2945 99.0548 44.3154 99.0612L44.2453 99.0604L44.2441 99.0517Z" fill="#003686"/>
<path d="M27.209 90.9237C26.9975 90.9471 26.8923 90.8597 26.8346 90.7283C26.971 90.7606 27.1446 90.7802 27.209 90.9237Z" fill="#003686"/>
<path d="M4.59039 72.1108L4.51416 72.0586C4.55468 72.0325 4.5813 72.0122 4.60367 71.9967L4.59584 72.1146L4.59039 72.1108Z" fill="#003686"/>
<path d="M4.60384 71.9971L4.61168 71.8792C4.64133 71.915 4.65585 71.948 4.60384 71.9971Z" fill="#003686"/>
<path d="M4.62957 71.6324L4.60559 71.8761C4.55871 71.821 4.4914 71.7595 4.62957 71.6324Z" fill="#003686"/>
<path d="M6.28832 73.8799L6.10449 74.0293C6.13813 73.9912 6.1952 73.9461 6.28832 73.8799Z" fill="#003686"/>
<path d="M6.68826 74.4902C6.52697 74.3874 5.97881 74.4177 5.95949 74.144L6.10448 74.0288C5.87529 74.3084 6.90601 74.1645 6.68405 74.495L6.68826 74.4902Z" fill="#003686"/>
<path d="M11.0745 75.1838L10.5322 74.8428C10.8066 74.778 11.176 74.6941 11.0448 74.4586C12.1454 74.6001 10.481 74.6545 11.0702 75.1886L11.0745 75.1838Z" fill="#003686"/>
<path d="M12.5845 76.3484C12.4546 76.0529 12.8819 76.1391 12.981 76.0464C12.9372 76.3224 12.9276 76.3923 12.5845 76.3484Z" fill="#003686"/>
<path d="M22.714 85.1232L23.0666 84.684C23.2217 84.8821 22.9194 84.8509 22.714 85.1232Z" fill="#003686"/>
<path d="M23.048 88.8229L22.6082 88.9575L22.8341 88.485L23.048 88.8229Z" fill="#003686"/>
<path d="M26.8699 86.5003L26.8242 86.3848L27.061 86.746L26.8699 86.5003Z" fill="#003686"/>
<path d="M48.2517 94.4289L48.0401 95.073C47.892 94.9255 48.0164 94.1834 48.2517 94.4289Z" fill="#003686"/>
<path d="M58.3032 95.9404C58.4167 95.605 58.7032 95.3883 58.8764 95.7135C58.6493 95.7644 58.418 96.0267 58.3032 95.9404Z" fill="#003686"/>
<path d="M87.2867 88.4482L86.9917 88.3301L87.4285 88.3464L87.2867 88.4482Z" fill="#003686"/>
<path d="M128.795 73.8888C128.59 73.9244 128.121 73.9244 128.213 73.8497L129.003 73.7712L128.795 73.8888Z" fill="#003686"/>
<path d="M127.303 73.4628C127.685 73.3646 128.352 73.2393 129.084 73.2662C128.323 73.3804 128.647 73.3878 127.74 73.5094C127.648 73.5842 128.001 73.6271 128.291 73.6038C128.09 73.6346 128.468 73.7093 127.972 73.7683C127.356 73.6983 127.32 73.5816 127.822 73.4357C127.649 73.4161 127.438 73.4479 127.294 73.4639L127.303 73.4628Z" fill="#003686"/>
<path d="M125.721 66.4562L125.816 66.4978C125.765 66.4861 125.733 66.4722 125.721 66.4562Z" fill="#003686"/>
<path d="M125.069 62.1019C125.049 62.1345 124.973 62.1515 124.9 62.1553C124.949 62.1195 124.999 62.0923 125.069 62.1019Z" fill="#003686"/>
<path d="M124.157 61.392C124.157 61.392 124.195 61.4184 124.217 61.4335C124.141 61.42 124.099 61.4071 124.157 61.392Z" fill="#003686"/>
<path d="M125.721 66.4569L125.467 66.3516C125.723 66.3362 125.664 66.4029 125.721 66.4569Z" fill="#003686"/>
<path d="M129.174 72.416C129.133 72.442 129.063 72.4627 128.969 72.4902C129.005 72.469 129.032 72.4489 129.049 72.4298C129.092 72.4293 129.131 72.4251 129.169 72.4208L129.174 72.416Z" fill="#003686"/>
<path d="M125.167 68.4059L125.167 68.4446C125.076 68.4589 124.971 68.4706 124.846 68.4844L125.167 68.4059Z" fill="#003686"/>
<path d="M125.119 69.8895C125.085 69.8587 125.763 69.8184 126.052 69.795C125.774 69.8258 125.646 69.8528 125.592 69.8846C125.465 69.8899 125.309 69.8899 125.113 69.8857L125.119 69.8895Z" fill="#003686"/>
<path d="M126.42 72.1891L126.327 72.2344C126.327 72.2344 126.382 72.2021 126.42 72.1891Z" fill="#003686"/>
<path d="M124.973 67.3543C124.876 67.3564 124.783 67.3538 124.733 67.3506C124.816 67.3458 124.899 67.3495 124.973 67.3543Z" fill="#003686"/>
<path d="M102.883 60.7016C102.913 60.7373 102.931 60.757 102.955 60.789C102.905 60.7469 102.875 60.7112 102.883 60.7016Z" fill="#003686"/>
<path d="M103.307 64.0942L103.348 64.1069C103.424 64.1974 103.505 64.2832 103.575 64.3701L103.307 64.0942Z" fill="#003686"/>
<path d="M123.228 60.0594C123.228 60.0594 123.234 60.0631 123.239 60.0668C123.162 60.1055 123.179 60.0864 123.228 60.0594Z" fill="#003686"/>
<path d="M122.97 54.174C123.336 53.2759 123.258 53.1379 123.691 52.1247C123.562 52.4965 123.227 53.5767 122.97 54.174Z" fill="#003686"/>
<path d="M129.081 72.3827C129.081 72.3827 129.09 72.3428 129.082 72.322C129.105 72.3454 129.103 72.3673 129.081 72.3827Z" fill="#003686"/>
<path d="M123.687 52.13L123.736 52.0249C123.717 52.066 123.701 52.0937 123.687 52.13Z" fill="#003686"/>
<path d="M123.479 56.8984C123.597 56.9027 123.686 56.9101 123.775 56.9175C123.706 56.9164 123.623 56.9127 123.479 56.8984Z" fill="#003686"/>
<path d="M124.55 59.2033L124.462 59.1436C124.52 59.1675 124.543 59.191 124.55 59.2033Z" fill="#003686"/>
<path d="M124.369 55.6538C124.318 55.6419 124.223 55.6392 124.314 55.6161C124.349 55.6166 124.374 55.6182 124.399 55.6199C124.307 55.6344 124.264 55.6436 124.369 55.6538Z" fill="#003686"/>
<path d="M124.341 55.0146C124.388 55.0008 124.431 54.9917 124.478 54.9778L124.444 55.0162L124.341 55.0146Z" fill="#003686"/>
<path d="M106.596 58.6491C106.681 58.799 106.791 58.9589 106.901 59.1104C106.636 58.7608 106.365 58.7434 106.596 58.6491Z" fill="#003686"/>
<path d="M128.789 72.4285C128.958 72.4142 129.039 72.4009 129.075 72.3797C129.062 72.394 129.05 72.4083 129.037 72.4226C128.936 72.4296 128.844 72.4354 128.784 72.4248L128.789 72.4285Z" fill="#003686"/>
<path d="M129.681 55.3346L129.56 54.9691C129.632 55.0644 129.671 55.1979 129.681 55.3346Z" fill="#003686"/>
<path d="M114.958 53.3177L114.87 53.2881C114.87 53.2881 114.902 53.2714 114.958 53.3177Z" fill="#003686"/>
<path d="M129.605 53.8419C129.365 53.8382 129.229 53.806 129.135 53.7646C129.185 53.7376 129.23 53.7069 129.303 53.673L129.605 53.8419Z" fill="#003686"/>
<path d="M104.745 58.7675C104.908 58.6418 105.344 59.3308 105.68 59.6687C106.043 59.7105 105.39 59.1403 105.191 58.7743C105.457 58.8571 106.043 59.3657 106.119 59.2797C106.04 59.1721 106.023 59.1222 105.899 59.0066C106.456 59.4192 106.329 58.7651 107.015 59.2886C106.982 59.2276 106.939 59.1677 106.903 59.1199C107.14 59.4515 107.402 59.7761 107.605 59.9994C107.692 59.9596 108.083 60.3043 107.768 59.8736C107.73 59.9166 107.589 59.7511 107.461 59.6403L107.689 59.7659C107.27 59.1268 107.406 59.6334 107.036 59.1958C107.356 59.2854 107.956 59.6502 107.936 59.4068C107.48 58.8106 107.485 59.3962 107.221 58.7788L107.216 59.1199C106.599 58.1147 107.152 59.2605 106.468 58.1938C106.577 57.8628 106.993 58.3083 107.102 57.9772C107.426 58.2605 107.48 58.4658 107.809 58.7527C108.65 59.0995 106.872 57.1147 107.774 57.7177C108.165 58.0625 108.805 58.7764 108.664 58.2661L108.054 57.6567C108.248 57.437 108.982 58.5069 108.866 57.899C108.604 57.6736 108.496 57.8062 108.466 57.7017C108.197 57.0806 108.894 57.995 109.019 57.9122L108.563 57.316C108.899 57.2401 109.529 57.4724 109.904 57.3922C109.744 57.2288 109.542 57.083 109.461 56.8591C110.065 56.9131 110.172 56.2893 110.233 55.7179L110.781 56.1316C110.806 56.103 110.65 55.8659 110.532 55.7927C110.507 55.5152 110.806 56.103 111.033 56.2589C111.139 56.2472 110.895 55.9035 110.722 55.7847C111.317 56.0551 112.167 56.2545 111.975 55.5559L111.802 55.4371C111.829 55.1108 112.881 56.3223 112.67 55.7335L112.567 55.6629C112.806 55.1754 113.663 55.3264 113.35 54.361C114.013 55.0378 113.501 53.7668 114.369 54.7528C114.193 54.0956 113.978 53.9641 114.036 53.406C114.089 53.2967 114.699 53.9449 114.899 53.9745L114.462 53.4452L115.073 53.8949L114.63 53.2155L114.849 53.2817C114.833 53.3396 114.955 53.5761 115.088 53.7209C115.453 53.8487 115.184 53.0896 114.96 52.8213L115.725 53.0084C115.54 52.8047 115.413 52.7713 115.247 52.6732C115.905 53.0704 114.818 52.0956 115.428 52.4679C115.501 52.6021 115.706 52.7734 115.799 52.8752C115.628 52.4975 115.842 52.3532 116.115 52.3792L115.782 52.0365C115.997 51.7543 116.538 51.811 116.859 51.5945C116.884 51.8417 117.435 52.449 117.582 52.45L117.157 51.8676C117.508 52.1694 117.23 52.1397 117.713 52.4786C117.78 52.3333 117.264 51.7955 117.044 51.6602L117.351 51.7557C117.224 51.5843 117.117 51.5186 116.926 51.3112C117.273 51.6177 116.715 50.5845 117.306 51.127L117.179 50.9557C117.5 50.7392 117.807 50.8347 118.099 50.6903C118.305 50.9306 118.403 51.0059 118.513 51.0584C118.642 51.1003 118.777 51.1241 118.995 51.2811C119.17 50.9342 119.292 50.2742 119.738 50.0439C120.153 50.1446 120.039 50.472 120.306 50.7398C120.093 50.203 120.513 49.9929 120.164 49.7383C120.679 49.509 120.848 49.4257 121.51 49.5423C121.488 49.8336 121.441 49.9853 121.506 50.1678C121.61 50.2081 121.684 49.7688 121.638 49.4765L121.602 49.4288C121.971 49.6897 122.262 49.0154 122.665 48.3114C123.047 47.6228 123.533 46.914 123.695 47.5081L123.677 47.4497C123.829 47.5924 123.959 47.7505 124.077 47.9229C124.357 47.6247 124.047 47.4348 124.341 46.8247C124.512 47.2714 124.731 47.092 124.997 46.8299C125.25 46.5821 125.537 46.2574 125.617 46.5805C126.258 45.1735 126.66 44.9438 126.972 44.8663C127.302 44.7782 127.527 44.8482 128.272 43.7271L127.903 44.4317C127.712 45.0131 128.271 43.9255 128.462 43.6889C128.174 44.2422 127.994 44.4173 127.897 44.734C128.05 44.7473 128.253 44.656 128.506 44.4772C128.553 44.9461 128.769 45.1249 129.024 45.3381C129.273 45.5391 129.559 45.7661 129.736 46.1862C129.872 46.6238 127.669 49.0824 128.661 48.4987L129.401 47.443C128.974 48.4987 129.005 48.9565 129.06 49.4461C129.112 49.9188 129.179 50.4243 128.811 51.1676C128.986 50.9888 129.216 50.8169 129.202 50.7235C129.767 50.5361 129.268 51.4964 128.811 51.758C128.871 51.8678 129.23 51.5394 129.463 51.4921C129.807 51.5361 128.772 52.4132 129.337 52.2258C129.431 52.1982 129.516 52.0725 129.561 52.0114C129.298 52.2905 129.664 52.6337 129.002 52.7929C129.33 53.0327 128.741 53.5717 129.145 53.7255C128.415 54.0991 129.528 54.2564 128.487 54.5309C129.566 54.2824 129.389 55.0347 128.89 55.2751C129.214 55.1748 129.238 55.4522 129.687 55.3381C129.684 55.5582 129.481 55.6495 128.925 55.6591C130.238 55.8849 127.904 56.246 129.579 56.337C129.018 56.7954 128.644 57.2204 128.408 57.6257C129.49 57.5709 128.492 57.1854 129.627 57.1592C129.204 57.5508 128.281 57.7992 128.562 58.1604C128.717 58.2511 129.026 58.0877 129.211 58.0457C128.787 58.4373 129.342 58.764 128.772 59.1243C128.874 59.1174 128.98 59.0754 129.063 59.0404C129.029 59.1089 129.231 59.1857 128.739 59.2012L128.871 59.1306C128.151 59.0506 127.391 59.4492 127.013 59.4736C128.417 59.31 127.385 59.7903 129.159 59.5428C129.068 59.5873 128.837 59.6516 128.505 59.6537C128.607 59.7158 128.799 59.7248 129.169 59.6494C128.911 59.8935 128.384 59.8309 128.404 60.0442C128.642 60.0309 128.733 59.9863 129.013 59.9555C128.556 60.0792 128.095 60.2076 128.306 60.3827C128.45 60.3667 128.638 60.3805 128.631 60.3296C128.572 60.642 127.421 60.9027 127.883 61.2267C128.909 61.0876 128.229 61.3264 129.127 61.3135L128.871 61.5056L128.433 61.4505C128.456 61.6118 127.809 61.7737 128.111 61.9041L128.473 61.7693L128.316 62.0754L127.967 61.9201C127.513 62.0994 126.831 61.9462 127.095 62.1499C127.181 62.1016 127.112 62.3074 127.645 62.3737C127.364 62.465 127.069 62.5536 127.295 62.6623C127.581 62.6824 128.283 62.5964 128.476 62.6138C127.728 62.7222 128.286 62.9969 127.493 63.1275C127.677 63.0856 128.144 63.0685 128.243 63.0749L127.635 63.1636C127.835 63.232 127.928 63.2346 128.306 63.2101C128.425 63.4297 127.168 63.1806 127.672 63.4267C127.718 63.4044 127.811 63.407 127.903 63.3625C128.173 63.617 127.542 63.8893 127.849 64.1226C128.754 64.1607 128.062 63.9009 128.823 63.9548C128.673 64.3119 127.778 64.7253 128.006 65.0579L127.909 64.991C126.633 65.0973 128.544 65.227 127.955 65.4212C128.047 65.3767 128.662 65.3389 128.518 65.3548C128.736 65.5808 128.226 65.844 127.842 66.2096L128.167 66.1565C128.464 66.2832 128.35 66.5113 128.512 66.6529C128.187 66.706 128.243 66.7904 127.769 66.7565C129.652 67.1434 126.812 67.6638 128.382 68.012C128.38 67.9648 128.662 67.882 128.668 67.9245L128.386 68.2831C127.828 68.2758 128.049 68.2513 127.611 68.1962C127.282 68.2541 127.033 68.3592 127.035 68.4451C127.393 68.2764 127.925 68.4116 128.241 68.4672C128.07 68.4646 127.888 68.4933 127.712 68.4954C128.706 68.6401 126.598 68.5667 127.274 68.7851L127.564 68.7618C127.417 68.8599 127.04 68.9618 127.132 69.0552C127.775 69.0747 127.429 68.9448 127.954 68.9214C127.925 69.0625 126.752 69.2393 127.398 69.3448C127.575 69.2821 127.572 69.1962 127.748 69.1251C128.506 69.2311 128.319 69.256 128.441 69.3547L128.424 69.3435L128.774 69.5679L128.566 69.5175C126.904 69.757 128.277 69.8857 127.197 70.1644C128.224 69.8958 127.795 70.107 128.521 70.0613C128.725 70.1164 128.957 70.1986 129.162 70.163C128.584 70.2957 129.631 70.3311 128.783 70.5238C129.017 70.5238 128.809 70.6416 129.399 70.5937C129.22 70.7471 128.99 70.5742 128.7 70.5976C127.91 70.8529 129.694 71.087 128.611 71.4479C128.173 71.7377 127.388 71.82 127.006 72.0949C127.384 72.1696 127.852 71.9929 127.852 71.9929C128.202 72.118 128.144 72.2236 127.886 72.3684C128.091 72.3329 128.261 72.3572 128.524 72.3843C128.471 72.4935 127.678 72.4863 128.028 72.6114C128.287 72.5742 128.706 72.5322 128.961 72.4696C128.75 72.6007 128.321 72.7429 128.115 72.8777C128.523 72.8972 128.726 72.7757 128.992 72.7205C128.813 72.8738 128.647 73.1121 127.996 73.1795L127.759 73.0936C127.728 73.1488 128.318 73.101 128.428 73.0543C128.926 72.9131 128.194 72.8861 127.96 72.8862L127.812 72.9843C126.432 72.9427 128.013 72.6087 127.923 72.4247L126.927 72.5389L127.747 72.3191C127.488 72.2873 126.926 72.2848 126.782 72.3782C126.282 72.2653 127.131 72.2492 126.58 72.1549C126.491 72.1475 126.442 72.1528 126.405 72.1655L126.693 72.026C126.483 72.0578 125.985 72.0308 126.137 72.1046C125.55 71.8935 126.867 71.7007 126.111 71.642L126.05 71.6616C126.374 71.3242 126.78 71.6026 127.631 71.3277L125.818 71.2346L126.548 71.1756C126.524 71.1438 126.461 71.0775 126.171 71.1009C126.669 70.9597 126.49 71.113 126.961 71.0222C126.287 70.8897 127.249 70.5681 126.082 70.5805C126.638 70.5019 126.517 70.7178 126.897 70.5337C125.64 70.5302 127.103 70.3299 126.518 70.2048C125.873 70.276 126.223 70.4012 125.638 70.2761C126.729 70.1427 125.384 70.0024 125.59 69.8676C126.459 69.8277 125.941 69.5874 126.223 69.3667C125.933 69.3901 125.725 68.9949 125.396 68.8157L125.247 68.8279C126.126 68.7567 125.948 68.5652 126.126 68.4119C125.597 68.4401 125.396 68.4709 125.16 68.5616L125.16 68.4237C125.442 68.3796 125.587 68.3334 125.686 68.2406L125.029 68.2959C125.058 68.116 125.785 67.9021 125.334 67.6847C125.949 67.6469 127.052 67.8054 127.45 67.5417C127.118 67.5438 126.548 67.5593 126.416 67.6299C126.456 67.6039 126.692 67.5434 126.545 67.5036L125.989 67.6209C125.736 67.5239 126.453 67.5482 126.397 67.4639C125.921 67.482 126.058 67.4151 125.68 67.4396C125.634 67.4619 125.881 67.508 125.695 67.5414C125.603 67.4481 125.32 67.3457 124.959 67.3209C125.228 67.3213 125.596 67.2979 125.654 67.2226C125.677 67.0391 125.081 67.1824 124.833 67.0891C125.163 67.0312 124.816 66.9315 125.521 66.9012C125.513 66.8502 125.181 66.8524 124.993 66.8386C125.301 66.7357 125.063 66.3957 125.817 66.4762L125.869 66.4963C125.869 66.4963 125.881 66.482 125.901 66.4799C126.587 66.1456 125.47 65.8551 125.757 65.5388L125.524 65.5474C125.786 65.359 125.661 65.1357 126.168 64.9849C126.165 64.9292 125.726 64.8741 125.447 64.905C125.618 64.7612 125.883 64.7362 125.485 64.5474C125.077 64.7045 125.113 64.5151 125.189 64.705C124.974 64.5348 124.593 64.5035 125.233 64.2907C124.63 64.3831 124.465 64.1858 124.637 64.0892L125.078 64.2C125.167 64.0997 125.101 64.0165 125.051 63.9358L124.254 64.0108C123.263 63.6762 125.872 63.2806 124.232 63.0607C124.787 62.9434 124.635 63.2447 125.283 63.13C125.167 62.9661 124.009 62.831 124.011 62.779C123.56 62.5616 125.166 62.5136 124.855 62.285C125.142 62.3051 125.905 62.3071 126.161 62.115C126.049 61.9464 124.959 61.9503 124.732 62.0702C124.713 62.111 124.803 62.1269 124.895 62.1211C124.791 62.18 124.68 62.2569 124.364 62.2013L124.648 62.1657C124.354 62.0947 124.374 61.8554 123.906 61.9329C124.169 61.7918 124.369 61.8602 124.524 61.9509C124.104 61.7472 124.495 61.6092 124.206 61.3955C124.362 61.4257 124.702 61.4442 124.697 61.4103C124.324 61.0936 125.231 61.2479 125.34 61.016C124.899 60.9052 124.306 61.1042 124.658 60.8628C124.361 60.7361 123.901 60.8645 123.674 60.924C124.214 60.6963 123.295 60.5564 123.186 60.4435L122.962 60.5586C123.094 60.488 123.087 60.4371 123.084 60.3814L123.657 60.4216C123.555 60.3596 123.548 60.3087 123.314 60.3172C123.68 60.2381 124.265 60.3329 124.772 60.1822C124.478 60.1112 125.071 59.9121 124.313 59.9138C124.584 60.1684 123.55 59.9118 123.441 60.1437C123.527 60.0954 123.525 60.0482 123.418 59.9824C123.335 59.9787 123.264 59.9994 123.223 60.0169C122.536 59.7911 124.072 59.8714 124.039 59.6036C123.616 59.6503 123.229 59.5766 123.315 59.5284C123.325 59.635 124.027 59.5489 124.348 59.4401C124.008 59.2837 124.585 59.2502 124.543 59.16L124.703 59.2544C125.127 59.2076 125.066 59.1196 125.196 59.0018C124.863 59.004 124.972 59.117 124.821 59.082C125.561 58.9227 124.03 58.8158 124.529 58.6141C124.236 58.5431 123.726 58.6381 123.526 58.5697C124.071 58.3458 122.93 58.3683 123.376 58.1379C123.949 58.1782 123.814 58.193 124.363 58.0248L123.975 58.3951L124.794 58.1367C124.804 58.2433 124.446 58.3733 124.548 58.4354C125.009 58.3069 124.87 58.3266 125.344 58.3604C124.478 58.2492 125.833 58.0521 125.24 57.9064L123.822 57.9681C123.178 57.7417 124.527 57.4937 124.154 57.1771L124.408 57.2742C124.97 57.2077 124.476 57.0683 124.694 56.9494C124.219 56.976 124.044 56.9177 123.746 56.8817C124.101 56.8726 123.702 56.6451 124.646 56.5797L124.017 56.4552C123.747 56.2006 125.356 56.1006 125.178 55.8486C124.668 55.9437 124.326 55.8392 123.967 56.0297C123.955 55.9448 123.866 55.8685 124.197 55.8578C123.899 55.8303 124.82 55.5649 124.372 55.5798C124.579 55.5527 125.071 55.507 125.032 55.4423C124.935 55.4444 124.796 55.4641 124.796 55.4641C125.028 55.4471 125.109 55.3261 125.637 55.3281C124.895 55.3023 124.916 55.2094 124.965 55.0747C125.011 54.9447 125.08 54.7776 124.458 54.9411C124.612 54.7862 124.753 54.5766 124.784 54.4525C124.644 54.5326 124.557 54.5724 124.605 54.5671C124.17 54.6754 125.926 53.7488 125.435 53.803C124.691 54.174 125.04 54.1527 124.752 54.262C123.994 54.7077 124.045 54.6504 124.168 54.5205C124.297 54.3942 124.504 54.1687 124.061 54.4547L123.97 54.538C123.714 54.6998 123.857 54.5677 124.045 54.3746C124.232 54.1815 124.474 53.9178 124.418 53.9024C124.418 53.9024 124.292 54.0154 124.191 54.0998C124.95 53.348 125.191 52.8774 125.394 52.48C124.815 53.156 125.088 52.8758 124.499 53.4754C124.58 53.3241 125.446 52.5002 125.602 52.1553C125.282 52.4493 124.999 52.6615 124.374 53.39L124.344 53.5226C123.53 54.397 124.367 53.3778 124.221 53.4844L123.867 53.9158C123.975 53.6754 124.862 52.5215 124.79 52.3958L125.059 52.0514C125.93 50.7097 124.562 52.6451 125.205 51.6L124.319 52.8616C124.527 52.5067 125.164 51.3416 125.316 50.9024C124.669 52.06 124.341 52.7083 123.958 53.3497C123.947 53.3121 124.015 53.0977 124.448 52.3603C124.364 52.5248 124.152 52.8929 124.286 52.7014C124.977 51.5433 125.306 50.826 125.285 50.6817C124.293 52.4075 124.312 52.2675 124.229 52.3025C124.107 52.441 123.949 52.6696 123.433 53.649C123.657 53.1286 123.515 53.2994 123.352 53.5631C123.185 53.8315 123.005 54.1833 122.984 54.1382C123.841 52.0135 122.97 54.1053 123.768 51.9785C123.755 51.8851 123.714 51.9413 123.664 52.0761C123.455 52.5302 123.273 52.9727 123.104 53.4008C122.896 54.0013 122.999 53.8262 122.848 54.2825C122.753 54.4698 122.557 55.1552 122.393 55.6862C122.604 54.9732 122.67 54.6814 122.583 54.9584C122.667 54.656 122.765 54.3477 122.867 54.0347C122.963 53.5414 122.824 53.9748 122.712 54.3881C122.595 54.8061 122.509 55.1992 122.589 54.725L122.48 55.3016C122.522 54.978 122.467 55.3159 122.537 53.9849C122.507 54.1865 122.471 54.6518 122.472 54.7679C122.432 54.8931 122.413 54.5589 122.334 54.3436C122.263 54.1187 122.148 54.002 122.16 54.3929L122.229 54.7388C122.2 54.6428 122.065 54.106 122.108 54.472C122.142 54.6104 122.194 54.8072 122.188 54.8338C122.162 54.716 121.982 54.2789 122.003 54.4922L122.136 54.8439C122.16 55.0826 122.076 54.872 121.903 54.6153C121.739 54.3575 121.494 54.044 121.357 54.0032C121.842 54.8418 121.959 55.1436 122.051 55.2757L122.139 55.3823C122.139 55.3823 122.093 55.4348 122.036 55.4497C121.98 55.4645 121.918 55.4757 121.849 55.4747C121.712 55.4726 121.551 55.4386 121.383 55.3925C121.047 55.3003 120.674 55.1518 120.367 55.1253C120.822 56.0881 119.871 55.9731 119.887 56.6654C119.828 56.4951 119.389 56.0867 119.262 56.0533C119.302 56.2644 118.584 55.6884 119.175 56.369L119.2 56.3403C119.692 57.0532 119.366 56.9901 119.244 57.0984L118.468 56.2142C119.201 57.7583 117.114 56.3507 117.895 57.6524C117.617 57.4848 117.51 57.557 117.237 57.3931L117.648 57.8737C117.507 58.1522 117.434 58.2938 117.04 58.3761L117.386 58.6827C117.245 58.8233 116.006 57.4299 115.826 57.5058L116.382 58.2547C116.075 58.4352 116.31 59.2627 115.467 58.7997C115.56 58.9015 115.745 59.1052 115.818 59.1015C115.696 59.2097 115.687 59.9391 114.912 58.917C115.448 59.5604 114.655 59.1781 114.264 59.0015L114.685 59.4592C114.04 58.94 113.899 58.7745 113.57 58.7332C113.578 58.8228 113.848 59.1379 113.806 58.9788C113.865 59.3257 113.312 58.6022 113.346 58.9778L113.666 59.2355C113.544 59.374 113.417 59.2027 113.037 58.9041C112.784 58.7768 112.846 59.2097 113.183 59.6552C112.942 59.4059 112.568 59.111 112.579 59.2951C112.701 59.4627 112.82 59.5444 112.88 59.5852C112.891 60.0754 112.035 59.282 112.254 59.8612C112.384 60.0193 112.436 60.1084 112.463 60.1657C112.658 60.0235 112.801 59.8913 112.753 59.8664C113.124 60.304 113.023 60.4876 113.659 61.0079C113.248 60.7644 112.423 60.1917 112.438 60.5004C112.464 60.5492 112.495 60.5932 112.544 60.6654L112.604 60.7062C112.604 60.7752 112.537 60.7524 112.442 60.7025C112.452 60.8091 112.463 60.8855 112.424 60.92C112.712 61.2934 112.396 61.2378 112.333 61.3094C111.941 60.8267 111.899 60.9737 111.662 60.5127C111.678 60.5541 111.727 60.5573 111.799 60.5451C111.819 60.5514 111.844 60.553 111.876 60.5753C111.86 60.5642 111.844 60.553 111.832 60.5371C111.897 60.5127 111.976 60.4824 112.062 60.4342C111.794 60.2353 111.555 60.0719 111.685 60.3981C111.387 60.125 111.077 59.8359 110.926 59.7017C111.374 60.4454 111.459 60.9403 111.77 61.3758C111.296 61.273 111.032 61.5823 110.121 60.7819C109.955 60.7141 110.254 61.0949 110.349 61.2524C110.466 61.3171 110.504 61.2742 110.632 61.385C110.294 61.2456 110.14 61.5686 109.58 60.9624C109.636 61.3613 110.161 61.4758 109.832 61.5337L110.027 61.7061C110.386 63.0242 107.897 60.6136 108.443 62.2517C108.413 62.1472 108.402 62.101 108.317 61.9896C108.18 62.953 106.613 62.2769 106.762 63.5665C106.745 63.8614 106.386 63.47 106.03 63.2334L106.424 63.7718L105.75 63.2945C105.135 63.0262 106.366 64.8429 105.36 64.2298L105.116 63.8558C105.053 63.9964 104.583 63.8888 104.931 64.2728C104.865 64.2198 104.59 63.9398 104.697 64.1434L104.917 64.4166L104.247 64.1414C104.193 64.4793 105.174 65.19 104.902 65.4484C104.698 65.4235 103.903 64.8862 103.8 64.6778C103.838 64.6348 103.785 64.4295 103.561 64.1611L103.336 64.0911C102.653 63.3088 101.885 62.553 101.694 61.8241L102.288 62.1853L102.027 61.7615L101.852 61.8411C101.641 61.4205 101.965 61.7037 102.206 61.884C102.048 61.6686 101.957 61.5063 101.928 61.4103L102.747 62.0484C102.511 61.7253 102.149 61.4851 102.128 61.2331C102.508 61.5317 102.631 61.9837 102.963 62.1194C102.751 61.6988 102.478 61.4272 102.844 61.6627C102.686 61.4473 102.553 61.3328 102.441 61.2718C102.741 61.4542 102.776 61.2176 103.173 61.6048C102.896 61.1009 103.581 61.5167 102.947 60.7677C103.126 60.929 103.607 61.2509 103.716 61.2259C102.811 60.4293 103.991 60.9628 103.145 60.0303C103.939 60.766 103.867 60.1188 104.444 60.4301C104.382 60.3723 104.248 60.2577 104.265 60.3076C104.323 60.1633 104.154 59.9018 104.1 59.6965C104.673 60.3574 104.981 60.3924 105.422 60.7403C105.029 60.0035 104.683 60.0115 104.209 59.3655C104.658 59.9107 104.909 59.7452 105.237 60.2305C105.014 59.7637 105.166 59.9754 104.765 59.3861C105.483 60.2077 104.986 59.4608 105.505 59.9164C105.315 59.4029 104.891 59.1049 105.274 59.2523C105.141 58.9393 104.738 58.7468 104.738 58.7468L104.745 58.7675ZM110.043 57.5492L110.032 57.5418C109.986 57.5556 109.952 57.5635 109.929 57.5704C109.952 57.5635 109.981 57.5603 110.043 57.5492ZM110.389 57.3343C110.366 57.3799 110.313 57.4202 110.254 57.4484C110.381 57.6197 110.531 57.7841 110.561 57.7507C110.449 57.651 110.448 57.5046 110.384 57.3306L110.389 57.3343ZM112.443 61.1248C112.555 61.1555 112.491 61.0505 112.418 60.9465C112.385 60.9545 112.341 60.955 112.276 60.9492C112.255 60.9344 112.237 60.9147 112.22 60.8951C112.301 60.981 112.381 61.067 112.443 61.1248Z" fill="#003686"/>
<path d="M111.82 60.5601C111.82 60.5601 111.782 60.5341 111.768 60.54C111.747 60.4949 111.726 60.4499 111.711 60.4086C111.756 60.4552 111.812 60.5008 111.857 60.5474L111.82 60.5601Z" fill="#003686"/>
<path d="M125.832 66.5094L125.815 66.498C125.815 66.498 125.867 66.5099 125.911 66.5094C125.877 66.5088 125.856 66.5024 125.826 66.5056L125.832 66.5094Z" fill="#003686"/>
<path d="M114.372 53.3299L114.473 53.4523L114.358 53.3659L114.372 53.3299Z" fill="#003686"/>
<path d="M128.245 68.4932C128.304 68.4953 128.369 68.5011 128.419 68.5129C128.375 68.5134 128.315 68.5028 128.245 68.4932Z" fill="#003686"/>
<path d="M128.444 69.3799L128.69 69.4948C128.551 69.4455 128.482 69.4058 128.444 69.3799Z" fill="#003686"/>
<path d="M128.813 70.0548C128.692 70.0638 128.606 70.0733 128.523 70.0781L128.813 70.0548Z" fill="#003686"/>
<path d="M129.064 59.0791C129.064 59.0791 129.077 59.0647 129.089 59.0503C129.218 58.9841 129.17 59.0284 129.064 59.0791Z" fill="#003686"/>
<path d="M127.648 62.3994C127.769 62.3602 127.891 62.321 127.959 62.2834C128.015 62.3374 128.026 62.3835 127.648 62.3994Z" fill="#003686"/>
<path d="M129.697 55.3762L129.691 55.3725C129.691 55.3725 129.684 55.3514 129.687 55.3379L129.702 55.38L129.697 55.3762Z" fill="#003686"/>
<path d="M127.948 62.1289C128.083 62.1833 128.06 62.2292 127.97 62.2825C127.924 62.2356 127.847 62.1834 127.948 62.1289Z" fill="#003686"/>
<path d="M129.262 73.0261L129.292 73.0622C129.247 73.0628 129.208 73.0671 129.179 73.0703L129.258 73.031L129.262 73.0261Z" fill="#003686"/>
<path d="M129.184 73.0653L129.105 73.1046C129.105 73.1046 129.106 73.0739 129.184 73.0653Z" fill="#003686"/>
<path d="M128.941 73.1914L129.11 73.1082C129.11 73.1082 129.138 73.1654 128.941 73.1914Z" fill="#003686"/>
<path d="M128.908 72.127L129.149 72.1089C129.097 72.119 129.024 72.1227 128.908 72.127Z" fill="#003686"/>
<path d="M128.961 71.849C129.019 71.9115 129.49 71.9972 129.343 72.0952L129.149 72.108C129.512 72.0507 128.552 71.9285 128.961 71.849Z" fill="#003686"/>
<path d="M125.884 70.8052L126.092 71.0322C125.834 71.0004 125.476 70.9623 125.418 71.0679C124.623 70.8065 126 71.107 125.884 70.8052Z" fill="#003686"/>
<path d="M125.471 70.1006C125.357 70.2294 125.092 70.1166 124.947 70.124C125.179 70.0382 125.244 70.0138 125.471 70.1006Z" fill="#003686"/>
<path d="M125.211 64.9047L124.597 64.9424C124.681 64.847 124.834 64.9291 125.211 64.9047Z" fill="#003686"/>
<path d="M128.334 63.789L128.716 63.8674L128.164 63.9326L128.334 63.789Z" fill="#003686"/>
<path d="M123.933 63.3696L123.852 63.4131L124.062 63.2435L123.933 63.3696Z" fill="#003686"/>
<path d="M123.757 55.312L124.504 55.0959C124.373 55.175 123.533 55.4186 123.757 55.312Z" fill="#003686"/>
<path d="M124.417 53.0062C124.057 53.464 123.833 53.7473 124.174 53.2226C124.228 53.1908 124.499 52.855 124.417 53.0062Z" fill="#003686"/>
<path d="M118.888 57.0386L119.108 57.1736L118.85 57.1117L118.888 57.0386Z" fill="#003686"/>
</g>
<defs>
<clipPath id="clip0_297_11231">
<rect width="97.1388" height="97.9874" fill="white" transform="matrix(0.824842 0.565363 0.661415 -0.75002 0.382812 73.8467)"/>
</clipPath>
</defs>
</svg>
