<svg width="1698" height="787" viewBox="0 0 1698 787" fill="none" xmlns="http://www.w3.org/2000/svg">
<mask id="mask0_276_16868" style="mask-type:alpha" maskUnits="userSpaceOnUse" x="0" y="0" width="1698" height="787">
<rect width="1698" height="787" fill="white"/>
</mask>
<g mask="url(#mask0_276_16868)">
<path d="M0 0H1699V901C1699 917.569 1685.57 931 1669 931H30C13.4315 931 0 917.569 0 901V0Z" fill="#FF7575"/>
<path fill-rule="evenodd" clip-rule="evenodd" d="M133.572 -24.8682C131.99 -27.5708 129.112 -29.2188 125.992 -29.2188C122.872 -29.2188 119.993 -27.5708 118.411 -24.8682L70.9504 55.9912C69.3684 58.6938 69.3464 62.0776 70.9064 64.8022C72.4665 67.5269 75.3889 69.2188 78.531 69.2188H173.453C176.595 69.2188 179.517 67.5269 181.077 64.8022C182.637 62.0776 182.637 58.7158 181.033 55.9912L133.572 -24.8682ZM120.718 4.17984C120.718 1.25748 123.069 -1.0936 125.992 -1.0936C128.914 -1.0936 131.265 1.25748 131.265 4.17984V28.7892C131.265 31.7116 128.914 34.0627 125.992 34.0627C123.069 34.0627 120.718 31.7116 120.718 28.7892V4.17984ZM125.992 41.0939C129.874 41.0939 133.023 44.2426 133.023 48.1252C133.023 52.0077 129.874 55.1564 125.992 55.1564C122.109 55.1564 118.96 52.0077 118.96 48.1252C118.96 44.2426 122.109 41.0939 125.992 41.0939Z" fill="#FA5353"/>
<path d="M343.5 -40C339.352 -40 336 -36.6484 336 -32.5V-10H351V-32.5C351 -36.6484 347.648 -40 343.5 -40ZM388.5 -40C384.352 -40 381 -36.6484 381 -32.5V-10H396V-32.5C396 -36.6484 392.648 -40 388.5 -40ZM328.5 -2.5C324.352 -2.5 321 0.851562 321 5C321 9.14844 324.352 12.5 328.5 12.5V20C328.5 38.1406 341.391 53.2812 358.5 56.75V72.5C358.5 76.6484 361.852 80 366 80C370.148 80 373.5 76.6484 373.5 72.5V56.75C390.609 53.2812 403.5 38.1406 403.5 20V12.5C407.648 12.5 411 9.14844 411 5C411 0.851562 407.648 -2.5 403.5 -2.5H328.5Z" fill="#FA5353"/>
<path d="M635.384 -29.547C636.767 -32.7573 635.736 -36.5064 632.9 -38.5685C630.065 -40.6306 626.199 -40.4431 623.551 -38.1467L563.564 14.3419C561.221 16.404 560.377 19.708 561.478 22.6136C562.58 25.5192 565.392 27.4875 568.508 27.4875H594.635L576.616 69.5253C575.233 72.7356 576.264 76.4848 579.1 78.5468C581.935 80.6089 585.801 80.4214 588.449 78.125L648.436 25.6364C650.779 23.5743 651.623 20.2704 650.522 17.3647C649.42 14.4591 646.632 12.5142 643.492 12.5142H617.365L635.384 -29.547Z" fill="#FA5353"/>
<path fill-rule="evenodd" clip-rule="evenodd" d="M853.572 -24.8682C851.99 -27.5708 849.112 -29.2188 845.992 -29.2188C842.872 -29.2188 839.993 -27.5708 838.411 -24.8682L790.95 55.9912C789.368 58.6938 789.346 62.0776 790.906 64.8022C792.466 67.5269 795.389 69.2188 798.531 69.2188H893.453C896.595 69.2188 899.517 67.5269 901.077 64.8022C902.637 62.0776 902.637 58.7158 901.033 55.9912L853.572 -24.8682ZM840.718 4.17984C840.718 1.25748 843.069 -1.0936 845.992 -1.0936C848.914 -1.0936 851.265 1.25748 851.265 4.17984V28.7892C851.265 31.7116 848.914 34.0627 845.992 34.0627C843.069 34.0627 840.718 31.7116 840.718 28.7892V4.17984ZM845.992 41.0939C849.874 41.0939 853.023 44.2426 853.023 48.1252C853.023 52.0077 849.874 55.1564 845.992 55.1564C842.109 55.1564 838.96 52.0077 838.96 48.1252C838.96 44.2426 842.109 41.0939 845.992 41.0939Z" fill="#FA5353"/>
<path d="M1063.5 -40C1059.35 -40 1056 -36.6484 1056 -32.5V-10H1071V-32.5C1071 -36.6484 1067.65 -40 1063.5 -40ZM1108.5 -40C1104.35 -40 1101 -36.6484 1101 -32.5V-10H1116V-32.5C1116 -36.6484 1112.65 -40 1108.5 -40ZM1048.5 -2.5C1044.35 -2.5 1041 0.851562 1041 5C1041 9.14844 1044.35 12.5 1048.5 12.5V20C1048.5 38.1406 1061.39 53.2812 1078.5 56.75V72.5C1078.5 76.6484 1081.85 80 1086 80C1090.15 80 1093.5 76.6484 1093.5 72.5V56.75C1110.61 53.2812 1123.5 38.1406 1123.5 20V12.5C1127.65 12.5 1131 9.14844 1131 5C1131 0.851562 1127.65 -2.5 1123.5 -2.5H1048.5Z" fill="#FA5353"/>
<path d="M1355.38 -29.547C1356.77 -32.7573 1355.74 -36.5064 1352.9 -38.5685C1350.07 -40.6306 1346.2 -40.4431 1343.55 -38.1467L1283.56 14.3419C1281.22 16.404 1280.38 19.708 1281.48 22.6136C1282.58 25.5192 1285.39 27.4875 1288.51 27.4875H1314.64L1296.62 69.5253C1295.23 72.7356 1296.26 76.4848 1299.1 78.5468C1301.93 80.6089 1305.8 80.4214 1308.45 78.125L1368.44 25.6364C1370.78 23.5743 1371.62 20.2704 1370.52 17.3647C1369.42 14.4591 1366.63 12.5142 1363.49 12.5142H1337.36L1355.38 -29.547Z" fill="#FA5353"/>
<path fill-rule="evenodd" clip-rule="evenodd" d="M1573.57 -24.8682C1571.99 -27.5708 1569.11 -29.2188 1565.99 -29.2188C1562.87 -29.2188 1559.99 -27.5708 1558.41 -24.8682L1510.95 55.9912C1509.37 58.6938 1509.35 62.0776 1510.91 64.8022C1512.47 67.5269 1515.39 69.2188 1518.53 69.2188H1613.45C1616.59 69.2188 1619.52 67.5269 1621.08 64.8022C1622.64 62.0776 1622.64 58.7158 1621.03 55.9912L1573.57 -24.8682ZM1560.72 4.17984C1560.72 1.25748 1563.07 -1.0936 1565.99 -1.0936C1568.91 -1.0936 1571.27 1.25748 1571.27 4.17984V28.7892C1571.27 31.7116 1568.91 34.0627 1565.99 34.0627C1563.07 34.0627 1560.72 31.7116 1560.72 28.7892V4.17984ZM1565.99 41.0939C1569.87 41.0939 1573.02 44.2426 1573.02 48.1252C1573.02 52.0077 1569.87 55.1564 1565.99 55.1564C1562.11 55.1564 1558.96 52.0077 1558.96 48.1252C1558.96 44.2426 1562.11 41.0939 1565.99 41.0939Z" fill="#FA5353"/>
<path d="M-16.5 200C-20.6484 200 -24 203.352 -24 207.5V230H-9V207.5C-9 203.352 -12.3516 200 -16.5 200ZM28.5 200C24.3516 200 21 203.352 21 207.5V230H36V207.5C36 203.352 32.6484 200 28.5 200ZM-31.5 237.5C-35.6484 237.5 -39 240.852 -39 245C-39 249.148 -35.6484 252.5 -31.5 252.5V260C-31.5 278.141 -18.6094 293.281 -1.5 296.75V312.5C-1.5 316.648 1.85156 320 6 320C10.1484 320 13.5 316.648 13.5 312.5V296.75C30.6094 293.281 43.5 278.141 43.5 260V252.5C47.6484 252.5 51 249.148 51 245C51 240.852 47.6484 237.5 43.5 237.5H-31.5Z" fill="#FA5353"/>
<path d="M275.384 210.453C276.767 207.243 275.736 203.494 272.9 201.431C270.065 199.369 266.199 199.557 263.551 201.853L203.564 254.342C201.221 256.404 200.377 259.708 201.478 262.614C202.58 265.519 205.392 267.488 208.508 267.488H234.635L216.616 309.525C215.233 312.736 216.264 316.485 219.1 318.547C221.935 320.609 225.801 320.421 228.449 318.125L288.436 265.636C290.779 263.574 291.623 260.27 290.522 257.365C289.42 254.459 286.632 252.514 283.492 252.514H257.365L275.384 210.453Z" fill="#FA5353"/>
<path fill-rule="evenodd" clip-rule="evenodd" d="M493.572 215.132C491.99 212.429 489.112 210.781 485.992 210.781C482.872 210.781 479.993 212.429 478.411 215.132L430.95 295.991C429.368 298.694 429.346 302.078 430.906 304.802C432.466 307.527 435.389 309.219 438.531 309.219H533.453C536.595 309.219 539.517 307.527 541.077 304.802C542.637 302.078 542.637 298.716 541.033 295.991L493.572 215.132ZM480.718 244.18C480.718 241.257 483.069 238.906 485.992 238.906C488.914 238.906 491.265 241.257 491.265 244.18V268.789C491.265 271.712 488.914 274.063 485.992 274.063C483.069 274.063 480.718 271.712 480.718 268.789V244.18ZM485.992 281.094C489.874 281.094 493.023 284.243 493.023 288.125C493.023 292.008 489.874 295.156 485.992 295.156C482.109 295.156 478.96 292.008 478.96 288.125C478.96 284.243 482.109 281.094 485.992 281.094Z" fill="#FA5353"/>
<path d="M703.5 200C699.352 200 696 203.352 696 207.5V230H711V207.5C711 203.352 707.648 200 703.5 200ZM748.5 200C744.352 200 741 203.352 741 207.5V230H756V207.5C756 203.352 752.648 200 748.5 200ZM688.5 237.5C684.352 237.5 681 240.852 681 245C681 249.148 684.352 252.5 688.5 252.5V260C688.5 278.141 701.391 293.281 718.5 296.75V312.5C718.5 316.648 721.852 320 726 320C730.148 320 733.5 316.648 733.5 312.5V296.75C750.609 293.281 763.5 278.141 763.5 260V252.5C767.648 252.5 771 249.148 771 245C771 240.852 767.648 237.5 763.5 237.5H688.5Z" fill="#FA5353"/>
<path d="M995.384 210.453C996.767 207.243 995.736 203.494 992.9 201.431C990.065 199.369 986.199 199.557 983.551 201.853L923.564 254.342C921.221 256.404 920.377 259.708 921.478 262.614C922.58 265.519 925.392 267.488 928.508 267.488H954.635L936.616 309.525C935.233 312.736 936.264 316.485 939.1 318.547C941.935 320.609 945.801 320.421 948.449 318.125L1008.44 265.636C1010.78 263.574 1011.62 260.27 1010.52 257.365C1009.42 254.459 1006.63 252.514 1003.49 252.514H977.365L995.384 210.453Z" fill="#FA5353"/>
<path fill-rule="evenodd" clip-rule="evenodd" d="M1213.57 215.132C1211.99 212.429 1209.11 210.781 1205.99 210.781C1202.87 210.781 1199.99 212.429 1198.41 215.132L1150.95 295.991C1149.37 298.694 1149.35 302.078 1150.91 304.802C1152.47 307.527 1155.39 309.219 1158.53 309.219H1253.45C1256.59 309.219 1259.52 307.527 1261.08 304.802C1262.64 302.078 1262.64 298.716 1261.03 295.991L1213.57 215.132ZM1200.72 244.18C1200.72 241.257 1203.07 238.906 1205.99 238.906C1208.91 238.906 1211.27 241.257 1211.27 244.18V268.789C1211.27 271.712 1208.91 274.063 1205.99 274.063C1203.07 274.063 1200.72 271.712 1200.72 268.789V244.18ZM1205.99 281.094C1209.87 281.094 1213.02 284.243 1213.02 288.125C1213.02 292.008 1209.87 295.156 1205.99 295.156C1202.11 295.156 1198.96 292.008 1198.96 288.125C1198.96 284.243 1202.11 281.094 1205.99 281.094Z" fill="#FA5353"/>
<path d="M1423.5 200C1419.35 200 1416 203.352 1416 207.5V230H1431V207.5C1431 203.352 1427.65 200 1423.5 200ZM1468.5 200C1464.35 200 1461 203.352 1461 207.5V230H1476V207.5C1476 203.352 1472.65 200 1468.5 200ZM1408.5 237.5C1404.35 237.5 1401 240.852 1401 245C1401 249.148 1404.35 252.5 1408.5 252.5V260C1408.5 278.141 1421.39 293.281 1438.5 296.75V312.5C1438.5 316.648 1441.85 320 1446 320C1450.15 320 1453.5 316.648 1453.5 312.5V296.75C1470.61 293.281 1483.5 278.141 1483.5 260V252.5C1487.65 252.5 1491 249.148 1491 245C1491 240.852 1487.65 237.5 1483.5 237.5H1408.5Z" fill="#FA5353"/>
<path d="M1715.38 210.453C1716.77 207.243 1715.74 203.494 1712.9 201.431C1710.07 199.369 1706.2 199.557 1703.55 201.853L1643.56 254.342C1641.22 256.404 1640.38 259.708 1641.48 262.614C1642.58 265.519 1645.39 267.488 1648.51 267.488H1674.64L1656.62 309.525C1655.23 312.736 1656.26 316.485 1659.1 318.547C1661.93 320.609 1665.8 320.421 1668.45 318.125L1728.44 265.636C1730.78 263.574 1731.62 260.27 1730.52 257.365C1729.42 254.459 1726.63 252.514 1723.49 252.514H1697.36L1715.38 210.453Z" fill="#FA5353"/>
<path fill-rule="evenodd" clip-rule="evenodd" d="M133.572 455.132C131.99 452.429 129.112 450.781 125.992 450.781C122.872 450.781 119.993 452.429 118.411 455.132L70.9504 535.991C69.3684 538.694 69.3464 542.078 70.9064 544.802C72.4665 547.527 75.3889 549.219 78.531 549.219H173.453C176.595 549.219 179.517 547.527 181.077 544.802C182.637 542.078 182.637 538.716 181.033 535.991L133.572 455.132ZM120.718 484.18C120.718 481.257 123.069 478.906 125.992 478.906C128.914 478.906 131.265 481.257 131.265 484.18V508.789C131.265 511.712 128.914 514.063 125.992 514.063C123.069 514.063 120.718 511.712 120.718 508.789V484.18ZM125.992 521.094C129.874 521.094 133.023 524.243 133.023 528.125C133.023 532.008 129.874 535.156 125.992 535.156C122.109 535.156 118.96 532.008 118.96 528.125C118.96 524.243 122.109 521.094 125.992 521.094Z" fill="#FA5353"/>
<path d="M343.5 440C339.352 440 336 443.352 336 447.5V470H351V447.5C351 443.352 347.648 440 343.5 440ZM388.5 440C384.352 440 381 443.352 381 447.5V470H396V447.5C396 443.352 392.648 440 388.5 440ZM328.5 477.5C324.352 477.5 321 480.852 321 485C321 489.148 324.352 492.5 328.5 492.5V500C328.5 518.141 341.391 533.281 358.5 536.75V552.5C358.5 556.648 361.852 560 366 560C370.148 560 373.5 556.648 373.5 552.5V536.75C390.609 533.281 403.5 518.141 403.5 500V492.5C407.648 492.5 411 489.148 411 485C411 480.852 407.648 477.5 403.5 477.5H328.5Z" fill="#FA5353"/>
<path d="M635.384 450.453C636.767 447.243 635.736 443.494 632.9 441.431C630.065 439.369 626.199 439.557 623.551 441.853L563.564 494.342C561.221 496.404 560.377 499.708 561.478 502.614C562.58 505.519 565.392 507.488 568.508 507.488H594.635L576.616 549.525C575.233 552.736 576.264 556.485 579.1 558.547C581.935 560.609 585.801 560.421 588.449 558.125L648.436 505.636C650.779 503.574 651.623 500.27 650.522 497.365C649.42 494.459 646.632 492.514 643.492 492.514H617.365L635.384 450.453Z" fill="#FA5353"/>
<path fill-rule="evenodd" clip-rule="evenodd" d="M853.572 455.132C851.99 452.429 849.112 450.781 845.992 450.781C842.872 450.781 839.993 452.429 838.411 455.132L790.95 535.991C789.368 538.694 789.346 542.078 790.906 544.802C792.466 547.527 795.389 549.219 798.531 549.219H893.453C896.595 549.219 899.517 547.527 901.077 544.802C902.637 542.078 902.637 538.716 901.033 535.991L853.572 455.132ZM840.718 484.18C840.718 481.257 843.069 478.906 845.992 478.906C848.914 478.906 851.265 481.257 851.265 484.18V508.789C851.265 511.712 848.914 514.063 845.992 514.063C843.069 514.063 840.718 511.712 840.718 508.789V484.18ZM845.992 521.094C849.874 521.094 853.023 524.243 853.023 528.125C853.023 532.008 849.874 535.156 845.992 535.156C842.109 535.156 838.96 532.008 838.96 528.125C838.96 524.243 842.109 521.094 845.992 521.094Z" fill="#FA5353"/>
<path d="M1063.5 440C1059.35 440 1056 443.352 1056 447.5V470H1071V447.5C1071 443.352 1067.65 440 1063.5 440ZM1108.5 440C1104.35 440 1101 443.352 1101 447.5V470H1116V447.5C1116 443.352 1112.65 440 1108.5 440ZM1048.5 477.5C1044.35 477.5 1041 480.852 1041 485C1041 489.148 1044.35 492.5 1048.5 492.5V500C1048.5 518.141 1061.39 533.281 1078.5 536.75V552.5C1078.5 556.648 1081.85 560 1086 560C1090.15 560 1093.5 556.648 1093.5 552.5V536.75C1110.61 533.281 1123.5 518.141 1123.5 500V492.5C1127.65 492.5 1131 489.148 1131 485C1131 480.852 1127.65 477.5 1123.5 477.5H1048.5Z" fill="#FA5353"/>
<path d="M1355.38 450.453C1356.77 447.243 1355.74 443.494 1352.9 441.431C1350.07 439.369 1346.2 439.557 1343.55 441.853L1283.56 494.342C1281.22 496.404 1280.38 499.708 1281.48 502.614C1282.58 505.519 1285.39 507.488 1288.51 507.488H1314.64L1296.62 549.525C1295.23 552.736 1296.26 556.485 1299.1 558.547C1301.93 560.609 1305.8 560.421 1308.45 558.125L1368.44 505.636C1370.78 503.574 1371.62 500.27 1370.52 497.365C1369.42 494.459 1366.63 492.514 1363.49 492.514H1337.36L1355.38 450.453Z" fill="#FA5353"/>
<path fill-rule="evenodd" clip-rule="evenodd" d="M1573.57 455.132C1571.99 452.429 1569.11 450.781 1565.99 450.781C1562.87 450.781 1559.99 452.429 1558.41 455.132L1510.95 535.991C1509.37 538.694 1509.35 542.078 1510.91 544.802C1512.47 547.527 1515.39 549.219 1518.53 549.219H1613.45C1616.59 549.219 1619.52 547.527 1621.08 544.802C1622.64 542.078 1622.64 538.716 1621.03 535.991L1573.57 455.132ZM1560.72 484.18C1560.72 481.257 1563.07 478.906 1565.99 478.906C1568.91 478.906 1571.27 481.257 1571.27 484.18V508.789C1571.27 511.712 1568.91 514.063 1565.99 514.063C1563.07 514.063 1560.72 511.712 1560.72 508.789V484.18ZM1565.99 521.094C1569.87 521.094 1573.02 524.243 1573.02 528.125C1573.02 532.008 1569.87 535.156 1565.99 535.156C1562.11 535.156 1558.96 532.008 1558.96 528.125C1558.96 524.243 1562.11 521.094 1565.99 521.094Z" fill="#FA5353"/>
<path d="M-16.5 680C-20.6484 680 -24 683.352 -24 687.5V710H-9V687.5C-9 683.352 -12.3516 680 -16.5 680ZM28.5 680C24.3516 680 21 683.352 21 687.5V710H36V687.5C36 683.352 32.6484 680 28.5 680ZM-31.5 717.5C-35.6484 717.5 -39 720.852 -39 725C-39 729.148 -35.6484 732.5 -31.5 732.5V740C-31.5 758.141 -18.6094 773.281 -1.5 776.75V792.5C-1.5 796.648 1.85156 800 6 800C10.1484 800 13.5 796.648 13.5 792.5V776.75C30.6094 773.281 43.5 758.141 43.5 740V732.5C47.6484 732.5 51 729.148 51 725C51 720.852 47.6484 717.5 43.5 717.5H-31.5Z" fill="#FA5353"/>
<path d="M275.384 690.453C276.767 687.243 275.736 683.494 272.9 681.431C270.065 679.369 266.199 679.557 263.551 681.853L203.564 734.342C201.221 736.404 200.377 739.708 201.478 742.614C202.58 745.519 205.392 747.488 208.508 747.488H234.635L216.616 789.525C215.233 792.736 216.264 796.485 219.1 798.547C221.935 800.609 225.801 800.421 228.449 798.125L288.436 745.636C290.779 743.574 291.623 740.27 290.522 737.365C289.42 734.459 286.632 732.514 283.492 732.514H257.365L275.384 690.453Z" fill="#FA5353"/>
<path fill-rule="evenodd" clip-rule="evenodd" d="M493.572 695.132C491.99 692.429 489.112 690.781 485.992 690.781C482.872 690.781 479.993 692.429 478.411 695.132L430.95 775.991C429.368 778.694 429.346 782.078 430.906 784.802C432.466 787.527 435.389 789.219 438.531 789.219H533.453C536.595 789.219 539.517 787.527 541.077 784.802C542.637 782.078 542.637 778.716 541.033 775.991L493.572 695.132ZM480.718 724.18C480.718 721.257 483.069 718.906 485.992 718.906C488.914 718.906 491.265 721.257 491.265 724.18V748.789C491.265 751.712 488.914 754.063 485.992 754.063C483.069 754.063 480.718 751.712 480.718 748.789V724.18ZM485.992 761.094C489.874 761.094 493.023 764.243 493.023 768.125C493.023 772.008 489.874 775.156 485.992 775.156C482.109 775.156 478.96 772.008 478.96 768.125C478.96 764.243 482.109 761.094 485.992 761.094Z" fill="#FA5353"/>
<path d="M703.5 680C699.352 680 696 683.352 696 687.5V710H711V687.5C711 683.352 707.648 680 703.5 680ZM748.5 680C744.352 680 741 683.352 741 687.5V710H756V687.5C756 683.352 752.648 680 748.5 680ZM688.5 717.5C684.352 717.5 681 720.852 681 725C681 729.148 684.352 732.5 688.5 732.5V740C688.5 758.141 701.391 773.281 718.5 776.75V792.5C718.5 796.648 721.852 800 726 800C730.148 800 733.5 796.648 733.5 792.5V776.75C750.609 773.281 763.5 758.141 763.5 740V732.5C767.648 732.5 771 729.148 771 725C771 720.852 767.648 717.5 763.5 717.5H688.5Z" fill="#FA5353"/>
<path d="M995.384 690.453C996.767 687.243 995.736 683.494 992.9 681.431C990.065 679.369 986.199 679.557 983.551 681.853L923.564 734.342C921.221 736.404 920.377 739.708 921.478 742.614C922.58 745.519 925.392 747.488 928.508 747.488H954.635L936.616 789.525C935.233 792.736 936.264 796.485 939.1 798.547C941.935 800.609 945.801 800.421 948.449 798.125L1008.44 745.636C1010.78 743.574 1011.62 740.27 1010.52 737.365C1009.42 734.459 1006.63 732.514 1003.49 732.514H977.365L995.384 690.453Z" fill="#FA5353"/>
<path fill-rule="evenodd" clip-rule="evenodd" d="M1213.57 695.132C1211.99 692.429 1209.11 690.781 1205.99 690.781C1202.87 690.781 1199.99 692.429 1198.41 695.132L1150.95 775.991C1149.37 778.694 1149.35 782.078 1150.91 784.802C1152.47 787.527 1155.39 789.219 1158.53 789.219H1253.45C1256.59 789.219 1259.52 787.527 1261.08 784.802C1262.64 782.078 1262.64 778.716 1261.03 775.991L1213.57 695.132ZM1200.72 724.18C1200.72 721.257 1203.07 718.906 1205.99 718.906C1208.91 718.906 1211.27 721.257 1211.27 724.18V748.789C1211.27 751.712 1208.91 754.063 1205.99 754.063C1203.07 754.063 1200.72 751.712 1200.72 748.789V724.18ZM1205.99 761.094C1209.87 761.094 1213.02 764.243 1213.02 768.125C1213.02 772.008 1209.87 775.156 1205.99 775.156C1202.11 775.156 1198.96 772.008 1198.96 768.125C1198.96 764.243 1202.11 761.094 1205.99 761.094Z" fill="#FA5353"/>
<path d="M1423.5 680C1419.35 680 1416 683.352 1416 687.5V710H1431V687.5C1431 683.352 1427.65 680 1423.5 680ZM1468.5 680C1464.35 680 1461 683.352 1461 687.5V710H1476V687.5C1476 683.352 1472.65 680 1468.5 680ZM1408.5 717.5C1404.35 717.5 1401 720.852 1401 725C1401 729.148 1404.35 732.5 1408.5 732.5V740C1408.5 758.141 1421.39 773.281 1438.5 776.75V792.5C1438.5 796.648 1441.85 800 1446 800C1450.15 800 1453.5 796.648 1453.5 792.5V776.75C1470.61 773.281 1483.5 758.141 1483.5 740V732.5C1487.65 732.5 1491 729.148 1491 725C1491 720.852 1487.65 717.5 1483.5 717.5H1408.5Z" fill="#FA5353"/>
<path d="M1715.38 690.453C1716.77 687.243 1715.74 683.494 1712.9 681.431C1710.07 679.369 1706.2 679.557 1703.55 681.853L1643.56 734.342C1641.22 736.404 1640.38 739.708 1641.48 742.614C1642.58 745.519 1645.39 747.488 1648.51 747.488H1674.64L1656.62 789.525C1655.23 792.736 1656.26 796.485 1659.1 798.547C1661.93 800.609 1665.8 800.421 1668.45 798.125L1728.44 745.636C1730.78 743.574 1731.62 740.27 1730.52 737.365C1729.42 734.459 1726.63 732.514 1723.49 732.514H1697.36L1715.38 690.453Z" fill="#FA5353"/>
</g>
</svg>
