<svg width="1920" height="837" viewBox="0 0 1920 837" fill="none" xmlns="http://www.w3.org/2000/svg">
<mask id="mask0_270_9537" style="mask-type:alpha" maskUnits="userSpaceOnUse" x="0" y="0" width="1920" height="837">
<path d="M0 0H1920V837H0V0Z" fill="white"/>
</mask>
<g mask="url(#mask0_270_9537)">
<path d="M0 0H1920V837H0V0Z" fill="white"/>
<path d="M129.75 26.5176C111.328 26.5176 95.7422 38.588 90.4453 55.2286C98.3203 51.2442 107.203 49.0176 116.625 49.0176H137.25C139.312 49.0176 141 50.7051 141 52.7676C141 54.8301 139.312 56.5176 137.25 56.5176H133.5H116.625C112.734 56.5176 108.961 56.963 105.305 57.7833C99.2344 59.1661 93.6094 61.627 88.5703 64.9786C74.9766 74.0489 66 89.5411 66 107.143V110.893C66 114.01 68.5078 116.518 71.625 116.518C74.7422 116.518 77.25 114.01 77.25 110.893V107.143C77.25 95.7286 82.1016 85.463 89.8594 78.2676C94.5 95.963 110.602 109.018 129.75 109.018H129.984C160.945 108.854 186 78.338 186 40.7208C186 30.7364 184.242 21.2442 181.055 12.6895C180.445 11.0723 178.078 11.1426 177.258 12.6661C172.852 20.9161 164.133 26.5176 154.125 26.5176H129.75Z" fill="#E5F8F4"/>
<path d="M390.656 62.3359C394.031 57.5078 396 51.625 396 45.25C396 28.6797 382.57 15.25 366 15.25C349.43 15.25 336 28.6797 336 45.25C336 51.625 337.969 57.5078 341.344 62.3359C342.211 63.5781 343.242 64.9844 344.344 66.4844C347.367 70.6328 350.977 75.6016 353.672 80.5C356.109 84.9531 357.352 89.5938 357.961 93.9766L346.547 94C346.031 91.1875 345.164 88.4453 343.781 85.9141C341.461 81.6953 338.578 77.7344 335.695 73.7734C334.477 72.1094 333.258 70.4453 332.086 68.7578C327.469 62.1016 324.75 53.9922 324.75 45.25C324.75 22.4688 343.219 4 366 4C388.781 4 407.25 22.4688 407.25 45.25C407.25 53.9922 404.531 62.1016 399.891 68.7578C398.719 70.4453 397.5 72.1094 396.281 73.7734C393.398 77.7109 390.516 81.6719 388.195 85.9141C386.813 88.4453 385.945 91.1875 385.43 94H374.039C374.648 89.6172 375.891 84.9531 378.328 80.5234C381.023 75.625 384.633 70.6562 387.656 66.5078C388.758 65.0078 389.766 63.6016 390.633 62.3594L390.656 62.3359ZM366 34C359.789 34 354.75 39.0391 354.75 45.25C354.75 47.3125 353.062 49 351 49C348.938 49 347.25 47.3125 347.25 45.25C347.25 34.8906 355.641 26.5 366 26.5C368.062 26.5 369.75 28.1875 369.75 30.25C369.75 32.3125 368.062 34 366 34ZM366 124C355.641 124 347.25 115.609 347.25 105.25V101.5H384.75V105.25C384.75 115.609 376.359 124 366 124Z" fill="#E5F8F4"/>
<path d="M583.5 4C579.352 4 576 7.35156 576 11.5V34H591V11.5C591 7.35156 587.648 4 583.5 4ZM628.5 4C624.352 4 621 7.35156 621 11.5V34H636V11.5C636 7.35156 632.648 4 628.5 4ZM568.5 41.5C564.352 41.5 561 44.8516 561 49C561 53.1484 564.352 56.5 568.5 56.5V64C568.5 82.1406 581.391 97.2812 598.5 100.75V116.5C598.5 120.648 601.852 124 606 124C610.148 124 613.5 120.648 613.5 116.5V100.75C630.609 97.2812 643.5 82.1406 643.5 64V56.5C647.648 56.5 651 53.1484 651 49C651 44.8516 647.648 41.5 643.5 41.5H568.5Z" fill="#E5F8F4"/>
<path d="M849.75 26.5176C831.328 26.5176 815.742 38.588 810.445 55.2286C818.32 51.2442 827.203 49.0176 836.625 49.0176H857.25C859.312 49.0176 861 50.7051 861 52.7676C861 54.8301 859.312 56.5176 857.25 56.5176H853.5H836.625C832.734 56.5176 828.961 56.963 825.305 57.7833C819.234 59.1661 813.609 61.627 808.57 64.9786C794.977 74.0489 786 89.5411 786 107.143V110.893C786 114.01 788.508 116.518 791.625 116.518C794.742 116.518 797.25 114.01 797.25 110.893V107.143C797.25 95.7286 802.102 85.463 809.859 78.2676C814.5 95.963 830.602 109.018 849.75 109.018H849.984C880.945 108.854 906 78.338 906 40.7208C906 30.7364 904.242 21.2442 901.055 12.6895C900.445 11.0723 898.078 11.1426 897.258 12.6661C892.852 20.9161 884.133 26.5176 874.125 26.5176H849.75Z" fill="#E5F8F4"/>
<path d="M1110.66 62.3359C1114.03 57.5078 1116 51.625 1116 45.25C1116 28.6797 1102.57 15.25 1086 15.25C1069.43 15.25 1056 28.6797 1056 45.25C1056 51.625 1057.97 57.5078 1061.34 62.3359C1062.21 63.5781 1063.24 64.9844 1064.34 66.4844C1067.37 70.6328 1070.98 75.6016 1073.67 80.5C1076.11 84.9531 1077.35 89.5938 1077.96 93.9766L1066.55 94C1066.03 91.1875 1065.16 88.4453 1063.78 85.9141C1061.46 81.6953 1058.58 77.7344 1055.7 73.7734C1054.48 72.1094 1053.26 70.4453 1052.09 68.7578C1047.47 62.1016 1044.75 53.9922 1044.75 45.25C1044.75 22.4688 1063.22 4 1086 4C1108.78 4 1127.25 22.4688 1127.25 45.25C1127.25 53.9922 1124.53 62.1016 1119.89 68.7578C1118.72 70.4453 1117.5 72.1094 1116.28 73.7734C1113.4 77.7109 1110.52 81.6719 1108.2 85.9141C1106.81 88.4453 1105.95 91.1875 1105.43 94H1094.04C1094.65 89.6172 1095.89 84.9531 1098.33 80.5234C1101.02 75.625 1104.63 70.6562 1107.66 66.5078C1108.76 65.0078 1109.77 63.6016 1110.63 62.3594L1110.66 62.3359ZM1086 34C1079.79 34 1074.75 39.0391 1074.75 45.25C1074.75 47.3125 1073.06 49 1071 49C1068.94 49 1067.25 47.3125 1067.25 45.25C1067.25 34.8906 1075.64 26.5 1086 26.5C1088.06 26.5 1089.75 28.1875 1089.75 30.25C1089.75 32.3125 1088.06 34 1086 34ZM1086 124C1075.64 124 1067.25 115.609 1067.25 105.25V101.5H1104.75V105.25C1104.75 115.609 1096.36 124 1086 124Z" fill="#E5F8F4"/>
<path d="M1303.5 4C1299.35 4 1296 7.35156 1296 11.5V34H1311V11.5C1311 7.35156 1307.65 4 1303.5 4ZM1348.5 4C1344.35 4 1341 7.35156 1341 11.5V34H1356V11.5C1356 7.35156 1352.65 4 1348.5 4ZM1288.5 41.5C1284.35 41.5 1281 44.8516 1281 49C1281 53.1484 1284.35 56.5 1288.5 56.5V64C1288.5 82.1406 1301.39 97.2812 1318.5 100.75V116.5C1318.5 120.648 1321.85 124 1326 124C1330.15 124 1333.5 120.648 1333.5 116.5V100.75C1350.61 97.2812 1363.5 82.1406 1363.5 64V56.5C1367.65 56.5 1371 53.1484 1371 49C1371 44.8516 1367.65 41.5 1363.5 41.5H1288.5Z" fill="#E5F8F4"/>
<path d="M1569.75 26.5176C1551.33 26.5176 1535.74 38.588 1530.45 55.2286C1538.32 51.2442 1547.2 49.0176 1556.62 49.0176H1577.25C1579.31 49.0176 1581 50.7051 1581 52.7676C1581 54.8301 1579.31 56.5176 1577.25 56.5176H1573.5H1556.62C1552.73 56.5176 1548.96 56.963 1545.3 57.7833C1539.23 59.1661 1533.61 61.627 1528.57 64.9786C1514.98 74.0489 1506 89.5411 1506 107.143V110.893C1506 114.01 1508.51 116.518 1511.62 116.518C1514.74 116.518 1517.25 114.01 1517.25 110.893V107.143C1517.25 95.7286 1522.1 85.463 1529.86 78.2676C1534.5 95.963 1550.6 109.018 1569.75 109.018H1569.98C1600.95 108.854 1626 78.338 1626 40.7208C1626 30.7364 1624.24 21.2442 1621.05 12.6895C1620.45 11.0723 1618.08 11.1426 1617.26 12.6661C1612.85 20.9161 1604.13 26.5176 1594.12 26.5176H1569.75Z" fill="#E5F8F4"/>
<path d="M1830.66 62.3359C1834.03 57.5078 1836 51.625 1836 45.25C1836 28.6797 1822.57 15.25 1806 15.25C1789.43 15.25 1776 28.6797 1776 45.25C1776 51.625 1777.97 57.5078 1781.34 62.3359C1782.21 63.5781 1783.24 64.9844 1784.34 66.4844C1787.37 70.6328 1790.98 75.6016 1793.67 80.5C1796.11 84.9531 1797.35 89.5938 1797.96 93.9766L1786.55 94C1786.03 91.1875 1785.16 88.4453 1783.78 85.9141C1781.46 81.6953 1778.58 77.7344 1775.7 73.7734C1774.48 72.1094 1773.26 70.4453 1772.09 68.7578C1767.47 62.1016 1764.75 53.9922 1764.75 45.25C1764.75 22.4688 1783.22 4 1806 4C1828.78 4 1847.25 22.4688 1847.25 45.25C1847.25 53.9922 1844.53 62.1016 1839.89 68.7578C1838.72 70.4453 1837.5 72.1094 1836.28 73.7734C1833.4 77.7109 1830.52 81.6719 1828.2 85.9141C1826.81 88.4453 1825.95 91.1875 1825.43 94H1814.04C1814.65 89.6172 1815.89 84.9531 1818.33 80.5234C1821.02 75.625 1824.63 70.6562 1827.66 66.5078C1828.76 65.0078 1829.77 63.6016 1830.63 62.3594L1830.66 62.3359ZM1806 34C1799.79 34 1794.75 39.0391 1794.75 45.25C1794.75 47.3125 1793.06 49 1791 49C1788.94 49 1787.25 47.3125 1787.25 45.25C1787.25 34.8906 1795.64 26.5 1806 26.5C1808.06 26.5 1809.75 28.1875 1809.75 30.25C1809.75 32.3125 1808.06 34 1806 34ZM1806 124C1795.64 124 1787.25 115.609 1787.25 105.25V101.5H1824.75V105.25C1824.75 115.609 1816.36 124 1806 124Z" fill="#E5F8F4"/>
<path d="M30.6562 302.336C34.0312 297.508 36 291.625 36 285.25C36 268.68 22.5703 255.25 6 255.25C-10.5703 255.25 -24 268.68 -24 285.25C-24 291.625 -22.0312 297.508 -18.6562 302.336C-17.7891 303.578 -16.7578 304.984 -15.6562 306.484C-12.6328 310.633 -9.02344 315.602 -6.32813 320.5C-3.89063 324.953 -2.64844 329.594 -2.03906 333.977L-13.4531 334C-13.9688 331.188 -14.8359 328.445 -16.2188 325.914C-18.5391 321.695 -21.4219 317.734 -24.3047 313.773C-25.5234 312.109 -26.7422 310.445 -27.9141 308.758C-32.5313 302.102 -35.25 293.992 -35.25 285.25C-35.25 262.469 -16.7812 244 6 244C28.7812 244 47.25 262.469 47.25 285.25C47.25 293.992 44.5312 302.102 39.8906 308.758C38.7188 310.445 37.5 312.109 36.2812 313.773C33.3984 317.711 30.5156 321.672 28.1953 325.914C26.8125 328.445 25.9453 331.188 25.4297 334H14.0391C14.6484 329.617 15.8906 324.953 18.3281 320.523C21.0234 315.625 24.6328 310.656 27.6562 306.508C28.7578 305.008 29.7656 303.602 30.6328 302.359L30.6562 302.336ZM6 274C-0.210938 274 -5.25 279.039 -5.25 285.25C-5.25 287.312 -6.9375 289 -9 289C-11.0625 289 -12.75 287.312 -12.75 285.25C-12.75 274.891 -4.35938 266.5 6 266.5C8.0625 266.5 9.75 268.188 9.75 270.25C9.75 272.312 8.0625 274 6 274ZM6 364C-4.35938 364 -12.75 355.609 -12.75 345.25V341.5H24.75V345.25C24.75 355.609 16.3594 364 6 364Z" fill="#E5F8F4"/>
<path d="M223.5 244C219.352 244 216 247.352 216 251.5V274H231V251.5C231 247.352 227.648 244 223.5 244ZM268.5 244C264.352 244 261 247.352 261 251.5V274H276V251.5C276 247.352 272.648 244 268.5 244ZM208.5 281.5C204.352 281.5 201 284.852 201 289C201 293.148 204.352 296.5 208.5 296.5V304C208.5 322.141 221.391 337.281 238.5 340.75V356.5C238.5 360.648 241.852 364 246 364C250.148 364 253.5 360.648 253.5 356.5V340.75C270.609 337.281 283.5 322.141 283.5 304V296.5C287.648 296.5 291 293.148 291 289C291 284.852 287.648 281.5 283.5 281.5H208.5Z" fill="#E5F8F4"/>
<path d="M489.75 266.518C471.328 266.518 455.742 278.588 450.445 295.229C458.32 291.244 467.203 289.018 476.625 289.018H497.25C499.312 289.018 501 290.705 501 292.768C501 294.83 499.312 296.518 497.25 296.518H493.5H476.625C472.734 296.518 468.961 296.963 465.305 297.783C459.234 299.166 453.609 301.627 448.57 304.979C434.977 314.049 426 329.541 426 347.143V350.893C426 354.01 428.508 356.518 431.625 356.518C434.742 356.518 437.25 354.01 437.25 350.893V347.143C437.25 335.729 442.102 325.463 449.859 318.268C454.5 335.963 470.602 349.018 489.75 349.018H489.984C520.945 348.854 546 318.338 546 280.721C546 270.736 544.242 261.244 541.055 252.69C540.445 251.072 538.078 251.143 537.258 252.666C532.852 260.916 524.133 266.518 514.125 266.518H489.75Z" fill="#E5F8F4"/>
<path d="M750.656 302.336C754.031 297.508 756 291.625 756 285.25C756 268.68 742.57 255.25 726 255.25C709.43 255.25 696 268.68 696 285.25C696 291.625 697.969 297.508 701.344 302.336C702.211 303.578 703.242 304.984 704.344 306.484C707.367 310.633 710.977 315.602 713.672 320.5C716.109 324.953 717.352 329.594 717.961 333.977L706.547 334C706.031 331.188 705.164 328.445 703.781 325.914C701.461 321.695 698.578 317.734 695.695 313.773C694.477 312.109 693.258 310.445 692.086 308.758C687.469 302.102 684.75 293.992 684.75 285.25C684.75 262.469 703.219 244 726 244C748.781 244 767.25 262.469 767.25 285.25C767.25 293.992 764.531 302.102 759.891 308.758C758.719 310.445 757.5 312.109 756.281 313.773C753.398 317.711 750.516 321.672 748.195 325.914C746.813 328.445 745.945 331.188 745.43 334H734.039C734.648 329.617 735.891 324.953 738.328 320.523C741.023 315.625 744.633 310.656 747.656 306.508C748.758 305.008 749.766 303.602 750.633 302.359L750.656 302.336ZM726 274C719.789 274 714.75 279.039 714.75 285.25C714.75 287.312 713.062 289 711 289C708.938 289 707.25 287.312 707.25 285.25C707.25 274.891 715.641 266.5 726 266.5C728.062 266.5 729.75 268.188 729.75 270.25C729.75 272.312 728.062 274 726 274ZM726 364C715.641 364 707.25 355.609 707.25 345.25V341.5H744.75V345.25C744.75 355.609 736.359 364 726 364Z" fill="#E5F8F4"/>
<path d="M943.5 244C939.352 244 936 247.352 936 251.5V274H951V251.5C951 247.352 947.648 244 943.5 244ZM988.5 244C984.352 244 981 247.352 981 251.5V274H996V251.5C996 247.352 992.648 244 988.5 244ZM928.5 281.5C924.352 281.5 921 284.852 921 289C921 293.148 924.352 296.5 928.5 296.5V304C928.5 322.141 941.391 337.281 958.5 340.75V356.5C958.5 360.648 961.852 364 966 364C970.148 364 973.5 360.648 973.5 356.5V340.75C990.609 337.281 1003.5 322.141 1003.5 304V296.5C1007.65 296.5 1011 293.148 1011 289C1011 284.852 1007.65 281.5 1003.5 281.5H928.5Z" fill="#E5F8F4"/>
<path d="M1209.75 266.518C1191.33 266.518 1175.74 278.588 1170.45 295.229C1178.32 291.244 1187.2 289.018 1196.62 289.018H1217.25C1219.31 289.018 1221 290.705 1221 292.768C1221 294.83 1219.31 296.518 1217.25 296.518H1213.5H1196.62C1192.73 296.518 1188.96 296.963 1185.3 297.783C1179.23 299.166 1173.61 301.627 1168.57 304.979C1154.98 314.049 1146 329.541 1146 347.143V350.893C1146 354.01 1148.51 356.518 1151.62 356.518C1154.74 356.518 1157.25 354.01 1157.25 350.893V347.143C1157.25 335.729 1162.1 325.463 1169.86 318.268C1174.5 335.963 1190.6 349.018 1209.75 349.018H1209.98C1240.95 348.854 1266 318.338 1266 280.721C1266 270.736 1264.24 261.244 1261.05 252.69C1260.45 251.072 1258.08 251.143 1257.26 252.666C1252.85 260.916 1244.13 266.518 1234.12 266.518H1209.75Z" fill="#E5F8F4"/>
<path d="M1470.66 302.336C1474.03 297.508 1476 291.625 1476 285.25C1476 268.68 1462.57 255.25 1446 255.25C1429.43 255.25 1416 268.68 1416 285.25C1416 291.625 1417.97 297.508 1421.34 302.336C1422.21 303.578 1423.24 304.984 1424.34 306.484C1427.37 310.633 1430.98 315.602 1433.67 320.5C1436.11 324.953 1437.35 329.594 1437.96 333.977L1426.55 334C1426.03 331.188 1425.16 328.445 1423.78 325.914C1421.46 321.695 1418.58 317.734 1415.7 313.773C1414.48 312.109 1413.26 310.445 1412.09 308.758C1407.47 302.102 1404.75 293.992 1404.75 285.25C1404.75 262.469 1423.22 244 1446 244C1468.78 244 1487.25 262.469 1487.25 285.25C1487.25 293.992 1484.53 302.102 1479.89 308.758C1478.72 310.445 1477.5 312.109 1476.28 313.773C1473.4 317.711 1470.52 321.672 1468.2 325.914C1466.81 328.445 1465.95 331.188 1465.43 334H1454.04C1454.65 329.617 1455.89 324.953 1458.33 320.523C1461.02 315.625 1464.63 310.656 1467.66 306.508C1468.76 305.008 1469.77 303.602 1470.63 302.359L1470.66 302.336ZM1446 274C1439.79 274 1434.75 279.039 1434.75 285.25C1434.75 287.312 1433.06 289 1431 289C1428.94 289 1427.25 287.312 1427.25 285.25C1427.25 274.891 1435.64 266.5 1446 266.5C1448.06 266.5 1449.75 268.188 1449.75 270.25C1449.75 272.312 1448.06 274 1446 274ZM1446 364C1435.64 364 1427.25 355.609 1427.25 345.25V341.5H1464.75V345.25C1464.75 355.609 1456.36 364 1446 364Z" fill="#E5F8F4"/>
<path d="M1663.5 244C1659.35 244 1656 247.352 1656 251.5V274H1671V251.5C1671 247.352 1667.65 244 1663.5 244ZM1708.5 244C1704.35 244 1701 247.352 1701 251.5V274H1716V251.5C1716 247.352 1712.65 244 1708.5 244ZM1648.5 281.5C1644.35 281.5 1641 284.852 1641 289C1641 293.148 1644.35 296.5 1648.5 296.5V304C1648.5 322.141 1661.39 337.281 1678.5 340.75V356.5C1678.5 360.648 1681.85 364 1686 364C1690.15 364 1693.5 360.648 1693.5 356.5V340.75C1710.61 337.281 1723.5 322.141 1723.5 304V296.5C1727.65 296.5 1731 293.148 1731 289C1731 284.852 1727.65 281.5 1723.5 281.5H1648.5Z" fill="#E5F8F4"/>
<path d="M1929.75 266.518C1911.33 266.518 1895.74 278.588 1890.45 295.229C1898.32 291.244 1907.2 289.018 1916.62 289.018H1937.25C1939.31 289.018 1941 290.705 1941 292.768C1941 294.83 1939.31 296.518 1937.25 296.518H1933.5H1916.62C1912.73 296.518 1908.96 296.963 1905.3 297.783C1899.23 299.166 1893.61 301.627 1888.57 304.979C1874.98 314.049 1866 329.541 1866 347.143V350.893C1866 354.01 1868.51 356.518 1871.62 356.518C1874.74 356.518 1877.25 354.01 1877.25 350.893V347.143C1877.25 335.729 1882.1 325.463 1889.86 318.268C1894.5 335.963 1910.6 349.018 1929.75 349.018H1929.98C1960.95 348.854 1986 318.338 1986 280.721C1986 270.736 1984.24 261.244 1981.05 252.69C1980.45 251.072 1978.08 251.143 1977.26 252.666C1972.85 260.916 1964.13 266.518 1954.12 266.518H1929.75Z" fill="#E5F8F4"/>
<path d="M129.75 506.518C111.328 506.518 95.7422 518.588 90.4453 535.229C98.3203 531.244 107.203 529.018 116.625 529.018H137.25C139.312 529.018 141 530.705 141 532.768C141 534.83 139.312 536.518 137.25 536.518H133.5H116.625C112.734 536.518 108.961 536.963 105.305 537.783C99.2344 539.166 93.6094 541.627 88.5703 544.979C74.9766 554.049 66 569.541 66 587.143V590.893C66 594.01 68.5078 596.518 71.625 596.518C74.7422 596.518 77.25 594.01 77.25 590.893V587.143C77.25 575.729 82.1016 565.463 89.8594 558.268C94.5 575.963 110.602 589.018 129.75 589.018H129.984C160.945 588.854 186 558.338 186 520.721C186 510.736 184.242 501.244 181.055 492.69C180.445 491.072 178.078 491.143 177.258 492.666C172.852 500.916 164.133 506.518 154.125 506.518H129.75Z" fill="#E5F8F4"/>
<path d="M390.656 542.336C394.031 537.508 396 531.625 396 525.25C396 508.68 382.57 495.25 366 495.25C349.43 495.25 336 508.68 336 525.25C336 531.625 337.969 537.508 341.344 542.336C342.211 543.578 343.242 544.984 344.344 546.484C347.367 550.633 350.977 555.602 353.672 560.5C356.109 564.953 357.352 569.594 357.961 573.977L346.547 574C346.031 571.188 345.164 568.445 343.781 565.914C341.461 561.695 338.578 557.734 335.695 553.773C334.477 552.109 333.258 550.445 332.086 548.758C327.469 542.102 324.75 533.992 324.75 525.25C324.75 502.469 343.219 484 366 484C388.781 484 407.25 502.469 407.25 525.25C407.25 533.992 404.531 542.102 399.891 548.758C398.719 550.445 397.5 552.109 396.281 553.773C393.398 557.711 390.516 561.672 388.195 565.914C386.813 568.445 385.945 571.188 385.43 574H374.039C374.648 569.617 375.891 564.953 378.328 560.523C381.023 555.625 384.633 550.656 387.656 546.508C388.758 545.008 389.766 543.602 390.633 542.359L390.656 542.336ZM366 514C359.789 514 354.75 519.039 354.75 525.25C354.75 527.312 353.062 529 351 529C348.938 529 347.25 527.312 347.25 525.25C347.25 514.891 355.641 506.5 366 506.5C368.062 506.5 369.75 508.188 369.75 510.25C369.75 512.312 368.062 514 366 514ZM366 604C355.641 604 347.25 595.609 347.25 585.25V581.5H384.75V585.25C384.75 595.609 376.359 604 366 604Z" fill="#E5F8F4"/>
<path d="M583.5 484C579.352 484 576 487.352 576 491.5V514H591V491.5C591 487.352 587.648 484 583.5 484ZM628.5 484C624.352 484 621 487.352 621 491.5V514H636V491.5C636 487.352 632.648 484 628.5 484ZM568.5 521.5C564.352 521.5 561 524.852 561 529C561 533.148 564.352 536.5 568.5 536.5V544C568.5 562.141 581.391 577.281 598.5 580.75V596.5C598.5 600.648 601.852 604 606 604C610.148 604 613.5 600.648 613.5 596.5V580.75C630.609 577.281 643.5 562.141 643.5 544V536.5C647.648 536.5 651 533.148 651 529C651 524.852 647.648 521.5 643.5 521.5H568.5Z" fill="#E5F8F4"/>
<path d="M849.75 506.518C831.328 506.518 815.742 518.588 810.445 535.229C818.32 531.244 827.203 529.018 836.625 529.018H857.25C859.312 529.018 861 530.705 861 532.768C861 534.83 859.312 536.518 857.25 536.518H853.5H836.625C832.734 536.518 828.961 536.963 825.305 537.783C819.234 539.166 813.609 541.627 808.57 544.979C794.977 554.049 786 569.541 786 587.143V590.893C786 594.01 788.508 596.518 791.625 596.518C794.742 596.518 797.25 594.01 797.25 590.893V587.143C797.25 575.729 802.102 565.463 809.859 558.268C814.5 575.963 830.602 589.018 849.75 589.018H849.984C880.945 588.854 906 558.338 906 520.721C906 510.736 904.242 501.244 901.055 492.69C900.445 491.072 898.078 491.143 897.258 492.666C892.852 500.916 884.133 506.518 874.125 506.518H849.75Z" fill="#E5F8F4"/>
<path d="M1110.66 542.336C1114.03 537.508 1116 531.625 1116 525.25C1116 508.68 1102.57 495.25 1086 495.25C1069.43 495.25 1056 508.68 1056 525.25C1056 531.625 1057.97 537.508 1061.34 542.336C1062.21 543.578 1063.24 544.984 1064.34 546.484C1067.37 550.633 1070.98 555.602 1073.67 560.5C1076.11 564.953 1077.35 569.594 1077.96 573.977L1066.55 574C1066.03 571.188 1065.16 568.445 1063.78 565.914C1061.46 561.695 1058.58 557.734 1055.7 553.773C1054.48 552.109 1053.26 550.445 1052.09 548.758C1047.47 542.102 1044.75 533.992 1044.75 525.25C1044.75 502.469 1063.22 484 1086 484C1108.78 484 1127.25 502.469 1127.25 525.25C1127.25 533.992 1124.53 542.102 1119.89 548.758C1118.72 550.445 1117.5 552.109 1116.28 553.773C1113.4 557.711 1110.52 561.672 1108.2 565.914C1106.81 568.445 1105.95 571.188 1105.43 574H1094.04C1094.65 569.617 1095.89 564.953 1098.33 560.523C1101.02 555.625 1104.63 550.656 1107.66 546.508C1108.76 545.008 1109.77 543.602 1110.63 542.359L1110.66 542.336ZM1086 514C1079.79 514 1074.75 519.039 1074.75 525.25C1074.75 527.312 1073.06 529 1071 529C1068.94 529 1067.25 527.312 1067.25 525.25C1067.25 514.891 1075.64 506.5 1086 506.5C1088.06 506.5 1089.75 508.188 1089.75 510.25C1089.75 512.312 1088.06 514 1086 514ZM1086 604C1075.64 604 1067.25 595.609 1067.25 585.25V581.5H1104.75V585.25C1104.75 595.609 1096.36 604 1086 604Z" fill="#E5F8F4"/>
<path d="M1303.5 484C1299.35 484 1296 487.352 1296 491.5V514H1311V491.5C1311 487.352 1307.65 484 1303.5 484ZM1348.5 484C1344.35 484 1341 487.352 1341 491.5V514H1356V491.5C1356 487.352 1352.65 484 1348.5 484ZM1288.5 521.5C1284.35 521.5 1281 524.852 1281 529C1281 533.148 1284.35 536.5 1288.5 536.5V544C1288.5 562.141 1301.39 577.281 1318.5 580.75V596.5C1318.5 600.648 1321.85 604 1326 604C1330.15 604 1333.5 600.648 1333.5 596.5V580.75C1350.61 577.281 1363.5 562.141 1363.5 544V536.5C1367.65 536.5 1371 533.148 1371 529C1371 524.852 1367.65 521.5 1363.5 521.5H1288.5Z" fill="#E5F8F4"/>
<path d="M1569.75 506.518C1551.33 506.518 1535.74 518.588 1530.45 535.229C1538.32 531.244 1547.2 529.018 1556.62 529.018H1577.25C1579.31 529.018 1581 530.705 1581 532.768C1581 534.83 1579.31 536.518 1577.25 536.518H1573.5H1556.62C1552.73 536.518 1548.96 536.963 1545.3 537.783C1539.23 539.166 1533.61 541.627 1528.57 544.979C1514.98 554.049 1506 569.541 1506 587.143V590.893C1506 594.01 1508.51 596.518 1511.62 596.518C1514.74 596.518 1517.25 594.01 1517.25 590.893V587.143C1517.25 575.729 1522.1 565.463 1529.86 558.268C1534.5 575.963 1550.6 589.018 1569.75 589.018H1569.98C1600.95 588.854 1626 558.338 1626 520.721C1626 510.736 1624.24 501.244 1621.05 492.69C1620.45 491.072 1618.08 491.143 1617.26 492.666C1612.85 500.916 1604.13 506.518 1594.12 506.518H1569.75Z" fill="#E5F8F4"/>
<path d="M1830.66 542.336C1834.03 537.508 1836 531.625 1836 525.25C1836 508.68 1822.57 495.25 1806 495.25C1789.43 495.25 1776 508.68 1776 525.25C1776 531.625 1777.97 537.508 1781.34 542.336C1782.21 543.578 1783.24 544.984 1784.34 546.484C1787.37 550.633 1790.98 555.602 1793.67 560.5C1796.11 564.953 1797.35 569.594 1797.96 573.977L1786.55 574C1786.03 571.188 1785.16 568.445 1783.78 565.914C1781.46 561.695 1778.58 557.734 1775.7 553.773C1774.48 552.109 1773.26 550.445 1772.09 548.758C1767.47 542.102 1764.75 533.992 1764.75 525.25C1764.75 502.469 1783.22 484 1806 484C1828.78 484 1847.25 502.469 1847.25 525.25C1847.25 533.992 1844.53 542.102 1839.89 548.758C1838.72 550.445 1837.5 552.109 1836.28 553.773C1833.4 557.711 1830.52 561.672 1828.2 565.914C1826.81 568.445 1825.95 571.188 1825.43 574H1814.04C1814.65 569.617 1815.89 564.953 1818.33 560.523C1821.02 555.625 1824.63 550.656 1827.66 546.508C1828.76 545.008 1829.77 543.602 1830.63 542.359L1830.66 542.336ZM1806 514C1799.79 514 1794.75 519.039 1794.75 525.25C1794.75 527.312 1793.06 529 1791 529C1788.94 529 1787.25 527.312 1787.25 525.25C1787.25 514.891 1795.64 506.5 1806 506.5C1808.06 506.5 1809.75 508.188 1809.75 510.25C1809.75 512.312 1808.06 514 1806 514ZM1806 604C1795.64 604 1787.25 595.609 1787.25 585.25V581.5H1824.75V585.25C1824.75 595.609 1816.36 604 1806 604Z" fill="#E5F8F4"/>
<path d="M223.5 724C219.352 724 216 727.352 216 731.5V754H231V731.5C231 727.352 227.648 724 223.5 724ZM268.5 724C264.352 724 261 727.352 261 731.5V754H276V731.5C276 727.352 272.648 724 268.5 724ZM208.5 761.5C204.352 761.5 201 764.852 201 769C201 773.148 204.352 776.5 208.5 776.5V784C208.5 802.141 221.391 817.281 238.5 820.75V836.5C238.5 840.648 241.852 844 246 844C250.148 844 253.5 840.648 253.5 836.5V820.75C270.609 817.281 283.5 802.141 283.5 784V776.5C287.648 776.5 291 773.148 291 769C291 764.852 287.648 761.5 283.5 761.5H208.5Z" fill="#E5F8F4"/>
<path d="M489.75 746.518C471.328 746.518 455.742 758.588 450.445 775.229C458.32 771.244 467.203 769.018 476.625 769.018H497.25C499.312 769.018 501 770.705 501 772.768C501 774.83 499.312 776.518 497.25 776.518H493.5H476.625C472.734 776.518 468.961 776.963 465.305 777.783C459.234 779.166 453.609 781.627 448.57 784.979C434.977 794.049 426 809.541 426 827.143V830.893C426 834.01 428.508 836.518 431.625 836.518C434.742 836.518 437.25 834.01 437.25 830.893V827.143C437.25 815.729 442.102 805.463 449.859 798.268C454.5 815.963 470.602 829.018 489.75 829.018H489.984C520.945 828.854 546 798.338 546 760.721C546 750.736 544.242 741.244 541.055 732.69C540.445 731.072 538.078 731.143 537.258 732.666C532.852 740.916 524.133 746.518 514.125 746.518H489.75Z" fill="#E5F8F4"/>
<path d="M750.656 782.336C754.031 777.508 756 771.625 756 765.25C756 748.68 742.57 735.25 726 735.25C709.43 735.25 696 748.68 696 765.25C696 771.625 697.969 777.508 701.344 782.336C702.211 783.578 703.242 784.984 704.344 786.484C707.367 790.633 710.977 795.602 713.672 800.5C716.109 804.953 717.352 809.594 717.961 813.977L706.547 814C706.031 811.188 705.164 808.445 703.781 805.914C701.461 801.695 698.578 797.734 695.695 793.773C694.477 792.109 693.258 790.445 692.086 788.758C687.469 782.102 684.75 773.992 684.75 765.25C684.75 742.469 703.219 724 726 724C748.781 724 767.25 742.469 767.25 765.25C767.25 773.992 764.531 782.102 759.891 788.758C758.719 790.445 757.5 792.109 756.281 793.773C753.398 797.711 750.516 801.672 748.195 805.914C746.813 808.445 745.945 811.188 745.43 814H734.039C734.648 809.617 735.891 804.953 738.328 800.523C741.023 795.625 744.633 790.656 747.656 786.508C748.758 785.008 749.766 783.602 750.633 782.359L750.656 782.336ZM726 754C719.789 754 714.75 759.039 714.75 765.25C714.75 767.312 713.062 769 711 769C708.938 769 707.25 767.312 707.25 765.25C707.25 754.891 715.641 746.5 726 746.5C728.062 746.5 729.75 748.188 729.75 750.25C729.75 752.312 728.062 754 726 754ZM726 844C715.641 844 707.25 835.609 707.25 825.25V821.5H744.75V825.25C744.75 835.609 736.359 844 726 844Z" fill="#E5F8F4"/>
<path d="M943.5 724C939.352 724 936 727.352 936 731.5V754H951V731.5C951 727.352 947.648 724 943.5 724ZM988.5 724C984.352 724 981 727.352 981 731.5V754H996V731.5C996 727.352 992.648 724 988.5 724ZM928.5 761.5C924.352 761.5 921 764.852 921 769C921 773.148 924.352 776.5 928.5 776.5V784C928.5 802.141 941.391 817.281 958.5 820.75V836.5C958.5 840.648 961.852 844 966 844C970.148 844 973.5 840.648 973.5 836.5V820.75C990.609 817.281 1003.5 802.141 1003.5 784V776.5C1007.65 776.5 1011 773.148 1011 769C1011 764.852 1007.65 761.5 1003.5 761.5H928.5Z" fill="#E5F8F4"/>
<path d="M1209.75 746.518C1191.33 746.518 1175.74 758.588 1170.45 775.229C1178.32 771.244 1187.2 769.018 1196.62 769.018H1217.25C1219.31 769.018 1221 770.705 1221 772.768C1221 774.83 1219.31 776.518 1217.25 776.518H1213.5H1196.62C1192.73 776.518 1188.96 776.963 1185.3 777.783C1179.23 779.166 1173.61 781.627 1168.57 784.979C1154.98 794.049 1146 809.541 1146 827.143V830.893C1146 834.01 1148.51 836.518 1151.62 836.518C1154.74 836.518 1157.25 834.01 1157.25 830.893V827.143C1157.25 815.729 1162.1 805.463 1169.86 798.268C1174.5 815.963 1190.6 829.018 1209.75 829.018H1209.98C1240.95 828.854 1266 798.338 1266 760.721C1266 750.736 1264.24 741.244 1261.05 732.69C1260.45 731.072 1258.08 731.143 1257.26 732.666C1252.85 740.916 1244.13 746.518 1234.12 746.518H1209.75Z" fill="#E5F8F4"/>
<path d="M1470.66 782.336C1474.03 777.508 1476 771.625 1476 765.25C1476 748.68 1462.57 735.25 1446 735.25C1429.43 735.25 1416 748.68 1416 765.25C1416 771.625 1417.97 777.508 1421.34 782.336C1422.21 783.578 1423.24 784.984 1424.34 786.484C1427.37 790.633 1430.98 795.602 1433.67 800.5C1436.11 804.953 1437.35 809.594 1437.96 813.977L1426.55 814C1426.03 811.188 1425.16 808.445 1423.78 805.914C1421.46 801.695 1418.58 797.734 1415.7 793.773C1414.48 792.109 1413.26 790.445 1412.09 788.758C1407.47 782.102 1404.75 773.992 1404.75 765.25C1404.75 742.469 1423.22 724 1446 724C1468.78 724 1487.25 742.469 1487.25 765.25C1487.25 773.992 1484.53 782.102 1479.89 788.758C1478.72 790.445 1477.5 792.109 1476.28 793.773C1473.4 797.711 1470.52 801.672 1468.2 805.914C1466.81 808.445 1465.95 811.188 1465.43 814H1454.04C1454.65 809.617 1455.89 804.953 1458.33 800.523C1461.02 795.625 1464.63 790.656 1467.66 786.508C1468.76 785.008 1469.77 783.602 1470.63 782.359L1470.66 782.336ZM1446 754C1439.79 754 1434.75 759.039 1434.75 765.25C1434.75 767.312 1433.06 769 1431 769C1428.94 769 1427.25 767.312 1427.25 765.25C1427.25 754.891 1435.64 746.5 1446 746.5C1448.06 746.5 1449.75 748.188 1449.75 750.25C1449.75 752.312 1448.06 754 1446 754ZM1446 844C1435.64 844 1427.25 835.609 1427.25 825.25V821.5H1464.75V825.25C1464.75 835.609 1456.36 844 1446 844Z" fill="#E5F8F4"/>
<path d="M1663.5 724C1659.35 724 1656 727.352 1656 731.5V754H1671V731.5C1671 727.352 1667.65 724 1663.5 724ZM1708.5 724C1704.35 724 1701 727.352 1701 731.5V754H1716V731.5C1716 727.352 1712.65 724 1708.5 724ZM1648.5 761.5C1644.35 761.5 1641 764.852 1641 769C1641 773.148 1644.35 776.5 1648.5 776.5V784C1648.5 802.141 1661.39 817.281 1678.5 820.75V836.5C1678.5 840.648 1681.85 844 1686 844C1690.15 844 1693.5 840.648 1693.5 836.5V820.75C1710.61 817.281 1723.5 802.141 1723.5 784V776.5C1727.65 776.5 1731 773.148 1731 769C1731 764.852 1727.65 761.5 1723.5 761.5H1648.5Z" fill="#E5F8F4"/>
<path d="M1929.75 746.518C1911.33 746.518 1895.74 758.588 1890.45 775.229C1898.32 771.244 1907.2 769.018 1916.62 769.018H1937.25C1939.31 769.018 1941 770.705 1941 772.768C1941 774.83 1939.31 776.518 1937.25 776.518H1933.5H1916.62C1912.73 776.518 1908.96 776.963 1905.3 777.783C1899.23 779.166 1893.61 781.627 1888.57 784.979C1874.98 794.049 1866 809.541 1866 827.143V830.893C1866 834.01 1868.51 836.518 1871.62 836.518C1874.74 836.518 1877.25 834.01 1877.25 830.893V827.143C1877.25 815.729 1882.1 805.463 1889.86 798.268C1894.5 815.963 1910.6 829.018 1929.75 829.018H1929.98C1960.95 828.854 1986 798.338 1986 760.721C1986 750.736 1984.24 741.244 1981.05 732.69C1980.45 731.072 1978.08 731.143 1977.26 732.666C1972.85 740.916 1964.13 746.518 1954.12 746.518H1929.75Z" fill="#E5F8F4"/>
<path d="M28.6562 782.336C32.0312 777.508 34 771.625 34 765.25C34 748.68 20.5703 735.25 4 735.25C-12.5703 735.25 -26 748.68 -26 765.25C-26 771.625 -24.0312 777.508 -20.6562 782.336C-19.7891 783.578 -18.7578 784.984 -17.6562 786.484C-14.6328 790.633 -11.0234 795.602 -8.32813 800.5C-5.89063 804.953 -4.64844 809.594 -4.03906 813.977L-15.4531 814C-15.9688 811.188 -16.8359 808.445 -18.2188 805.914C-20.5391 801.695 -23.4219 797.734 -26.3047 793.773C-27.5234 792.109 -28.7422 790.445 -29.9141 788.758C-34.5313 782.102 -37.25 773.992 -37.25 765.25C-37.25 742.469 -18.7812 724 4 724C26.7812 724 45.25 742.469 45.25 765.25C45.25 773.992 42.5312 782.102 37.8906 788.758C36.7188 790.445 35.5 792.109 34.2812 793.773C31.3984 797.711 28.5156 801.672 26.1953 805.914C24.8125 808.445 23.9453 811.188 23.4297 814H12.0391C12.6484 809.617 13.8906 804.953 16.3281 800.523C19.0234 795.625 22.6328 790.656 25.6562 786.508C26.7578 785.008 27.7656 783.602 28.6328 782.359L28.6562 782.336ZM4 754C-2.21094 754 -7.25 759.039 -7.25 765.25C-7.25 767.312 -8.9375 769 -11 769C-13.0625 769 -14.75 767.312 -14.75 765.25C-14.75 754.891 -6.35938 746.5 4 746.5C6.0625 746.5 7.75 748.188 7.75 750.25C7.75 752.312 6.0625 754 4 754ZM4 844C-6.35938 844 -14.75 835.609 -14.75 825.25V821.5H22.75V825.25C22.75 835.609 14.3594 844 4 844Z" fill="#E5F8F4"/>
</g>
</svg>
