<svg width="230" height="188" viewBox="0 0 230 188" fill="none" xmlns="http://www.w3.org/2000/svg">
<path fill-rule="evenodd" clip-rule="evenodd" d="M167.636 71.0085C167.636 110.06 130.233 141.718 84.0704 141.718C68.7232 141.718 54.3804 138.223 42.0062 132.116C39.0332 133.723 35.578 135.29 31.8818 136.696C24.5296 139.468 15.6909 141.718 6.93255 141.718C4.16041 141.718 1.70968 139.87 0.825805 137.259C-0.0580667 134.647 0.906157 131.755 3.11584 130.107L3.19619 130.027C3.27654 129.987 3.43724 129.866 3.63812 129.706C4.03988 129.384 4.64252 128.862 5.36569 128.219C6.81203 126.893 8.78065 124.965 10.7091 122.474C12.9188 119.662 15.0079 116.327 16.4141 112.55C6.41027 100.859 0.504397 86.5165 0.504397 71.0085C0.504397 31.9575 37.9082 0.298828 84.0704 0.298828C130.233 0.298828 167.636 31.9575 167.636 71.0085ZM93.5118 154.173C140.678 150.115 180.493 116.126 180.493 71.0085L180.453 70.9684C180.453 68.8792 180.372 66.7901 180.212 64.7411C223.481 67.3927 257.59 97.9666 257.59 135.25C257.59 150.798 251.685 165.141 241.681 176.792C243.087 180.528 245.176 183.903 247.386 186.715C249.314 189.206 251.283 191.135 252.729 192.461C253.452 193.143 254.055 193.625 254.456 193.947L254.457 193.947C254.557 194.027 254.648 194.088 254.723 194.138C254.798 194.188 254.859 194.228 254.899 194.268L254.979 194.349C257.229 195.996 258.153 198.889 257.309 201.54C256.466 204.192 253.975 206 251.202 206C242.444 206 233.605 203.75 226.253 200.978C222.557 199.572 219.142 198.005 216.129 196.398C203.755 202.505 189.412 206 174.065 206C135.656 206 103.275 184.064 93.5118 154.173ZM82.3139 98.4676C65.403 98.4676 51.7059 84.5214 51.7059 67.303C51.7059 50.0846 65.403 36.1384 82.3139 36.1384C99.2248 36.1384 112.922 50.0846 112.922 67.303C112.922 74.3735 110.607 80.8985 106.705 86.1186L93.1415 69.543C90.9798 66.894 87.1155 66.5434 84.5139 68.7444C81.9122 70.9454 81.5678 74.8799 83.7295 77.5289L97.5031 94.3577C93.0267 96.9678 87.8425 98.4676 82.3139 98.4676ZM105.43 104.046C98.7558 108.404 90.8215 110.933 82.3139 110.933C58.6501 110.933 39.4627 91.3971 39.4627 67.303C39.4627 43.2089 58.6501 23.6726 82.3139 23.6726C105.978 23.6726 125.165 43.2089 125.165 67.303C125.165 78.2301 121.224 88.2222 114.701 95.877L123.749 106.94C125.911 109.589 125.567 113.524 122.965 115.725C120.363 117.926 116.499 117.575 114.338 114.926L105.43 104.046Z" fill="#D6D7DB"/>
</svg>
