<svg width="40" height="40" viewBox="0 0 40 40" fill="none" xmlns="http://www.w3.org/2000/svg">
<path d="M35.9113 14.0654C36.1235 14.6433 35.9445 15.2876 35.4869 15.6994L32.6156 18.3163C32.6886 18.8676 32.7284 19.4321 32.7284 20.0033C32.7284 20.5745 32.6886 21.1391 32.6156 21.6904L35.4869 24.3073C35.9445 24.7191 36.1235 25.3634 35.9113 25.9412C35.6195 26.7316 35.2681 27.4888 34.8636 28.2194L34.5519 28.7574C34.1143 29.488 33.6236 30.1787 33.0865 30.8297C32.6952 31.3079 32.0454 31.4673 31.4618 31.2813L27.7683 30.1057C26.8798 30.7898 25.8984 31.361 24.8506 31.7927L24.0218 35.5853C23.8891 36.1897 23.425 36.6679 22.8149 36.7675C21.8998 36.9203 20.9582 37 19.9967 37C19.0352 37 18.0936 36.9203 17.1785 36.7675C16.5684 36.6679 16.1042 36.1897 15.9716 35.5853L15.1427 31.7927C14.095 31.361 13.1136 30.7898 12.2251 30.1057L8.53817 31.2879C7.95463 31.4739 7.30478 31.3079 6.91355 30.8363C6.37643 30.1854 5.88573 29.4946 5.44808 28.764L5.13642 28.226C4.73192 27.4954 4.38048 26.7382 4.08871 25.9478C3.87651 25.37 4.05555 24.7257 4.5131 24.3139L7.38436 21.697C7.31142 21.1391 7.27163 20.5745 7.27163 20.0033C7.27163 19.4321 7.31142 18.8676 7.38436 18.3163L4.5131 15.6994C4.05555 15.2876 3.87651 14.6433 4.08871 14.0654C4.38048 13.2751 4.73192 12.5179 5.13642 11.7873L5.44808 11.2493C5.88573 10.5187 6.37643 9.8279 6.91355 9.17699C7.30478 8.69877 7.95463 8.53936 8.53817 8.72534L12.2317 9.90096C13.1202 9.21684 14.1016 8.64563 15.1494 8.21391L15.9782 4.42137C16.1109 3.81696 16.575 3.33874 17.1851 3.23911C18.1002 3.0797 19.0418 3 20.0033 3C20.9648 3 21.9064 3.0797 22.8215 3.23247C23.4316 3.3321 23.8958 3.81031 24.0284 4.41473L24.8573 8.20727C25.905 8.63899 26.8864 9.2102 27.775 9.89432L31.4685 8.71869C32.052 8.53272 32.7018 8.69877 33.0931 9.17035C33.6302 9.82125 34.1209 10.512 34.5586 11.2426L34.8702 11.7806C35.2747 12.5112 35.6262 13.2684 35.9179 14.0588L35.9113 14.0654ZM20.0033 25.3169C21.4103 25.3169 22.7596 24.757 23.7544 23.7606C24.7493 22.7641 25.3082 21.4126 25.3082 20.0033C25.3082 18.5941 24.7493 17.2426 23.7544 16.2461C22.7596 15.2496 21.4103 14.6898 20.0033 14.6898C18.5964 14.6898 17.2471 15.2496 16.2522 16.2461C15.2574 17.2426 14.6984 18.5941 14.6984 20.0033C14.6984 21.4126 15.2574 22.7641 16.2522 23.7606C17.2471 24.757 18.5964 25.3169 20.0033 25.3169Z" fill="white"/>
</svg>
