<svg width="118" height="118" viewBox="0 0 118 118" fill="none" xmlns="http://www.w3.org/2000/svg">
<path d="M3 59C3 28.0721 28.0721 3 59 3C89.9279 3 115 28.0721 115 59C115 89.9279 89.9279 115 59 115C28.0721 115 3 89.9279 3 59Z" fill="#2FABC0" stroke="#178193" stroke-width="6"/>
<path d="M53.75 35.8C53.75 34.2617 54.3558 32.7865 55.4341 31.6988C56.5125 30.6111 57.975 30 59.5 30C61.025 30 62.4875 30.6111 63.5659 31.6988C64.6442 32.7865 65.25 34.2617 65.25 35.8C65.25 37.3383 64.6442 38.8135 63.5659 39.9012C62.4875 40.9889 61.025 41.6 59.5 41.6C57.975 41.6 56.5125 40.9889 55.4341 39.9012C54.3558 38.8135 53.75 37.3383 53.75 35.8ZM48 53.2C48 51.0612 49.713 49.3333 51.8333 49.3333H59.5C61.6203 49.3333 63.3333 51.0612 63.3333 53.2V80.2667H67.1667C69.287 80.2667 71 81.9946 71 84.1333C71 86.2721 69.287 88 67.1667 88H51.8333C49.713 88 48 86.2721 48 84.1333C48 81.9946 49.713 80.2667 51.8333 80.2667H55.6667V57.0667H51.8333C49.713 57.0667 48 55.3387 48 53.2Z" fill="white"/>
</svg>
