<?xml version="1.0" encoding="UTF-8"?>
<svg xmlns="http://www.w3.org/2000/svg" version="1.1" viewBox="0 0 500 90">
  <defs>
    <style>
      .cls-1 {
        stroke-width: 6px;
      }

      .cls-1, .cls-2, .cls-3 {
        fill: none;
      }

      .cls-1, .cls-3 {
        stroke: #000;
        stroke-opacity: .2;
      }

      .cls-4 {
        fill: #fff;
      }

      .cls-5, .cls-6 {
        isolation: isolate;
      }

      .cls-6 {
        fill: #a09f9f;
        font-family: MeiryoUI-Bold, 'Meiryo UI';
        font-size: 59px;
        font-weight: 700;
      }

      .cls-7 {
        fill-opacity: .2;
      }
    </style>
  </defs>
  <!-- Generator: Adobe Illustrator 28.7.1, SVG Export Plug-In . SVG Version: 1.2.0 Build 142)  -->
  <g>
    <g id="_レイヤー_1" data-name="レイヤー_1">
      <g id="_レイヤー_1-2" data-name="_レイヤー_1">
        <g>
          <rect class="cls-2" x="-5.4" y="-37.3" width="525" height="158.9"/>
          <rect class="cls-3" x="-4.9" y="-36.8" width="524" height="157.9"/>
          <path class="cls-4" d="M162,60.7c-2.3-3.8-3.6-7.7-3.6-12.6s1.3-8.8,3.6-12.6l2.7,1.1c-2,3.6-2.9,7.6-2.9,11.4s.9,7.9,2.9,11.4l-2.7,1.1v.2ZM167.2,46.1c4.4-1.1,7.8-2.6,10.5-4.2,2.4-1.5,5.4-4.1,6.9-5.9l3.1,3c-1.8,1.8-4.1,3.6-6.4,5.1v9.5c0,1.2,0,2.8.2,3.5h-4.6c0-.6.2-2.3.2-3.5v-7c-2.4,1.2-5.3,2.4-8.1,3.2l-1.8-3.7h0ZM207.3,38.9c.7,1.1,1.7,2.8,2.3,3.9l-2.6,1.1c-.8-1.7-1.2-2.6-2.2-3.9l2.5-1h0ZM210.5,37.6c.7,1,1.8,2.7,2.3,3.7l-2.5,1.2c-.8-1.7-1.4-2.5-2.3-3.8,0,0,2.5-1.1,2.5-1.1ZM190.6,48.6c.8-.6,1.3-1.2,2.1-2,1.1-1.1,2.8-3.2,4.5-5.3,1.5-1.8,3.1-2.1,5.1-.2,1.7,1.6,3.4,3.4,4.9,5,1.6,1.7,4.1,4.4,6,6.4l-3.2,3.5c-1.6-1.9-3.5-4.4-4.9-6-1.4-1.7-3.5-4-4.3-4.8-.7-.7-1.2-.7-1.8,0-.8,1.1-2.4,3.3-3.3,4.6-.6.8-1.2,1.8-1.6,2.4l-3.5-3.6h0ZM220,37.1c1.7,1.1,4.8,3.6,6.2,5.2l-3,3c-1.3-1.4-4.3-4-6-5.3l2.8-3h0ZM216.4,53.1c3.5-.5,6.6-1.6,9-2.9,4.3-2.5,7.6-6.2,9.2-9.6l2.3,4.1c-1.9,3.4-5.3,6.7-9.3,9.1-2.4,1.4-5.6,2.7-8.6,3.2l-2.5-3.8h0ZM245.2,53.4v-13.7c0-1,0-2.2-.3-3.1h4.5c0,.9-.2,2-.2,3.1v3.3c3.2.9,7.9,2.6,9.9,3.6l-1.7,4.1c-2.4-1.2-5.7-2.5-8.3-3.4v6.2c0,.6.1,2.5.3,3.6h-4.6c.2-1,.3-2.6.3-3.6h.1ZM280.9,36.4c.6.9,1.4,2.4,1.9,3.3l-2.3,1c-.5-1-1.2-2.4-1.8-3.3l2.3-.9h-.1ZM283.9,35.2c.6.9,1.5,2.4,1.9,3.3l-2.3,1c-.5-1-1.2-2.4-1.9-3.3l2.3-.9h0ZM266.3,48.2c1.1-2.8,1.9-6,2.2-9.2l4.2.9c-.2.8-.6,2.2-.6,2.8-.3,1.8-1.2,4.9-2,7.1-.8,2.4-2.3,5.3-3.5,7l-4.1-1.7c1.5-1.9,2.9-4.6,3.8-6.7v-.2ZM278.1,47.9c-.9-2.5-2.5-6.2-3.5-8.1l3.9-1.2c1,1.9,2.7,5.8,3.6,8,.8,2.1,2.1,6,2.7,8.5l-4.3,1.4c-.7-3.1-1.4-6-2.4-8.6h0ZM296.6,39.6c0-.8,0-2.1-.4-3h4.6c-.2.9-.2,2.3-.2,3.1v2.3h4.8c1.3,0,2.4,0,2.9-.2v4c-.6,0-1.9,0-3,0h-4.8c-.2,4.6-1.6,8.6-6.9,11.8l-3.6-2.7c4.8-2.1,6.2-5.4,6.5-9.1h-5.6c-1.1,0-2.1,0-3,0v-4c.9,0,1.9.2,2.9.2h5.8v-2.3h0ZM312.1,44.2c1,0,3,.2,4.2.2h12.7c1.1,0,2.3,0,3-.2v4.6c-.6,0-2,0-3,0h-12.7c-1.4,0-3.2,0-4.2,0v-4.6ZM338,60.7l-2.7-1.1c2-3.6,2.9-7.6,2.9-11.4s-.9-7.9-2.9-11.4l2.7-1.1c2.3,3.8,3.6,7.7,3.6,12.6s-1.3,8.8-3.6,12.6v-.2Z"/>
          <path class="cls-7" d="M162,60.7l-.9.5.4.7.8-.3-.4-.9h0ZM162,35.6l.4-.9-.8-.3-.4.7.9.5h0ZM164.6,36.7l.9.5.6-1-1-.4-.4.9h-.1ZM164.6,59.6l.4.9,1-.4-.6-1-.9.5h.1ZM162.8,60.2c-2.2-3.6-3.5-7.4-3.5-12h-2c0,5.1,1.4,9.2,3.8,13.1l1.7-1h0ZM159.3,48.1c0-4.6,1.3-8.4,3.5-12l-1.7-1c-2.4,3.9-3.8,8-3.8,13.1h2ZM161.6,36.5l2.7,1.1.8-1.8-2.7-1.1-.8,1.8ZM163.8,36.2c-2.1,3.7-3,8-3,11.9h2c0-3.7.8-7.6,2.7-11l-1.7-1h0ZM160.8,48.1c0,4,.9,8.2,3,11.9l1.7-1c-1.9-3.4-2.7-7.2-2.7-11h-2ZM164.2,58.7l-2.7,1.1.8,1.8,2.7-1.1-.8-1.8ZM167.2,46.1l-.2-1-1.2.3.5,1.1s.9-.4.9-.4ZM177.7,41.8l.5.9h0l-.5-.9ZM184.5,35.9l.7-.7-.8-.7-.7.8s.8.6.8.6ZM187.7,38.9l.7.7.7-.7-.8-.7-.7.7h.1ZM181.3,44.1l-.6-.8-.4.3v.5h1ZM181.5,57v1h1.3l-.4-1.3-1,.3h0ZM176.9,57h-1c0,0-.2,1-.2,1h1.2v-1ZM177.1,46.5h1v-1.6l-1.5.7s.5.9.5.9ZM169,49.7l-.9.4.4.8.8-.2-.3-1ZM167.4,47c4.5-1.1,8-2.7,10.8-4.3l-1-1.7c-2.6,1.6-5.9,3-10.2,4.1l.5,1.9h-.1ZM178.2,42.7c2.5-1.5,5.5-4.2,7.1-6.1l-1.5-1.3c-1.4,1.7-4.3,4.3-6.6,5.7,0,0,1,1.7,1,1.7ZM183.8,36.7l3.1,3,1.4-1.4-3.1-3-1.4,1.4ZM187,38.2c-1.8,1.7-4,3.5-6.3,5l1.1,1.7c2.3-1.5,4.7-3.5,6.6-5.3l-1.4-1.4h0ZM180.3,44.1v9.5h2v-9.5h-2ZM180.3,53.5v2c0,.6,0,1.3.2,1.8l1.9-.5c0-.2-.1-.7-.2-1.3v-1.9h-2,.1ZM181.5,56h-4.6v2h4.6v-2ZM177.9,57.2c.1-.7.2-2.5.2-3.6h-2c0,1.1,0,2.8-.2,3.3l2,.3ZM178.1,53.5v-7h-2v7h2ZM176.6,45.6c-2.4,1.2-5.2,2.4-7.9,3.2l.5,1.9c2.9-.8,5.8-2.1,8.3-3.3l-.9-1.8h0ZM169.9,49.3l-1.8-3.7-1.8.9,1.8,3.7,1.8-.9ZM207.3,38.9l.8-.6-.5-.7-.8.3.4.9h.1ZM209.5,42.8l.4.9,1-.4-.5-.9-.9.4ZM206.9,43.9l-.9.4.4.9.9-.4-.4-.9ZM204.8,40l-.4-.9-1.2.5.7,1,.8-.6h0ZM210.5,37.6l.8-.6-.5-.7-.7.3.4.9h0ZM212.9,41.3l.4.9.9-.4-.5-.9-.9.4h.1ZM210.4,42.5l-.9.5.4.9.9-.4-.4-.9h0ZM208.1,38.7l-.4-.9-1.1.5.7,1,.8-.6ZM190.6,48.6l-.6-.8-.8.7.8.8.7-.7h0ZM192.7,46.7l.7.7h0l-.7-.7ZM197.3,41.4l-.8-.6h0l.8.6ZM202.4,41.2l.7-.7h0l-.7.7ZM207.2,46.1l-.7.7h0l.7-.7ZM213.2,52.5l.7.7.6-.7-.6-.7-.7.7ZM210,56l-.8.6.7.9.8-.8-.7-.7ZM205.1,49.9l-.8.6h0l.8-.6ZM200.8,45.1l.7-.7h0l-.7.7ZM199,45.2l.8.6h0l-.8-.6ZM195.7,49.8l-.8-.6h0l.8.6ZM194.1,52.3l-.7.7.9.9.7-1-.8-.5h0ZM206.4,39.5c.7,1.1,1.7,2.7,2.2,3.7l1.8-.9c-.6-1.1-1.6-2.9-2.3-4l-1.7,1.1h0ZM209.1,41.9l-2.6,1.1.8,1.8,2.6-1.1-.8-1.8ZM207.9,43.5c-.8-1.7-1.3-2.7-2.3-4.1l-1.6,1.2c.9,1.2,1.3,2.1,2.1,3.8l1.8-.8h0ZM205.1,40.9l2.5-1-.8-1.8-2.5,1,.8,1.8ZM209.7,38.1c.7,1,1.7,2.6,2.2,3.6l1.8-.9c-.6-1.1-1.6-2.8-2.4-3.9,0,0-1.6,1.2-1.6,1.2ZM212.4,40.4l-2.5,1.2.9,1.8,2.5-1.2-.9-1.8ZM211.3,42c-.9-1.7-1.4-2.6-2.4-4l-1.6,1.2c.9,1.2,1.4,2.1,2.2,3.7l1.8-.9ZM208.5,39.6l2.5-1.1-.8-1.8-2.5,1.1.8,1.8ZM191.2,49.4c.8-.7,1.4-1.2,2.2-2l-1.4-1.4c-.8.8-1.3,1.3-2.1,1.9l1.3,1.6h0ZM193.4,47.4c1.1-1.1,2.9-3.3,4.6-5.4l-1.5-1.3c-1.8,2.1-3.5,4.2-4.5,5.2l1.4,1.4h0ZM198,42c.7-.8,1.2-1.1,1.7-1.1s1.1.2,2,1l1.4-1.5c-1.1-1-2.2-1.6-3.5-1.5-1.2,0-2.2.8-3.1,1.8l1.5,1.3h0ZM201.7,41.9c1.7,1.6,3.4,3.3,4.8,4.9l1.5-1.4c-1.5-1.6-3.2-3.4-4.9-5l-1.4,1.5h0ZM206.5,46.8c1.6,1.7,4.1,4.4,6,6.4l1.5-1.4c-1.8-2-4.3-4.6-5.9-6.4l-1.5,1.4h-.1ZM212.5,51.8l-3.2,3.5,1.5,1.4,3.2-3.5-1.5-1.4ZM210.7,55.3c-1.6-1.9-3.5-4.4-4.9-6.1l-1.5,1.3c1.3,1.6,3.3,4.1,4.9,6l1.6-1.3h-.1ZM205.9,49.3c-1.4-1.7-3.5-4-4.3-4.9l-1.4,1.4c.8.8,2.8,3.1,4.2,4.8l1.5-1.3ZM201.5,44.4c-.4-.4-1-.8-1.7-.8s-1.3.6-1.6,1l1.6,1.2c.1,0,.2-.2.2-.2h0s-.1,0,0,0c0,0,.1,0,.3.2l1.4-1.4h-.2ZM198.2,44.6c-.9,1.1-2.4,3.4-3.3,4.6l1.6,1.2c.9-1.3,2.4-3.5,3.2-4.6l-1.6-1.2h.1ZM194.9,49.2c-.6.8-1.2,1.8-1.6,2.5l1.7,1.1c.5-.7,1.1-1.6,1.6-2.4l-1.7-1.1h0ZM194.8,51.6l-3.5-3.6-1.4,1.4,3.5,3.6,1.4-1.4ZM220,37.1l.6-.8-.7-.5-.6.6.7.7ZM226.2,42.3l.7.7.7-.7-.7-.7-.7.7ZM223.2,45.4l-.7.7.7.8.7-.8-.7-.7ZM217.2,40.1l-.7-.7-.8.8.9.7.6-.8ZM216.4,53.1v-1c-.1,0-1.7.2-1.7.2l.8,1.3.8-.5h0ZM225.4,50.2l-.5-.9h0l.5.9ZM234.6,40.6l.9-.5-.9-1.7-.8,1.8.9.4h0ZM236.8,44.7l.9.5.3-.5-.3-.5-.9.5ZM227.5,53.8l-.5-.9h0l.5.9ZM218.9,56.9l-.8.5.4.5h.6c0,0-.2-1.1-.2-1.1h0ZM219.4,38c1.6,1.1,4.7,3.6,6.1,5l1.5-1.4c-1.5-1.6-4.7-4.2-6.4-5.3l-1.1,1.7h-.1ZM225.5,41.6l-3,3,1.4,1.4,3-3-1.4-1.4ZM224,44.7c-1.3-1.5-4.4-4.1-6.2-5.4l-1.2,1.6c1.7,1.2,4.6,3.8,5.9,5.1,0,0,1.5-1.3,1.5-1.3ZM217.9,40.8l2.8-3-1.5-1.4-2.8,3,1.5,1.4ZM216.6,54.1c3.6-.5,6.9-1.6,9.3-3.1l-1-1.7c-2.2,1.3-5.2,2.3-8.6,2.8l.3,2ZM225.9,51c4.5-2.6,7.9-6.5,9.6-10l-1.8-.9c-1.5,3.2-4.6,6.8-8.8,9.2l1,1.7ZM233.7,41l2.3,4.1,1.8-1-2.3-4.1-1.8,1ZM236,44.2c-1.8,3.2-5.1,6.4-9,8.7l1,1.7c4.1-2.4,7.7-5.9,9.7-9.5l-1.7-1h0ZM227,52.9c-2.4,1.4-5.4,2.6-8.2,3l.3,2c3.2-.5,6.4-1.8,8.9-3.3l-1-1.7ZM219.7,56.4l-2.5-3.8-1.7,1.1,2.5,3.8,1.7-1.1ZM244.9,36.5v-1h-1.2l.3,1.2,1-.2h-.1ZM249.5,36.5h1c0,0,.1-1,.1-1h-1.1v1ZM249.2,43h-1v.8l.7.2.3-1ZM259.1,46.6l.9.4.4-.9-.8-.4-.4.9h-.1ZM257.5,50.6l-.5.9,1,.5.4-1-.9-.4ZM249.2,47.2l.3-.9-1.3-.5v1.4h1ZM249.5,57v1h1.1v-1.1c-.1,0-1.1,0-1.1,0ZM244.9,57l-1-.2-.2,1.2h1.2v-1ZM246.2,53.4v-13.7h-2v13.7h2ZM246.2,39.7c0-1,0-2.3-.3-3.3l-2,.4c.2.8.3,2,.3,2.9,0,0,2,0,2,0ZM244.9,37.5h4.5v-2h-4.5v2ZM248.5,36.4c0,.9-.2,2-.2,3.2h2c0-1.1.1-2.1.2-3l-2-.2ZM248.2,39.7v3.3h2v-3.3h-2ZM249,43.9c3.2.9,7.8,2.6,9.8,3.6l.9-1.8c-2.1-1-6.8-2.7-10.1-3.7l-.6,1.9h0ZM258.2,46.2l-1.7,4.1,1.9.8,1.7-4.1-1.9-.8ZM257.9,49.7c-2.5-1.3-5.8-2.6-8.4-3.5l-.7,1.9c2.5.9,5.8,2.2,8.1,3.4l.9-1.8h.1ZM248.2,47.2v6.2h2v-6.2h-2ZM248.2,53.4c0,.7.1,2.6.3,3.7l2-.2c-.1-1.1-.3-2.9-.3-3.5h-2ZM249.5,56h-4.6v2h4.6v-2ZM245.9,57.2c.2-1.1.3-2.8.3-3.8h-2c0,.9-.1,2.5-.3,3.5l2,.3ZM280.9,36.4l.8-.6-.5-.7-.8.3.4.9h.1ZM282.8,39.7l.4.9,1-.4-.5-1-.9.5ZM280.5,40.6l-.9.5.4.8.9-.4s-.4-.9-.4-.9ZM278.7,37.3l-.4-.9-1.2.5.7,1,.8-.6h.1ZM283.9,35.2l.8-.6-.5-.7-.7.3.4.9h0ZM285.8,38.5l.4.9,1-.4-.5-1-.9.4h0ZM283.5,39.4l-.9.4.4.9.9-.4-.4-.9ZM281.6,36.1l-.4-.9-1.2.5.7,1,.8-.6h.1ZM266.3,48.2l-.9-.4h0l.9.4ZM268.5,38.9l.2-1-1.1-.2v1.1c-.1,0,.9,0,.9,0h0ZM272.8,39.8l1,.3.3-1-1-.2-.2,1h0ZM272.1,42.6l1,.2h0l-1-.2ZM270.1,49.6l-.9-.3h0l.9.3ZM266.6,56.6l-.4.9.7.3.5-.7-.8-.6h0ZM262.5,54.9l-.8-.6-.8,1,1.2.5.4-.9h0ZM278.1,47.9l-.9.3h0l.9-.3ZM274.6,39.8l-.3-1-1.2.4.6,1.1.9-.5ZM278.5,38.6l.9-.5-.4-.7-.8.3.3,1h0ZM282.1,46.6l.9-.4h0l-.9.4ZM284.8,55.1l.3,1,.9-.3-.2-.9-1,.3h0ZM280.5,56.5l-1,.2.2,1.1,1-.3-.3-1h0ZM280.1,36.9c.6.8,1.4,2.3,1.8,3.2l1.8-.9c-.4-.8-1.3-2.4-1.9-3.4l-1.7,1.1h0ZM282.4,38.7l-2.3,1,.8,1.8,2.3-1-.8-1.8ZM281.4,40.2c-.5-.9-1.2-2.4-1.9-3.4l-1.6,1.1c.6.9,1.3,2.2,1.8,3.2l1.8-.9h0ZM279,38.2l2.3-.9-.8-1.9-2.3.9.8,1.9ZM283,35.8c.6.9,1.4,2.4,1.8,3.1l1.8-.9c-.4-.8-1.3-2.4-2-3.4l-1.6,1.1h0ZM285.4,37.6l-2.3,1,.8,1.8,2.3-1-.8-1.8ZM284.4,39c-.5-1-1.3-2.5-2-3.5l-1.6,1.2c.6.8,1.3,2.2,1.8,3.2l1.8-.9h0ZM282,37.1l2.3-.9-.8-1.9-2.3.9.8,1.9ZM267.2,48.5c1.1-2.9,2-6.2,2.3-9.5l-2-.2c-.3,3.1-1.1,6.3-2.2,9l1.9.7h0ZM268.3,39.9l4.2.9.4-2-4.2-.9-.4,2ZM271.8,39.5c-.2.8-.6,2.3-.7,2.9l2,.3c0-.5.4-1.9.6-2.7l-1.9-.5ZM271.1,42.4c-.3,1.7-1.2,4.8-1.9,6.9l1.9.7c.8-2.1,1.7-5.3,2-7.2l-2-.4ZM269.2,49.3c-.8,2.3-2.3,5.1-3.4,6.8l1.6,1.1c1.3-1.8,2.8-4.8,3.7-7.2l-1.9-.7h0ZM267,55.7l-4.1-1.7-.8,1.8,4.1,1.7.8-1.8ZM263.3,55.5c1.5-2,3-4.7,3.9-7l-1.9-.7c-.8,2.1-2.2,4.6-3.6,6.5l1.6,1.2ZM279.1,47.6c-.9-2.6-2.5-6.3-3.5-8.2l-1.8,1c1,1.8,2.5,5.4,3.4,7.9l1.9-.7ZM275,40.8l3.9-1.2-.6-1.9-3.9,1.2.6,1.9ZM277.7,39.1c1,1.9,2.7,5.7,3.5,7.9l1.9-.7c-.8-2.2-2.6-6.2-3.6-8.1l-1.8.9ZM281.2,47c.8,2,2,5.9,2.7,8.4l1.9-.5c-.7-2.5-2-6.5-2.8-8.6l-1.9.7h0ZM284.5,54.1l-4.3,1.4.6,1.9,4.3-1.4-.6-1.9ZM281.5,56.3c-.7-3.1-1.5-6-2.4-8.7l-1.9.7c.9,2.6,1.6,5.4,2.3,8.5l2-.4h0ZM296.3,36.5v-1h-1.3l.4,1.3,1-.3h-.1ZM300.9,36.5l1,.2.2-1.2h-1.2v1ZM300.7,41.9h-1v1h1v-1ZM308.4,41.7h1v-1.1h-1.1c0,0,.1,1.1.1,1.1ZM308.4,45.7v1h1v-1.1h-1ZM300.6,45.6v-1h-1v1h1ZM293.7,57.4l-.6.8.5.4.6-.3-.5-.9ZM290.1,54.7l-.4-.9-1.6.7,1.4,1,.6-.8ZM296.6,45.6h1v-1h-1.1v1h.1ZM287.9,45.7h-1v1.1h1.1v-1.1h-.1ZM287.9,41.7v-1c.1,0-1,0-1,0v1.1h1ZM296.6,41.9v1h1v-1h-1ZM297.6,39.6c0-.9,0-2.3-.4-3.3l-1.9.6c.2.8.3,2,.3,2.8h2ZM296.3,37.5h4.6v-2h-4.6v2ZM299.9,36.4c-.2,1-.2,2.5-.2,3.3h2c0-.8,0-2.1.2-2.9,0,0-2-.4-2-.4ZM299.7,39.6v2.3h2v-2.3h-2ZM300.7,42.9h4.8v-2h-4.8v2ZM305.5,42.9c1.3,0,2.4,0,3.1-.2l-.2-2c-.5,0-1.6.2-2.8.2v2h-.1ZM307.4,41.7v4h2v-4h-2ZM308.5,44.7c-.6,0-1.9,0-3,0v2c1,0,2.3,0,2.9,0l.2-2h-.1ZM305.5,44.6h-4.8v2h4.8v-2ZM299.6,45.5c-.1,2.2-.5,4.2-1.4,6s-2.5,3.5-5,5l1,1.7c2.8-1.7,4.6-3.6,5.7-5.8,1.1-2.1,1.6-4.4,1.7-6.8h-2ZM294.3,56.6l-3.6-2.7-1.2,1.6,3.6,2.7,1.2-1.6ZM290.5,55.6c2.5-1.1,4.2-2.6,5.4-4.4,1.1-1.7,1.6-3.6,1.7-5.6l-2-.2c-.1,1.7-.5,3.3-1.4,4.7s-2.3,2.6-4.5,3.6l.8,1.8h0ZM296.6,44.6h-5.6v2h5.6v-2ZM291,44.6c-1.2,0-2.2,0-3.1,0l.2,2c.9,0,1.9,0,2.9,0v-2ZM288.9,45.7v-4h-2v4h2ZM287.8,42.7c.9,0,1.9.2,3,.2v-2c-1,0-2,0-2.8-.2l-.2,2ZM290.9,42.9h5.8v-2h-5.8v2ZM297.6,41.9v-2.3h-2v2.3h2ZM312.1,44.2v-1h-1v1.1h1ZM331.9,44.2h1v-1.1h-1.1v1.1h.1ZM331.9,48.8v1h1v-1h-1ZM312.1,48.8h-1v1.1h1.1v-1.1h-.1ZM312,45.2c1,0,3,.2,4.2.2v-2c-1.1,0-3.1,0-4.1-.2v2h-.1ZM316.2,45.4h12.7v-2h-12.7v2ZM329,45.4c1.1,0,2.4,0,3-.2v-2c-.9,0-2,.2-3,.2v2ZM330.9,44.2v4.6h2v-4.6h-2ZM332,47.8c-.5,0-2,0-3,0v2c1,0,2.2,0,2.9,0v-2h.1ZM329,47.7h-12.7v2h12.7v-2ZM316.2,47.7c-1.4,0-3.2,0-4.2,0v2c1.1,0,2.9,0,4.2,0v-2ZM313.1,48.8v-4.6h-2v4.6h2ZM338,60.7l-.4.9.8.3.4-.7-.9-.5h.1ZM335.4,59.6l-.9-.5-.6,1,1,.4.4-.9h.1ZM335.4,36.7l-.4-.9-1,.4.6,1,.9-.5h-.1ZM338,35.6l.9-.5-.4-.7-.8.3.4.9h-.1ZM338.4,59.8l-2.7-1.1-.8,1.8,2.7,1.1.8-1.8ZM336.2,60.1c2.1-3.7,3-7.9,3-11.9h-2c0,3.7-.8,7.6-2.7,11l1.7,1h0ZM339.2,48.1c0-4-.9-8.2-3-11.9l-1.7,1c1.9,3.4,2.7,7.3,2.7,11h2ZM335.8,37.6l2.7-1.1-.8-1.8-2.7,1.1.8,1.8ZM337.2,36.1c2.2,3.6,3.5,7.4,3.5,12h2c0-5-1.4-9.2-3.8-13.1l-1.7,1h0ZM340.7,48.1c0,4.6-1.3,8.4-3.5,12l1.7,1c2.4-3.9,3.8-8,3.8-13.1h-2Z"/>
          <path class="cls-1" d="M47.6,3h404.7c23.2,0,42,18.8,42,42h0c0,23.2-18.8,42-42,42H47.6c-23.2,0-42-18.8-42-42h0c0-23.2,18.8-42,42-42Z"/>
        </g>
        <g class="cls-5">
          <text class="cls-6" transform="translate(399.7 66.6) scale(1.3 1)"><tspan x="0" y="0">2</tspan></text>
        </g>
      </g>
    </g>
  </g>
</svg>