<svg width="40" height="40" viewBox="0 0 40 40" fill="none" xmlns="http://www.w3.org/2000/svg">
<path d="M30.8508 32.1904H8.37583C7.0637 32.1904 6 33.267 6 34.595C6 35.9231 7.0637 36.9996 8.37583 36.9996H30.8508C32.163 36.9996 33.2267 35.9231 33.2267 34.595C33.2267 33.267 32.163 32.1904 30.8508 32.1904Z" fill="white"/>
<path d="M22.4761 16.2539H16.7364C15.847 16.2539 15.126 16.984 15.126 17.8846V28.3632C15.126 29.2638 15.847 29.9938 16.7364 29.9938H22.4761C23.3655 29.9938 24.0865 29.2638 24.0865 28.3632V17.8846C24.0865 16.984 23.3655 16.2539 22.4761 16.2539Z" fill="white"/>
<path d="M20.4774 4.43907L30.9802 16.0791C31.7592 16.9416 31.1619 18.3331 30.008 18.3446L9.23425 18.5539C8.0804 18.5654 7.45578 17.1877 8.21668 16.3091L18.4855 4.45977C19.0101 3.85489 19.9391 3.84569 20.4752 4.43907H20.4774Z" fill="white"/>
</svg>
