<svg width="66" height="67" viewBox="0 0 66 67" fill="none" xmlns="http://www.w3.org/2000/svg">
<path d="M18.8572 13.6997C18.8572 12.1351 17.5931 10.8711 16.0286 10.8711C14.464 10.8711 13.2 12.1351 13.2 13.6997V16.5282V43.3997V53.2997C13.2 54.8642 14.464 56.1282 16.0286 56.1282C17.5931 56.1282 18.8572 54.8642 18.8572 53.2997V41.9854L24.5408 40.5623C28.1738 39.6518 32.0189 40.0761 35.3689 41.7467C39.2759 43.7002 43.8105 43.9389 47.8942 42.4008L50.9614 41.2517C52.0664 40.8363 52.8 39.7844 52.8 38.5999V16.705C52.8 14.672 50.6609 13.3461 48.84 14.2565L47.9914 14.6808C43.8989 16.7315 39.0814 16.7315 34.9889 14.6808C31.8863 13.1251 28.324 12.7362 24.9563 13.5759L18.8572 15.114V13.6997Z" fill="#003686"/>
</svg>
