<svg width="36" height="37" viewBox="0 0 36 37" fill="none" xmlns="http://www.w3.org/2000/svg">
<path d="M18.5863 30.6325C18.5863 31.4337 17.9363 32.0828 17.136 32.0828H14.0861C13.2849 32.0828 12.6358 31.4338 12.6358 30.6325V29.963C12.6358 29.1617 13.2848 28.5127 14.0861 28.5127H17.136C17.9363 28.5127 18.5863 29.1617 18.5863 29.963V30.6325Z" fill="#003686"/>
<path d="M5.30524 24.9942H5.05028C4.24996 24.9942 3.60001 25.6442 3.60001 26.4445V28.4476C3.60001 29.2488 3.97354 29.8987 4.61321 29.8987H4.77291C5.46487 29.8987 5.30518 30.5477 5.30518 31.349V32.2885C5.30524 33.0887 5.95519 33.7386 6.75551 33.7386H8.97246C9.77368 33.7386 10.4227 33.0887 10.4227 32.2884V29.8987V26.4444C10.4227 25.6441 9.77374 24.9941 8.97246 24.9941L5.30524 24.9942Z" fill="#003686"/>
<path d="M23.3199 12.7871C22.6372 12.7871 22.047 13.2634 21.9032 13.9301L21.0926 17.6673C20.9488 18.3341 20.3577 18.8103 19.6751 18.8103H10.5936C9.79323 18.8103 9.14328 19.4603 9.14328 20.2606V21.3588C9.14328 22.1591 9.79323 22.8091 10.5936 22.8091H10.8914C11.6917 22.8091 12.3417 23.459 12.3417 24.2603V24.9821C12.3417 25.7824 12.9916 26.4324 13.792 26.4324H25.0354C25.7162 26.4324 26.3054 25.958 26.452 25.2912L28.8016 14.5465C28.8959 14.1188 28.7903 13.6706 28.5149 13.3288C28.2394 12.9851 27.8238 12.7871 27.384 12.7871H23.3199Z" fill="#003686"/>
<path d="M32.2623 9.63818C32.1315 10.3208 31.5348 10.8148 30.8372 10.8148H24.5311C24.0987 10.8148 23.6878 10.6234 23.4142 10.29C23.1378 9.95572 23.0247 9.5168 23.106 9.09288L24.0174 4.31725C24.1482 3.63359 24.7459 3.13867 25.4425 3.13867H31.7496C32.182 3.13867 32.591 3.33106 32.8665 3.66539C33.1429 3.99876 33.255 4.43768 33.1738 4.86255L32.2623 9.63818Z" fill="#003686"/>
</svg>
