<svg width="54" height="48" viewBox="0 0 54 48" fill="none" xmlns="http://www.w3.org/2000/svg">
<g clip-path="url(#clip0_290_10573)">
<path d="M53.2688 31.5278C54.4969 33.1966 54.1406 35.5403 52.4719 36.7684L40.6031 45.5153C38.4094 47.1278 35.7656 47.9997 33.0375 47.9997H18H3C1.34063 47.9997 0 46.6591 0 44.9997V38.9997C0 37.3403 1.34063 35.9997 3 35.9997H6.45L10.6594 32.6247C12.7875 30.9185 15.4313 29.9997 18.1594 29.9997H25.5H27H33C34.6594 29.9997 36 31.3403 36 32.9997C36 34.6591 34.6594 35.9997 33 35.9997H27H25.5C24.675 35.9997 24 36.6747 24 37.4997C24 38.3247 24.675 38.9997 25.5 38.9997H36.8063L48.0281 30.731C49.6969 29.5028 52.0406 29.8591 53.2688 31.5278ZM18.15 35.9997H18.0656C18.0938 35.9997 18.1219 35.9997 18.15 35.9997Z" fill="#09AAAF"/>
<path d="M22.2177 20.9854C22.7581 20.986 23.2977 20.9421 23.831 20.8541C24.4307 22.6357 25.5281 24.2082 26.9933 25.3859C28.4585 26.5636 30.2303 27.2971 32.0992 27.4997C33.9681 27.7023 35.8559 27.3655 37.5394 26.5293C39.223 25.693 40.6319 24.3921 41.5995 22.7805C42.5672 21.1688 43.0532 19.3138 43 17.4348C42.9468 15.5557 42.3567 13.7311 41.2994 12.1768C40.2422 10.6225 38.7619 9.40342 37.0338 8.6637C35.3056 7.92398 33.4018 7.69455 31.5474 8.00254C30.9698 6.28603 29.93 4.76211 28.5422 3.59849C27.1544 2.43488 25.4725 1.67668 23.6815 1.40733C21.8906 1.13798 20.0601 1.36793 18.3914 2.07186C16.7228 2.77579 15.2806 3.92643 14.2238 5.39713C13.1669 6.86784 12.5362 8.6016 12.4012 10.4076C12.2661 12.2137 12.632 14.0219 13.4584 15.6335C14.2848 17.245 15.5398 18.5973 17.0852 19.5415C18.6306 20.4858 20.4066 20.9854 22.2177 20.9854ZM38.6239 17.7041C38.6239 18.7857 38.3032 19.843 37.7023 20.7424C37.1014 21.6417 36.2473 22.3427 35.248 22.7566C34.2487 23.1705 33.1491 23.2788 32.0883 23.0678C31.0274 22.8568 30.053 22.3359 29.2882 21.5711C28.5234 20.8063 28.0025 19.8318 27.7915 18.771C27.5805 17.7102 27.6888 16.6106 28.1027 15.6113C28.5166 14.612 29.2176 13.7579 30.1169 13.157C31.0162 12.5561 32.0736 12.2354 33.1552 12.2354C34.6056 12.2354 35.9966 12.8115 37.0222 13.8371C38.0478 14.8627 38.6239 16.2537 38.6239 17.7041ZM22.2177 5.67285C23.4107 5.67345 24.5708 6.06416 25.5211 6.78541C26.4714 7.50667 27.1598 8.51889 27.4813 9.66778C26.361 10.4561 25.4175 11.4696 24.7112 12.6434C24.005 13.8172 23.5515 15.1255 23.3798 16.4846C22.9979 16.5671 22.6084 16.6092 22.2177 16.6104C20.7673 16.6104 19.3763 16.0342 18.3507 15.0086C17.3251 13.983 16.7489 12.592 16.7489 11.1416C16.7489 9.6912 17.3251 8.30021 18.3507 7.27462C19.3763 6.24903 20.7673 5.67285 22.2177 5.67285Z" fill="#09AAAF"/>
</g>
<defs>
<clipPath id="clip0_290_10573">
<rect width="54" height="48" fill="white"/>
</clipPath>
</defs>
</svg>
