<svg width="50" height="50" viewBox="0 0 50 50" fill="none" xmlns="http://www.w3.org/2000/svg">
<rect x="8.52087" y="36.2725" width="33.1361" height="3.5503" rx="1.77515" fill="#003686"/>
<path fill-rule="evenodd" clip-rule="evenodd" d="M42.5121 12.3328C43.3477 13.2951 43.245 14.7526 42.2827 15.5883L30.2976 25.9955C29.8778 26.36 29.3405 26.5607 28.7845 26.5607H21.0934L9.66058 33.5101C8.57149 34.1721 7.15195 33.8259 6.48995 32.7368C5.82796 31.6477 6.17419 30.2281 7.26328 29.5661L19.2484 22.2811C19.6096 22.0615 20.0243 21.9454 20.447 21.9454H27.9224L39.2566 12.1034C40.2189 11.2677 41.6764 11.3704 42.5121 12.3328Z" fill="#003686"/>
<rect x="3.07693" y="36.1543" width="43.0769" height="4.61538" rx="2.30769" fill="#003686"/>
</svg>
