<svg width="91" height="91" viewBox="0 0 91 91" fill="none" xmlns="http://www.w3.org/2000/svg">
<g clip-path="url(#clip0_5569_35055)">
<rect x="0.814209" y="68" width="90" height="6.25" rx="3.125" fill="#4D8CCA"/>
<mask id="mask0_5569_35055" style="mask-type:alpha" maskUnits="userSpaceOnUse" x="0" y="10" width="91" height="58">
<rect x="0.814209" y="10.5" width="90" height="57.5" fill="#D9D9D9"/>
</mask>
<g mask="url(#mask0_5569_35055)">
<path d="M61.7811 21.9312C62.5379 22.2388 63.0827 22.8978 63.2341 23.6741L66.2458 39.4775L82.576 42.3774C83.3781 42.5239 84.0592 43.0512 84.377 43.7835C84.6948 44.5158 84.604 45.3506 84.1348 46.0097L74.706 59.25L84.1348 72.4756C84.604 73.1347 84.6948 73.9696 84.377 74.7019C84.0592 75.4342 83.3781 75.9615 82.576 76.1079L66.2458 79.0225L63.2341 94.8259C63.0827 95.6022 62.5379 96.2613 61.7811 96.5688C61.0244 96.8764 60.1617 96.7885 59.4807 96.3345L45.8142 87.2098L32.1477 96.3345C31.4667 96.7885 30.604 96.8764 29.8473 96.5688C29.0906 96.2613 28.5457 95.6022 28.3944 94.8259L25.3826 79.0225L9.05244 76.1079C8.25031 75.9615 7.56925 75.4342 7.25143 74.7019C6.9336 73.9696 7.02441 73.1347 7.49358 72.4756L16.9224 59.25L7.49358 46.0244C7.02441 45.3653 6.9336 44.5304 7.25143 43.7981C7.56925 43.0658 8.25031 42.5385 9.05244 42.3921L25.3826 39.4775L28.3944 23.6741C28.5457 22.8978 29.0906 22.2388 29.8473 21.9312C30.604 21.6236 31.4667 21.7115 32.1477 22.1655L45.8142 31.2902L59.4807 22.1655C60.1617 21.7115 61.0244 21.6236 61.7811 21.9312ZM31.2851 59.25C31.2851 55.5209 32.8158 51.9446 35.5405 49.3078C38.2653 46.6709 41.9608 45.1895 45.8142 45.1895C49.6676 45.1895 53.3631 46.6709 56.0879 49.3078C58.8126 51.9446 60.3434 55.5209 60.3434 59.25C60.3434 62.9791 58.8126 66.5554 56.0879 69.1923C53.3631 71.8291 49.6676 73.3105 45.8142 73.3105C41.9608 73.3105 38.2653 71.8291 35.5405 69.1923C32.8158 66.5554 31.2851 62.9791 31.2851 59.25ZM65.1864 59.25C65.1864 54.2779 63.1454 49.5095 59.5124 45.9937C55.8794 42.4779 50.952 40.5027 45.8142 40.5027C40.6764 40.5027 35.749 42.4779 32.116 45.9937C28.483 49.5095 26.442 54.2779 26.442 59.25C26.442 64.2221 28.483 68.9905 32.116 72.5063C35.749 76.0221 40.6764 77.9973 45.8142 77.9973C50.952 77.9973 55.8794 76.0221 59.5124 72.5063C63.1454 68.9905 65.1864 64.2221 65.1864 59.25Z" fill="#4D8CCA"/>
</g>
</g>
<defs>
<clipPath id="clip0_5569_35055">
<rect width="90" height="90" fill="white" transform="translate(0.814209 0.5)"/>
</clipPath>
</defs>
</svg>
