<svg width="91" height="91" viewBox="0 0 91 91" fill="none" xmlns="http://www.w3.org/2000/svg">
<path d="M51.4879 8C31.1572 8 14.6952 24.5114 14.6952 44.875C14.6952 65.2386 31.1572 81.75 51.4879 81.75C61.4639 81.75 70.5015 77.7662 77.1358 71.3131C77.9589 70.5064 78.1729 69.2553 77.6461 68.2347C77.1193 67.214 75.9834 66.6378 74.8475 66.8354C73.2343 67.1152 71.588 67.2634 69.8925 67.2634C53.9407 67.2634 41.0016 54.2913 41.0016 38.2902C41.0016 27.4581 46.9279 18.0254 55.7022 13.0539C56.7064 12.4777 57.2167 11.3253 56.9697 10.2059C56.7228 9.0865 55.768 8.24693 54.6157 8.14816C53.5786 8.06585 52.5415 8.01646 51.4879 8.01646V8Z" fill="#4D8CCA"/>
</svg>
