<svg width="50" height="51" viewBox="0 0 50 51" fill="none" xmlns="http://www.w3.org/2000/svg">
<path d="M24.9985 7.29639C26.108 7.29639 27.1315 7.88237 27.6941 8.84337L44.5703 37.5954C45.1406 38.5643 45.1406 39.7596 44.5859 40.7285C44.0312 41.6973 42.992 42.2989 41.8748 42.2989H8.12234C7.00507 42.2989 5.96594 41.6973 5.41121 40.7285C4.85648 39.7596 4.86429 38.5564 5.42683 37.5954L22.303 8.84337C22.8656 7.88237 23.8891 7.29639 24.9985 7.29639Z" fill="#003686"/>
<path d="M24.9982 17.2974C23.9591 17.2974 23.1231 18.1334 23.1231 19.1725V27.9231C23.1231 28.9623 23.9591 29.7983 24.9982 29.7983C26.0374 29.7983 26.8734 28.9623 26.8734 27.9231V19.1725C26.8734 18.1334 26.0374 17.2974 24.9982 17.2974ZM27.4984 34.7986C27.4984 33.418 26.3788 32.2984 24.9982 32.2984C23.6177 32.2984 22.498 33.418 22.498 34.7986C22.498 36.1792 23.6177 37.2988 24.9982 37.2988C26.3788 37.2988 27.4984 36.1792 27.4984 34.7986Z" fill="white"/>
</svg>
