<svg width="736" height="658" viewBox="0 0 736 658" fill="none" xmlns="http://www.w3.org/2000/svg">
<path d="M553.031 239C567.016 239 578.315 250.703 578.315 265.188V289.82L590.167 277.545C597.594 269.852 609.604 269.852 616.952 277.545C624.301 285.237 624.38 297.676 616.952 305.287L578.236 345.387V402.917L626.75 373.62L640.735 319.527C643.422 309.052 653.852 302.832 663.965 305.614C674.079 308.397 680.084 319.199 677.398 329.674L673.289 345.469L691.936 334.175C704.025 326.892 719.512 331.147 726.544 343.586C733.576 356.025 729.546 372.147 717.457 379.43L697.467 391.542L714.613 396.289C724.727 399.071 730.732 409.873 728.045 420.348C725.359 430.823 714.929 437.043 704.815 434.261L651.323 419.448L603.204 448.5L651.323 477.552L704.815 462.739C714.929 459.957 725.359 466.177 728.045 476.652C730.732 487.127 724.727 497.929 714.613 500.711L697.467 505.458L717.457 517.57C729.546 524.853 733.576 540.893 726.544 553.414C719.512 565.935 704.025 570.108 691.936 562.825L673.289 551.531L677.398 567.326C680.084 577.801 674.079 588.603 663.965 591.386C653.852 594.168 643.422 587.948 640.735 577.473L626.75 523.38L578.315 494.083V551.613L617.032 591.713C624.459 599.405 624.459 611.845 617.032 619.455C609.604 627.066 597.594 627.148 590.246 619.455L578.394 607.18V631.812C578.394 646.297 567.095 658 553.11 658C539.124 658 527.826 646.297 527.826 631.812V607.18L515.974 619.455C508.546 627.148 496.536 627.148 489.188 619.455C481.84 611.763 481.761 599.324 489.188 591.713L527.905 551.613V494.083L479.39 523.38L465.405 577.473C462.719 587.948 452.289 594.168 442.175 591.386C432.061 588.603 426.056 577.801 428.743 567.326L432.852 551.531L414.046 562.743C401.957 570.026 386.471 565.771 379.439 553.332C372.406 540.893 376.515 524.771 388.525 517.488L408.516 505.376L391.37 500.63C381.256 497.847 375.251 487.045 377.937 476.57C380.624 466.095 391.054 459.875 401.167 462.658L454.659 477.47L502.857 448.5L454.738 419.448L401.246 434.261C391.133 437.043 380.703 430.823 378.016 420.348C375.33 409.873 381.335 399.071 391.449 396.289L408.595 391.542L388.604 379.43C376.515 372.147 372.485 356.107 379.518 343.668C386.55 331.229 402.036 326.974 414.125 334.257L432.773 345.55L428.664 329.756C425.977 319.281 431.982 308.479 442.096 305.696C452.21 302.914 462.64 309.133 465.326 319.608L479.311 373.702L527.747 402.917V345.387L489.03 305.287C481.603 297.595 481.603 285.155 489.03 277.545C496.457 269.934 508.467 269.852 515.816 277.545L527.668 289.82L527.747 265.188C527.747 250.703 539.045 239 553.031 239Z" fill="#80CFF3"/>
<path d="M200.5 12C214.363 12 225.562 23.6187 225.562 38V39.625C316.257 51.325 388.155 125.913 399.434 220.081C401.157 234.3 389.722 246 375.937 246H25.0625C11.1998 246 -0.156636 234.3 1.56641 220.081C12.8445 125.913 84.7426 51.325 175.438 39.625V38C175.438 23.6187 186.637 12 200.5 12ZM225.562 361.863C225.562 398.425 196.976 428 161.81 428C137.687 428 115.601 413.863 104.793 391.438L102.991 387.619C96.8039 374.781 101.816 359.181 114.191 352.762C126.566 346.344 141.603 351.544 147.79 364.381L149.592 368.2C151.941 372.994 156.641 376 161.81 376C169.329 376 175.438 369.663 175.438 361.863V272H225.562V361.863Z" fill="#95B6E1"/>
<line x1="133.461" y1="556.468" x2="595.461" y2="93.4683" stroke="black" stroke-width="10"/>
</svg>
