<svg width="25" height="24" viewBox="0 0 25 24" fill="none" xmlns="http://www.w3.org/2000/svg">
<path d="M14.0379 3.63789C14.0379 2.9534 13.4849 2.40039 12.8004 2.40039C12.1159 2.40039 11.5629 2.9534 11.5629 3.63789V13.0236L8.72438 10.185C8.24098 9.70164 7.45594 9.70164 6.97254 10.185C6.48914 10.6684 6.48914 11.4535 6.97254 11.9369L11.9225 16.8869C12.4059 17.3703 13.191 17.3703 13.6744 16.8869L18.6244 11.9369C19.1078 11.4535 19.1078 10.6684 18.6244 10.185C18.141 9.70164 17.3559 9.70164 16.8725 10.185L14.0379 13.0236V3.63789ZM5.37539 16.0129C4.01027 16.0129 2.90039 17.1228 2.90039 18.4879V19.7254C2.90039 21.0905 4.01027 22.2004 5.37539 22.2004H20.2254C21.5905 22.2004 22.7004 21.0905 22.7004 19.7254V18.4879C22.7004 17.1228 21.5905 16.0129 20.2254 16.0129H16.3002L14.5484 17.7647C13.5816 18.7315 12.0154 18.7315 11.0486 17.7647L9.30059 16.0129H5.37539ZM19.6066 18.1785C19.8528 18.1785 20.0889 18.2763 20.2629 18.4504C20.437 18.6244 20.5348 18.8605 20.5348 19.1066C20.5348 19.3528 20.437 19.5889 20.2629 19.7629C20.0889 19.937 19.8528 20.0348 19.6066 20.0348C19.3605 20.0348 19.1244 19.937 18.9504 19.7629C18.7763 19.5889 18.6785 19.3528 18.6785 19.1066C18.6785 18.8605 18.7763 18.6244 18.9504 18.4504C19.1244 18.2763 19.3605 18.1785 19.6066 18.1785Z" fill="#003686"/>
</svg>
