<svg width="80" height="80" viewBox="0 0 80 80" fill="none" xmlns="http://www.w3.org/2000/svg">
<circle cx="40" cy="40" r="38" fill="#509B81" stroke="#33765F" stroke-width="4"/>
<path fill-rule="evenodd" clip-rule="evenodd" d="M44.7089 33.8584C45.6672 34.5777 45.8609 35.9376 45.1416 36.8958L33.5937 52.2804C32.8919 53.2154 31.5753 53.4261 30.6167 52.7568L26.1269 49.622L19.0416 57.5517C18.2432 58.4451 16.8717 58.5223 15.9783 57.7239C15.0848 56.9256 15.0077 55.5541 15.806 54.6607L24.1734 45.2962C24.9049 44.4774 26.1328 44.3343 27.0331 44.9628L31.3819 47.9992L41.6715 34.2911C42.3908 33.3328 43.7507 33.1391 44.7089 33.8584Z" fill="white"/>
<path fill-rule="evenodd" clip-rule="evenodd" d="M58.0004 31C58.0004 39.2843 51.2846 46 43.0004 46C34.7161 46 28.0004 39.2843 28.0004 31C28.0004 22.7157 34.7161 16 43.0004 16C51.2846 16 58.0004 22.7157 58.0004 31ZM43.0004 44C50.1801 44 56.0004 38.1797 56.0004 31C56.0004 23.8203 50.1801 18 43.0004 18C35.8207 18 30.0004 23.8203 30.0004 31C30.0004 38.1797 35.8207 44 43.0004 44Z" fill="#509B81"/>
<path d="M56.0004 31C56.0004 38.1797 50.1801 44 43.0004 44C35.8207 44 30.0004 38.1797 30.0004 31C30.0004 23.8203 35.8207 18 43.0004 18C50.1801 18 56.0004 23.8203 56.0004 31Z" fill="#509B81"/>
<path fill-rule="evenodd" clip-rule="evenodd" d="M43.0004 40C47.9709 40 52.0004 35.9706 52.0004 31C52.0004 26.0294 47.9709 22 43.0004 22C38.0298 22 34.0004 26.0294 34.0004 31C34.0004 35.9706 38.0298 40 43.0004 40ZM43.0004 44C50.1801 44 56.0004 38.1797 56.0004 31C56.0004 23.8203 50.1801 18 43.0004 18C35.8207 18 30.0004 23.8203 30.0004 31C30.0004 38.1797 35.8207 44 43.0004 44Z" fill="white"/>
<path fill-rule="evenodd" clip-rule="evenodd" d="M59.0306 53.3587L49.0858 42.0713L52.3415 39.2029L62.2863 50.4903L59.0306 53.3587Z" fill="white"/>
<path fill-rule="evenodd" clip-rule="evenodd" d="M52.8641 42.8016C54.2412 41.6468 56.2938 41.8271 57.4486 43.2043L64.3074 51.3838C65.4622 52.761 65.2819 54.8135 63.9047 55.9683C62.5276 57.1231 60.475 56.9429 59.3202 55.5657L52.4614 47.3862C51.3066 46.009 51.4869 43.9564 52.8641 42.8016Z" fill="white"/>
<path fill-rule="evenodd" clip-rule="evenodd" d="M38.0004 31.1271C38.0004 30.2285 38.7289 29.5 39.6275 29.5H46.8478C47.7465 29.5 48.4749 30.2285 48.4749 31.1271C48.4749 32.0258 47.7465 32.7542 46.8478 32.7542H39.6275C38.7289 32.7542 38.0004 32.0258 38.0004 31.1271Z" fill="white"/>
</svg>
