<svg width="512" height="512" viewBox="0 0 512 512" fill="none" xmlns="http://www.w3.org/2000/svg">
<path d="M256 0C273.7 0 288 14.3 288 32V34C403.8 48.4 495.6 140.2 510 256.1C512.2 273.6 497.6 288 480 288H32C14.3 288 -0.200004 273.6 2 256.1C16.4 140.2 108.2 48.4 224 34V32C224 14.3 238.3 0 256 0ZM288 430.6C288 475.6 251.5 512 206.6 512C175.8 512 147.6 494.6 133.8 467L131.5 462.3C123.6 446.5 130 427.3 145.8 419.4C161.6 411.5 180.8 417.9 188.7 433.7L191 438.4C194 444.3 200 448 206.6 448C216.2 448 224 440.2 224 430.6V320H288V430.6Z" fill="#95B6E1"/>
</svg>
