<svg width="40" height="40" viewBox="0 0 40 40" fill="none" xmlns="http://www.w3.org/2000/svg">
<path d="M36.9107 20.279C36.9107 21.3174 36.0453 22.1309 35.0646 22.1309H33.2184L33.2588 31.3732C33.2588 31.529 33.2473 31.6847 33.23 31.8405V32.7751C33.23 34.0501 32.1973 35.0828 30.9223 35.0828H29.9992C29.9357 35.0828 29.8723 35.0828 29.8088 35.077C29.728 35.0828 29.6473 35.0828 29.5665 35.0828L27.6915 35.077H26.3069C25.0319 35.077 23.9992 34.0443 23.9992 32.7693V31.3847V27.6924C23.9992 26.6713 23.1742 25.8463 22.153 25.8463H18.4607C17.4396 25.8463 16.6146 26.6713 16.6146 27.6924V31.3847V32.7693C16.6146 34.0443 15.5819 35.077 14.3069 35.077H12.9223H11.0819C10.9953 35.077 10.9088 35.0713 10.8223 35.0655C10.753 35.0713 10.6838 35.077 10.6146 35.077H9.6915C8.4165 35.077 7.3838 34.0443 7.3838 32.7693V26.3078C7.3838 26.2559 7.3838 26.1982 7.38957 26.1463V22.1251H5.54342C4.50496 22.1251 3.69727 21.3174 3.69727 20.2732C3.69727 19.754 3.87034 19.2924 4.27419 18.8886L19.0607 6.00011C19.4646 5.59627 19.9261 5.53857 20.33 5.53857C20.7338 5.53857 21.1953 5.65396 21.5415 5.94242L36.2761 18.8943C36.7376 19.2982 36.9684 19.7597 36.9107 20.279Z" fill="#003686"/>
</svg>
