<svg width="30" height="30" viewBox="0 0 30 30" fill="none" xmlns="http://www.w3.org/2000/svg">
<mask id="mask0_5913_127355" style="mask-type:alpha" maskUnits="userSpaceOnUse" x="1" y="2" width="19" height="19">
<path d="M9.70215 2.1402C10.218 1.95327 10.782 1.95327 11.3016 2.1402L18.4266 4.70494C19.3691 5.04516 20 5.94618 20 6.95937V16.0406C20 17.0501 19.3691 17.9548 18.4229 18.2951L11.2979 20.8598C10.782 21.0467 10.218 21.0467 9.69844 20.8598L2.57344 18.2951C1.63086 17.9511 1 17.0501 1 16.0369V6.95937C1 5.94992 1.63086 5.04516 2.57715 4.70494L9.70215 2.1402ZM10.5 4.39463L4.0541 6.71261L10.5 9.0306L16.9459 6.71261L10.5 4.39463ZM11.6875 18.1754L17.625 16.0406V9.01191L11.6875 11.1467V18.1754Z" fill="#003686"/>
</mask>
<g mask="url(#mask0_5913_127355)">
<path d="M30 30H0V0H30V30ZM19.4004 13.0664C16.4549 13.0664 14.0664 15.4549 14.0664 18.4004C14.0666 21.3457 16.455 23.7334 19.4004 23.7334C22.3456 23.7332 24.7332 21.3456 24.7334 18.4004C24.7334 15.455 22.3457 13.0666 19.4004 13.0664Z" fill="#003686"/>
</g>
<path d="M26 18.5C26 19.9344 25.5344 21.2594 24.75 22.3344L28.7063 26.2937C29.0969 26.6844 29.0969 27.3188 28.7063 27.7094C28.3156 28.1 27.6812 28.1 27.2906 27.7094L23.3344 23.75C22.2594 24.5375 20.9344 25 19.5 25C15.9094 25 13 22.0906 13 18.5C13 14.9094 15.9094 12 19.5 12C23.0906 12 26 14.9094 26 18.5ZM19.5 23C20.0909 23 20.6761 22.8836 21.2221 22.6575C21.768 22.4313 22.2641 22.0998 22.682 21.682C23.0998 21.2641 23.4313 20.768 23.6575 20.2221C23.8836 19.6761 24 19.0909 24 18.5C24 17.9091 23.8836 17.3239 23.6575 16.7779C23.4313 16.232 23.0998 15.7359 22.682 15.318C22.2641 14.9002 21.768 14.5687 21.2221 14.3425C20.6761 14.1164 20.0909 14 19.5 14C18.9091 14 18.3239 14.1164 17.7779 14.3425C17.232 14.5687 16.7359 14.9002 16.318 15.318C15.9002 15.7359 15.5687 16.232 15.3425 16.7779C15.1164 17.3239 15 17.9091 15 18.5C15 19.0909 15.1164 19.6761 15.3425 20.2221C15.5687 20.768 15.9002 21.2641 16.318 21.682C16.7359 22.0998 17.232 22.4313 17.7779 22.6575C18.3239 22.8836 18.9091 23 19.5 23Z" fill="#003686"/>
</svg>
