<svg width="37" height="36" viewBox="0 0 37 36" fill="none" xmlns="http://www.w3.org/2000/svg">
<path d="M18.8333 34.0013C12.3923 34.0013 7.16663 28.7383 7.16663 22.2513C7.16663 16.6701 15.0781 6.19909 17.2899 3.38398C17.6545 2.925 18.1953 2.66797 18.7786 2.66797H18.888C19.4713 2.66797 20.0121 2.925 20.3767 3.38398C22.5885 6.19909 30.5 16.6701 30.5 22.2513C30.5 28.7383 25.2743 34.0013 18.8333 34.0013ZM13 23.2305C13 22.6919 12.5625 22.2513 12.0277 22.2513C11.493 22.2513 11.0555 22.6919 11.0555 23.2305C11.0555 27.0186 14.0998 30.0846 17.8611 30.0846C18.3958 30.0846 18.8333 29.644 18.8333 29.1055C18.8333 28.5669 18.3958 28.1263 17.8611 28.1263C15.1753 28.1263 13 25.9354 13 23.2305Z" fill="#7991A7"/>
</svg>
