<svg width="50" height="50" viewBox="0 0 50 50" fill="none" xmlns="http://www.w3.org/2000/svg">
<path d="M4.5 25C4.5 13.6782 13.6782 4.5 25 4.5C36.3218 4.5 45.5 13.6782 45.5 25C45.5 36.3218 36.3218 45.5 25 45.5C13.6782 45.5 4.5 36.3218 4.5 25Z" fill="white" stroke="#D6D7DB" stroke-width="5"/>
<path d="M22.7753 15.1695C22.7753 14.5177 23.032 13.8926 23.4889 13.4317C23.9458 12.9708 24.5656 12.7119 25.2117 12.7119C25.8579 12.7119 26.4777 12.9708 26.9346 13.4317C27.3915 13.8926 27.6482 14.5177 27.6482 15.1695C27.6482 15.8213 27.3915 16.4465 26.9346 16.9073C26.4777 17.3682 25.8579 17.6272 25.2117 17.6272C24.5656 17.6272 23.9458 17.3682 23.4889 16.9073C23.032 16.4465 22.7753 15.8213 22.7753 15.1695ZM20.3389 22.5424C20.3389 21.6362 21.0647 20.904 21.9632 20.904H25.2117C26.1102 20.904 26.836 21.6362 26.836 22.5424V34.0113H28.4603C29.3588 34.0113 30.0846 34.7435 30.0846 35.6498C30.0846 36.556 29.3588 37.2882 28.4603 37.2882H21.9632C21.0647 37.2882 20.3389 36.556 20.3389 35.6498C20.3389 34.7435 21.0647 34.0113 21.9632 34.0113H23.5875V24.1808H21.9632C21.0647 24.1808 20.3389 23.4487 20.3389 22.5424Z" fill="#003686"/>
</svg>
