<svg width="66" height="67" viewBox="0 0 66 67" fill="none" xmlns="http://www.w3.org/2000/svg">
<path d="M5 21.0503C5 17.6184 7.79028 14.8281 11.2222 14.8281H36.1111C39.5431 14.8281 42.3333 17.6184 42.3333 21.0503V45.9392C42.3333 49.3712 39.5431 52.1615 36.1111 52.1615H11.2222C7.79028 52.1615 5 49.3712 5 45.9392V21.0503ZM59.3569 18.3087C60.3681 18.8531 61 19.9031 61 21.0503V45.9392C61 47.0865 60.3681 48.1365 59.3569 48.6809C58.3458 49.2253 57.1208 49.167 56.1583 48.5253L46.825 42.3031L45.4444 41.3795V39.717V27.2726V25.6101L46.825 24.6865L56.1583 18.4642C57.1111 17.8323 58.3361 17.7642 59.3569 18.3087Z" fill="#003686"/>
</svg>
