<svg width="40" height="40" viewBox="0 0 40 40" fill="none" xmlns="http://www.w3.org/2000/svg">
<path d="M12.6733 18.1138C12.2405 18.1138 11.8864 17.7612 11.8864 17.3303V15.7632C11.8864 15.3323 12.2405 14.9797 12.6733 14.9797H13.4602V11.8456H12.6733C12.2405 11.8456 11.8864 11.493 11.8864 11.062V9.49498C11.8864 9.06403 12.2405 8.71144 12.6733 8.71144H14.2471C14.2898 8.71144 14.3312 8.71585 14.3725 8.72222C15.1126 7.82214 16.2364 7.24673 17.493 7.24673H22.9028V6.36036C22.9028 5.06264 21.8454 4.00977 20.5421 4.00977H6.37823C5.07495 4.01026 4.01758 5.06313 4.01758 6.36085V26.7327C4.01758 28.0304 5.07495 29.0833 6.37823 29.0833H11.0995V25.1656C11.0995 23.8679 12.1569 22.815 13.4602 22.815V18.1138H12.6733ZM10.3126 17.3303C10.3126 17.7612 9.95855 18.1138 9.52576 18.1138H7.95199C7.51921 18.1138 7.16511 17.7612 7.16511 17.3303V15.7632C7.16511 15.3323 7.51921 14.9797 7.95199 14.9797H9.52576C9.95855 14.9797 10.3126 15.3323 10.3126 15.7632V17.3303ZM10.3126 11.062C10.3126 11.493 9.95855 11.8456 9.52576 11.8456H7.95199C7.51921 11.8456 7.16511 11.493 7.16511 11.062V9.49498C7.16511 9.06403 7.51921 8.71144 7.95199 8.71144H9.52576C9.95855 8.71144 10.3126 9.06403 10.3126 9.49498V11.062Z" fill="#003686"/>
<path d="M18.4974 9.93652C17.1941 9.93652 16.1367 10.9894 16.1367 12.2871V32.6589C16.1367 33.9567 17.1941 35.0095 18.4974 35.0095H23.2187V31.0919C23.2187 29.7942 24.276 28.7413 25.5793 28.7413C26.8826 28.7413 27.94 29.7942 27.94 31.0919V35.0095H32.6613C33.9645 35.0095 35.0219 33.9567 35.0219 32.6589V12.2871C35.0219 10.9894 33.9645 9.93652 32.6613 9.93652H18.4974ZM19.2843 21.6895C19.2843 21.2586 19.6383 20.906 20.0711 20.906H21.6449C22.0777 20.906 22.4318 21.2586 22.4318 21.6895V23.2566C22.4318 23.6875 22.0777 24.0401 21.6449 24.0401H20.0711C19.6383 24.0401 19.2843 23.6875 19.2843 23.2566V21.6895ZM24.7924 20.906H26.3662C26.799 20.906 27.1531 21.2586 27.1531 21.6895V23.2566C27.1531 23.6875 26.799 24.0401 26.3662 24.0401H24.7924C24.3596 24.0401 24.0056 23.6875 24.0056 23.2566V21.6895C24.0056 21.2586 24.3596 20.906 24.7924 20.906ZM28.7269 21.6895C28.7269 21.2586 29.0809 20.906 29.5137 20.906H31.0875C31.5203 20.906 31.8744 21.2586 31.8744 21.6895V23.2566C31.8744 23.6875 31.5203 24.0401 31.0875 24.0401H29.5137C29.0809 24.0401 28.7269 23.6875 28.7269 23.2566V21.6895ZM20.0711 14.6377H21.6449C22.0777 14.6377 22.4318 14.9903 22.4318 15.4212V16.9883C22.4318 17.4193 22.0777 17.7718 21.6449 17.7718H20.0711C19.6383 17.7718 19.2843 17.4193 19.2843 16.9883V15.4212C19.2843 14.9903 19.6383 14.6377 20.0711 14.6377ZM24.0056 15.4212C24.0056 14.9903 24.3596 14.6377 24.7924 14.6377H26.3662C26.799 14.6377 27.1531 14.9903 27.1531 15.4212V16.9883C27.1531 17.4193 26.799 17.7718 26.3662 17.7718H24.7924C24.3596 17.7718 24.0056 17.4193 24.0056 16.9883V15.4212ZM29.5137 14.6377H31.0875C31.5203 14.6377 31.8744 14.9903 31.8744 15.4212V16.9883C31.8744 17.4193 31.5203 17.7718 31.0875 17.7718H29.5137C29.0809 17.7718 28.7269 17.4193 28.7269 16.9883V15.4212C28.7269 14.9903 29.0809 14.6377 29.5137 14.6377Z" fill="#003686"/>
</svg>
