<svg width="70" height="70" viewBox="0 0 70 70" fill="none" xmlns="http://www.w3.org/2000/svg">
<path d="M13.4125 34C13.4125 32.6739 13.938 31.4021 14.8733 30.4645C15.8086 29.5268 17.0772 29 18.4 29C19.7228 29 20.9914 29.5268 21.9267 30.4645C22.862 31.4021 23.3875 32.6739 23.3875 34C23.3875 35.3261 22.862 36.5979 21.9267 37.5355C20.9914 38.4732 19.7228 39 18.4 39C17.0772 39 15.8086 38.4732 14.8733 37.5355C13.938 36.5979 13.4125 35.3261 13.4125 34ZM12.7 48.0804C11.8094 49.0804 11.275 50.4107 11.275 51.8571C11.275 53.3036 11.8094 54.6339 12.7 55.6339V48.0714V48.0804ZM25.5606 43.6786C22.9155 46.0268 21.25 49.4643 21.25 53.2857C21.25 56.3482 22.3187 59.1607 24.1 61.3661V63.2857C24.1 64.8661 22.8264 66.1429 21.25 66.1429H15.55C13.9736 66.1429 12.7 64.8661 12.7 63.2857V60.8929C9.33344 59.2857 7 55.8482 7 51.8571C7 46.3304 11.462 41.8571 16.975 41.8571H19.825C21.9625 41.8571 23.9397 42.5268 25.5606 43.6696V43.6786ZM46.9 63.2857V61.3661C48.6812 59.1607 49.75 56.3482 49.75 53.2857C49.75 49.4643 48.0845 46.0268 45.4394 43.6696C47.0603 42.5268 49.0375 41.8571 51.175 41.8571H54.025C59.538 41.8571 64 46.3304 64 51.8571C64 55.8482 61.6666 59.2857 58.3 60.8929V63.2857C58.3 64.8661 57.0264 66.1429 55.45 66.1429H49.75C48.1736 66.1429 46.9 64.8661 46.9 63.2857ZM47.6125 34C47.6125 32.6739 48.138 31.4021 49.0733 30.4645C50.0086 29.5268 51.2772 29 52.6 29C53.9228 29 55.1914 29.5268 56.1267 30.4645C57.062 31.4021 57.5875 32.6739 57.5875 34C57.5875 35.3261 57.062 36.5979 56.1267 37.5355C55.1914 38.4732 53.9228 39 52.6 39C51.2772 39 50.0086 38.4732 49.0733 37.5355C48.138 36.5979 47.6125 35.3261 47.6125 34ZM58.3 48.0804V55.6429C59.1906 54.6339 59.725 53.3125 59.725 51.8661C59.725 50.4196 59.1906 49.0893 58.3 48.0893V48.0804ZM35.5 29C37.0117 29 38.4615 29.602 39.5305 30.6737C40.5995 31.7453 41.2 33.1988 41.2 34.7143C41.2 36.2298 40.5995 37.6833 39.5305 38.7549C38.4615 39.8265 37.0117 40.4286 35.5 40.4286C33.9883 40.4286 32.5385 39.8265 31.4695 38.7549C30.4005 37.6833 29.8 36.2298 29.8 34.7143C29.8 33.1988 30.4005 31.7453 31.4695 30.6737C32.5385 29.602 33.9883 29 35.5 29ZM28.375 53.2857C28.375 54.7321 28.9094 56.0536 29.8 57.0625V49.5C28.9094 50.5089 28.375 51.8304 28.375 53.2768V53.2857ZM41.2 49.5089V57.0714C42.0906 56.0625 42.625 54.7411 42.625 53.2946C42.625 51.8482 42.0906 50.5179 41.2 49.5179V49.5089ZM46.9 53.2857C46.9 57.2768 44.5666 60.7143 41.2 62.3214V66.1429C41.2 67.7232 39.9264 69 38.35 69H32.65C31.0736 69 29.8 67.7232 29.8 66.1429V62.3214C26.4334 60.7143 24.1 57.2768 24.1 53.2857C24.1 47.7589 28.562 43.2857 34.075 43.2857H36.925C42.438 43.2857 46.9 47.7589 46.9 53.2857Z" fill="#003686"/>
<path d="M28.8571 3.5C28.8571 2.67031 28.2188 2 27.4286 2C26.6384 2 26 2.67031 26 3.5V5V19.25V24.5C26 25.3297 26.6384 26 27.4286 26C28.2188 26 28.8571 25.3297 28.8571 24.5V18.5L31.7277 17.7453C33.5625 17.2625 35.5045 17.4875 37.1964 18.3734C39.1696 19.4094 41.4598 19.5359 43.5223 18.7203L45.0714 18.1109C45.6295 17.8906 46 17.3328 46 16.7047V5.09375C46 4.01562 44.9196 3.3125 44 3.79531L43.5714 4.02031C41.5045 5.10781 39.0714 5.10781 37.0045 4.02031C35.4375 3.19531 33.6384 2.98906 31.9375 3.43438L28.8571 4.25V3.5Z" fill="#003686"/>
</svg>
