<svg width="24" height="24" viewBox="0 0 24 24" fill="none" xmlns="http://www.w3.org/2000/svg">
<path d="M12.0008 22.1998C14.706 22.1998 17.3004 21.1252 19.2133 19.2123C21.1261 17.2994 22.2008 14.705 22.2008 11.9998C22.2008 9.2946 21.1261 6.70019 19.2133 4.78732C17.3004 2.87444 14.706 1.7998 12.0008 1.7998C9.29557 1.7998 6.70116 2.87444 4.78829 4.78732C2.87542 6.70019 1.80078 9.2946 1.80078 11.9998C1.80078 14.705 2.87542 17.2994 4.78829 19.2123C6.70116 21.1252 9.29557 22.1998 12.0008 22.1998ZM16.5031 10.1271L11.4031 15.2271C11.0286 15.6017 10.423 15.6017 10.0524 15.2271L7.50242 12.6771C7.12789 12.3026 7.12789 11.697 7.50242 11.3264C7.87695 10.9559 8.48258 10.9519 8.85313 11.3264L10.7258 13.1991L15.1484 8.77246C15.523 8.39793 16.1286 8.39793 16.4991 8.77246C16.8697 9.14699 16.8737 9.75262 16.4991 10.1232L16.5031 10.1271Z" fill="#003686"/>
</svg>
