<svg width="70" height="70" viewBox="0 0 70 70" fill="none" xmlns="http://www.w3.org/2000/svg">
<path fill-rule="evenodd" clip-rule="evenodd" d="M21.3889 6.48145C17.4565 6.48145 14.2593 9.67864 14.2593 13.6111V56.3889C14.2593 60.3213 17.4565 63.5185 21.3889 63.5185H49.9074C53.8399 63.5185 57.0371 60.3213 57.0371 56.3889V24.3055H42.7778C40.806 24.3055 39.213 22.7125 39.213 20.7407V6.48145H21.3889ZM42.7778 20.7407H57.0371L42.7778 6.48145V20.7407ZM41.0919 30.573C41.7283 31.0427 41.9597 31.8967 41.6494 32.628L37.6049 42.2093H43.4691C44.1739 42.2093 44.7998 42.6523 45.047 43.3142C45.2942 43.9761 45.1048 44.7287 44.5789 45.1984L31.1147 57.155C30.5204 57.6781 29.6526 57.7208 29.0162 57.251C28.3798 56.7813 28.1484 55.9273 28.4587 55.196L32.5032 45.6201H26.6389C25.9394 45.6201 25.3083 45.1717 25.0611 44.5098C24.8139 43.8479 25.0032 43.0953 25.5292 42.6256L38.9933 30.669C39.5877 30.1459 40.4555 30.1032 41.0919 30.573Z" fill="#003686"/>
</svg>
