<svg width="41" height="40" viewBox="0 0 41 40" fill="none" xmlns="http://www.w3.org/2000/svg">
<path d="M9.25 8.125C9.25 7.08789 8.41211 6.25 7.375 6.25C6.33789 6.25 5.5 7.08789 5.5 8.125V27.8125C5.5 30.4023 7.59766 32.5 10.1875 32.5H33.625C34.6621 32.5 35.5 31.6621 35.5 30.625C35.5 29.5879 34.6621 28.75 33.625 28.75H10.1875C9.67188 28.75 9.25 28.3281 9.25 27.8125V8.125ZM33.0742 13.1992C33.8066 12.4668 33.8066 11.2773 33.0742 10.5449C32.3418 9.8125 31.1523 9.8125 30.4199 10.5449L24.25 16.7207L20.8867 13.3574C20.1543 12.625 18.9648 12.625 18.2324 13.3574L11.6699 19.9199C10.9375 20.6523 10.9375 21.8418 11.6699 22.5742C12.4023 23.3066 13.5918 23.3066 14.3242 22.5742L19.5625 17.3418L22.9258 20.7051C23.6582 21.4375 24.8477 21.4375 25.5801 20.7051L33.0801 13.2051L33.0742 13.1992Z" fill="#003686"/>
</svg>
