<svg width="65" height="65" viewBox="0 0 65 65" fill="none" xmlns="http://www.w3.org/2000/svg">
<path d="M59.9813 32.9531C59.9813 34.6406 58.575 35.9625 56.9813 35.9625H53.9813L54.0469 50.9812C54.0469 51.2344 54.0281 51.4875 54 51.7406V53.2594C54 55.3312 52.3219 57.0094 50.25 57.0094H48.75C48.6469 57.0094 48.5438 57.0094 48.4407 57C48.3094 57.0094 48.1782 57.0094 48.0469 57.0094L45 57H42.75C40.6782 57 39 55.3219 39 53.25V51V45C39 43.3406 37.6594 42 36 42H30C28.3406 42 27 43.3406 27 45V51V53.25C27 55.3219 25.3219 57 23.25 57H21H18.0094C17.8688 57 17.7281 56.9906 17.5875 56.9812C17.475 56.9906 17.3625 57 17.25 57H15.75C13.6781 57 12 55.3219 12 53.25V42.75C12 42.6656 12 42.5719 12.0094 42.4875V35.9531H9.0094C7.3219 35.9531 6.0094 34.6406 6.0094 32.9437C6.0094 32.1 6.29065 31.35 6.9469 30.6937L30.975 9.75C31.6313 9.09375 32.3813 9 33.0375 9C33.6938 9 34.4438 9.1875 35.0063 9.65625L58.95 30.7031C59.7 31.3594 60.075 32.1094 59.9813 32.9531Z" fill="#F8F1E5"/>
</svg>
