<svg width="80" height="80" viewBox="0 0 80 80" fill="none" xmlns="http://www.w3.org/2000/svg">
<circle cx="40" cy="40" r="38" fill="#B770C9" stroke="#9355A3" stroke-width="4"/>
<path d="M25.2939 25.2709C25.2939 23.1374 27.0755 21.4064 29.2713 21.4064C31.4672 21.4064 33.2487 23.1374 33.2487 25.2709V38.5145C33.2487 39.9073 33.837 41.0827 34.5165 41.9361C35.3866 43.031 35.9003 44.3916 35.9003 45.881C35.9003 49.4395 32.9338 52.3217 29.2713 52.3217C25.6088 52.3217 22.6423 49.4395 22.6423 45.881C22.6423 44.3916 23.1561 43.031 24.0261 41.9442C24.7056 41.0908 25.2939 39.9153 25.2939 38.5226V25.2709ZM29.2713 16.2539C24.1421 16.2539 19.9907 20.2874 19.9907 25.2709V38.5064C19.9907 38.5145 19.9824 38.5306 19.9741 38.5548C19.9576 38.6031 19.9078 38.6836 19.8333 38.7802C18.2672 40.7446 17.3391 43.2081 17.3391 45.881C17.3391 52.2814 22.6837 57.4742 29.2713 57.4742C35.8589 57.4742 41.2035 52.2814 41.2035 45.881C41.2035 43.2081 40.2755 40.7446 38.7094 38.7882C38.6348 38.6916 38.5851 38.6111 38.5685 38.5628C38.5602 38.5387 38.5519 38.5226 38.5519 38.5145V25.2709C38.5519 20.2874 34.4005 16.2539 29.2713 16.2539ZM29.2713 49.7454C31.4672 49.7454 33.2487 48.0145 33.2487 45.881C33.2487 44.1984 32.1384 42.7653 30.5971 42.234V25.2709C30.5971 24.5624 30.0005 23.9827 29.2713 23.9827C28.5421 23.9827 27.9455 24.5624 27.9455 25.2709V42.234C26.4043 42.7653 25.2939 44.1984 25.2939 45.881C25.2939 48.0145 27.0755 49.7454 29.2713 49.7454Z" fill="white"/>
<path d="M50.424 65.0674C54.3078 65.0674 58.0326 63.5246 60.7789 60.7783C63.5252 58.032 65.068 54.3072 65.068 50.4234C65.068 46.5395 63.5252 42.8147 60.7789 40.0684C58.0326 37.3222 54.3078 35.7793 50.424 35.7793C46.5401 35.7793 42.8154 37.3222 40.0691 40.0684C37.3228 42.8147 35.7799 46.5395 35.7799 50.4234C35.7799 54.3072 37.3228 58.032 40.0691 60.7783C42.8154 63.5246 46.5401 65.0674 50.424 65.0674ZM55.2952 42.1861C55.7325 42.5623 55.8443 43.1929 55.5596 43.7013L52.4986 49.203H56.1189C56.6477 49.203 57.1155 49.5386 57.2782 50.0369C57.4409 50.5352 57.268 51.0844 56.8511 51.3996L47.0884 58.7217C46.6308 59.0674 45.9901 59.0471 45.5528 58.6607C45.1155 58.2742 45.0036 57.6539 45.2884 57.1454L48.3494 51.6437H44.7291C44.2002 51.6437 43.7324 51.3081 43.5697 50.8098C43.407 50.3115 43.5799 49.7623 43.9969 49.4471L53.7596 42.1251C54.2172 41.7793 54.8579 41.7996 55.2952 42.1861Z" fill="white"/>
<path fill-rule="evenodd" clip-rule="evenodd" d="M52.0389 45.9156L47.068 49.6437H49.9646L52.0389 45.9156ZM50.8833 51.203L48.809 54.9312L53.7799 51.203H50.8833ZM47.0884 58.7217L56.8511 51.3996C57.268 51.0844 57.4409 50.5352 57.2782 50.0369C57.1155 49.5386 56.6477 49.203 56.1189 49.203H52.4986L55.5596 43.7013C55.8443 43.1929 55.7325 42.5623 55.2952 42.1861C54.8579 41.7996 54.2172 41.7793 53.7596 42.1251L43.9969 49.4471C43.5799 49.7623 43.407 50.3115 43.5697 50.8098C43.7324 51.3081 44.2002 51.6437 44.7291 51.6437H48.3494L45.2884 57.1454C45.0036 57.6539 45.1155 58.2742 45.5528 58.6607C45.9901 59.0471 46.6308 59.0674 47.0884 58.7217ZM62.1931 62.1925C59.0717 65.3139 54.8383 67.0674 50.424 67.0674C46.0097 67.0674 41.7762 65.3139 38.6548 62.1925C35.5335 59.0711 33.7799 54.8376 33.7799 50.4234C33.7799 46.0091 35.5335 41.7756 38.6548 38.6542C41.7762 35.5329 46.0097 33.7793 50.424 33.7793C54.8383 33.7793 59.0717 35.5329 62.1931 38.6542C65.3145 41.7756 67.068 46.0091 67.068 50.4234C67.068 54.8376 65.3145 59.0711 62.1931 62.1925ZM60.7789 60.7783C58.0326 63.5246 54.3078 65.0674 50.424 65.0674C46.5401 65.0674 42.8154 63.5246 40.0691 60.7783C37.3228 58.032 35.7799 54.3072 35.7799 50.4234C35.7799 46.5395 37.3228 42.8147 40.0691 40.0684C42.8154 37.3222 46.5401 35.7793 50.424 35.7793C54.3078 35.7793 58.0326 37.3222 60.7789 40.0684C63.5252 42.8147 65.068 46.5395 65.068 50.4234C65.068 54.3072 63.5252 58.032 60.7789 60.7783Z" fill="#B770C9"/>
</svg>
