<svg width="24" height="24" viewBox="0 0 24 24" fill="none" xmlns="http://www.w3.org/2000/svg">
<path fill-rule="evenodd" clip-rule="evenodd" d="M15.7947 6.98827L11.2619 12.0691V18.9212C11.2619 19.5492 11.153 20.0909 10.5969 20.3438C10.0537 20.5908 9.38767 20.5685 8.97517 20.2248L8.62978 19.925L6.69158 18.4532C6.69098 18.4528 6.69038 18.4523 6.68978 18.4519C6.26606 18.163 6.00218 17.6908 6.00218 17.1714V12.0691L1.46616 6.98526L1.44657 6.9632C0.971059 6.42771 0.855617 5.65911 1.19572 5.00863C1.52424 4.37166 2.19686 4 2.90148 4H14.3626C15.0683 4 15.7418 4.37274 16.0698 5.01139C16.4028 5.65976 16.2959 6.4249 15.8141 6.96646L15.7947 6.98827Z" fill="#003686"/>
<rect x="17.5" y="4.41309" width="5.49993" height="2.61247" rx="1.30623" fill="#003686"/>
<rect x="14.75" y="11.1494" width="8.2499" height="2.61247" rx="1.30623" fill="#003686"/>
<rect x="14.75" y="17.8877" width="8.2499" height="2.61247" rx="1.30623" fill="#003686"/>
</svg>
