<svg width="24" height="24" viewBox="0 0 24 24" fill="none" xmlns="http://www.w3.org/2000/svg">
<path d="M2.339 10.1538H21.2912C21.9706 10.1538 22.5228 9.63027 22.5228 8.98614C22.5228 8.7545 22.4492 8.52922 22.3153 8.33883L19.7886 4.74056C19.4907 4.31537 18.9921 4.06152 18.4532 4.06152H5.18033C4.64486 4.06152 4.14286 4.31537 3.845 4.74056L1.31492 8.33566C1.18105 8.52922 1.10742 8.7545 1.10742 8.98297C1.10742 9.63027 1.65962 10.1538 2.339 10.1538ZM3.2493 11.1692V16.2461V18.7846C3.2493 19.6255 3.96883 20.3077 4.8557 20.3077H12.3523C13.2391 20.3077 13.9587 19.6255 13.9587 18.7846V16.2461V11.1692H11.8168V16.2461H5.39117V11.1692H3.2493ZM18.2424 11.1692V19.2923C18.2424 19.8539 18.721 20.3077 19.3133 20.3077C19.9057 20.3077 20.3843 19.8539 20.3843 19.2923V11.1692H18.2424Z" fill="#003686"/>
</svg>
