<svg width="50" height="51" viewBox="0 0 50 51" fill="none" xmlns="http://www.w3.org/2000/svg">
<path d="M27.0698 11.5546C26.7608 10.9101 26.1077 10.5 25.3905 10.5C24.6734 10.5 24.0262 10.9101 23.7113 11.5546L19.9622 19.3057L11.5892 20.5477C10.8896 20.6532 10.3065 21.1453 10.0908 21.819C9.87502 22.4928 10.0499 23.2369 10.5514 23.7348L16.627 29.7752L15.1926 38.3113C15.076 39.0144 15.3675 39.7292 15.9448 40.1451C16.522 40.5611 17.2859 40.6138 17.9156 40.2799L25.3964 36.2666L32.8772 40.2799C33.5069 40.6138 34.2707 40.5669 34.848 40.1451C35.4252 39.7233 35.7167 39.0144 35.6001 38.3113L34.1599 29.7752L40.2356 23.7348C40.737 23.2369 40.9177 22.4928 40.6962 21.819C40.4746 21.1453 39.8974 20.6532 39.1977 20.5477L30.8189 19.3057L27.0698 11.5546Z" fill="#9E3352"/>
</svg>
