<svg width="24" height="24" viewBox="0 0 24 24" fill="none" xmlns="http://www.w3.org/2000/svg">
<path d="M6.52578 3C5.57344 3 4.80078 3.75586 4.80078 4.6875V19.3125C4.80078 20.2441 5.57344 21 6.52578 21H9.97578V18.1875C9.97578 17.2559 10.7484 16.5 11.7008 16.5C12.6531 16.5 13.4258 17.2559 13.4258 18.1875V21H16.8758C17.8281 21 18.6008 20.2441 18.6008 19.3125V4.6875C18.6008 3.75586 17.8281 3 16.8758 3H6.52578ZM7.10078 11.4375C7.10078 11.1281 7.35953 10.875 7.67578 10.875H8.82578C9.14203 10.875 9.40078 11.1281 9.40078 11.4375V12.5625C9.40078 12.8719 9.14203 13.125 8.82578 13.125H7.67578C7.35953 13.125 7.10078 12.8719 7.10078 12.5625V11.4375ZM11.1258 10.875H12.2758C12.592 10.875 12.8508 11.1281 12.8508 11.4375V12.5625C12.8508 12.8719 12.592 13.125 12.2758 13.125H11.1258C10.8095 13.125 10.5508 12.8719 10.5508 12.5625V11.4375C10.5508 11.1281 10.8095 10.875 11.1258 10.875ZM14.0008 11.4375C14.0008 11.1281 14.2595 10.875 14.5758 10.875H15.7258C16.042 10.875 16.3008 11.1281 16.3008 11.4375V12.5625C16.3008 12.8719 16.042 13.125 15.7258 13.125H14.5758C14.2595 13.125 14.0008 12.8719 14.0008 12.5625V11.4375ZM7.67578 6.375H8.82578C9.14203 6.375 9.40078 6.62812 9.40078 6.9375V8.0625C9.40078 8.37188 9.14203 8.625 8.82578 8.625H7.67578C7.35953 8.625 7.10078 8.37188 7.10078 8.0625V6.9375C7.10078 6.62812 7.35953 6.375 7.67578 6.375ZM10.5508 6.9375C10.5508 6.62812 10.8095 6.375 11.1258 6.375H12.2758C12.592 6.375 12.8508 6.62812 12.8508 6.9375V8.0625C12.8508 8.37188 12.592 8.625 12.2758 8.625H11.1258C10.8095 8.625 10.5508 8.37188 10.5508 8.0625V6.9375ZM14.5758 6.375H15.7258C16.042 6.375 16.3008 6.62812 16.3008 6.9375V8.0625C16.3008 8.37188 16.042 8.625 15.7258 8.625H14.5758C14.2595 8.625 14.0008 8.37188 14.0008 8.0625V6.9375C14.0008 6.62812 14.2595 6.375 14.5758 6.375Z" fill="#003686"/>
</svg>
