<svg width="24" height="24" viewBox="0 0 24 24" fill="none" xmlns="http://www.w3.org/2000/svg">
<path d="M7.20078 2.3999C5.87703 2.3999 4.80078 3.47615 4.80078 4.7999V19.1999C4.80078 20.5237 5.87703 21.5999 7.20078 21.5999H16.8008C18.1245 21.5999 19.2008 20.5237 19.2008 19.1999V8.3999H14.4008C13.737 8.3999 13.2008 7.86365 13.2008 7.1999V2.3999H7.20078ZM14.4008 2.3999V7.1999H19.2008L14.4008 2.3999ZM7.80078 4.7999H10.2008C10.5308 4.7999 10.8008 5.0699 10.8008 5.3999C10.8008 5.7299 10.5308 5.9999 10.2008 5.9999H7.80078C7.47078 5.9999 7.20078 5.7299 7.20078 5.3999C7.20078 5.0699 7.47078 4.7999 7.80078 4.7999ZM7.80078 7.1999H10.2008C10.5308 7.1999 10.8008 7.4699 10.8008 7.7999C10.8008 8.1299 10.5308 8.3999 10.2008 8.3999H7.80078C7.47078 8.3999 7.20078 8.1299 7.20078 7.7999C7.20078 7.4699 7.47078 7.1999 7.80078 7.1999ZM9.83328 16.7174C9.60453 17.4787 8.90328 17.9999 8.10828 17.9999H7.80078C7.47078 17.9999 7.20078 17.7299 7.20078 17.3999C7.20078 17.0699 7.47078 16.7999 7.80078 16.7999H8.10828C8.37453 16.7999 8.60703 16.6274 8.68203 16.3724L9.24078 14.5162C9.36828 14.0924 9.75828 13.7999 10.2008 13.7999C10.6433 13.7999 11.0333 14.0887 11.1608 14.5162L11.5958 15.9637C11.8733 15.7312 12.2258 15.5999 12.6008 15.5999C13.197 15.5999 13.7408 15.9374 14.007 16.4699L14.172 16.7999H16.2008C16.5308 16.7999 16.8008 17.0699 16.8008 17.3999C16.8008 17.7299 16.5308 17.9999 16.2008 17.9999H13.8008C13.572 17.9999 13.3658 17.8724 13.2645 17.6699L12.9345 17.0062C12.8708 16.8787 12.7433 16.7999 12.6045 16.7999C12.4658 16.7999 12.3345 16.8787 12.2745 17.0062L11.9445 17.6699C11.8358 17.8912 11.5995 18.0224 11.3558 17.9999C11.112 17.9774 10.902 17.8087 10.8345 17.5762L10.2008 15.4874L9.83328 16.7174Z" fill="#003686"/>
</svg>
