<svg width="41" height="40" viewBox="0 0 41 40" fill="none" xmlns="http://www.w3.org/2000/svg">
<path d="M20.75 5C18.6797 5 17 6.67969 17 8.75V21.6016C17 22.9531 16.4453 24.0938 15.8047 24.9219C14.9844 25.9844 14.5 27.3047 14.5 28.75C14.5 32.2031 17.2969 35 20.75 35C24.2031 35 27 32.2031 27 28.75C27 27.3047 26.5156 25.9844 25.6953 24.9297C25.0547 24.1016 24.5 22.9609 24.5 21.6094V8.75C24.5 6.67969 22.8203 5 20.75 5ZM12 8.75C12 3.92188 15.9141 0 20.75 0C25.5859 0 29.5 3.91406 29.5 8.75V21.5938C29.5 21.6016 29.5078 21.6172 29.5156 21.6406C29.5312 21.6875 29.5781 21.7656 29.6484 21.8594C31.125 23.7656 32 26.1562 32 28.7422C32 34.9531 26.9609 39.9922 20.75 39.9922C14.5391 39.9922 9.5 34.9609 9.5 28.75C9.5 26.1562 10.375 23.7656 11.8516 21.8672C11.9219 21.7734 11.9688 21.6953 11.9844 21.6484C11.9922 21.625 12 21.6094 12 21.6016V8.75ZM24.5 28.75C24.5 30.8203 22.8203 32.5 20.75 32.5C18.6797 32.5 17 30.8203 17 28.75C17 27.1172 18.0469 25.7266 19.5 25.2109V16.25C19.5 15.5625 20.0625 15 20.75 15C21.4375 15 22 15.5625 22 16.25V25.2109C23.4531 25.7266 24.5 27.1172 24.5 28.75Z" fill="#003686"/>
</svg>
