<svg width="65" height="65" viewBox="0 0 65 65" fill="none" xmlns="http://www.w3.org/2000/svg">
<path d="M24 21.75C24 19.6781 22.3219 18 20.25 18H15.75C13.6781 18 12 19.6781 12 21.75V26.25C12 28.3219 13.6781 30 15.75 30H20.25C22.3219 30 24 28.3219 24 26.25V21.75ZM24 39.75C24 37.6781 22.3219 36 20.25 36H15.75C13.6781 36 12 37.6781 12 39.75V44.25C12 46.3219 13.6781 48 15.75 48H20.25C22.3219 48 24 46.3219 24 44.25V39.75ZM27 21.75V26.25C27 28.3219 28.6781 30 30.75 30H35.25C37.3219 30 39 28.3219 39 26.25V21.75C39 19.6781 37.3219 18 35.25 18H30.75C28.6781 18 27 19.6781 27 21.75ZM39 39.75C39 37.6781 37.3219 36 35.25 36H30.75C28.6781 36 27 37.6781 27 39.75V44.25C27 46.3219 28.6781 48 30.75 48H35.25C37.3219 48 39 46.3219 39 44.25V39.75ZM42 21.75V26.25C42 28.3219 43.6781 30 45.75 30H50.25C52.3219 30 54 28.3219 54 26.25V21.75C54 19.6781 52.3219 18 50.25 18H45.75C43.6781 18 42 19.6781 42 21.75ZM54 39.75C54 37.6781 52.3219 36 50.25 36H45.75C43.6781 36 42 37.6781 42 39.75V44.25C42 46.3219 43.6781 48 45.75 48H50.25C52.3219 48 54 46.3219 54 44.25V39.75Z" fill="#003686"/>
</svg>
