<svg width="41" height="40" viewBox="0 0 41 40" fill="none" xmlns="http://www.w3.org/2000/svg">
<path d="M28.0545 3.31969L24.6479 6.72626L33.7978 15.8761L37.2044 12.4696C38.9639 10.71 38.9639 7.85943 37.2044 6.09984L34.4312 3.31969C32.6717 1.5601 29.8211 1.5601 28.0615 3.31969H28.0545ZM23.0573 8.31693L6.65085 24.7304C5.91886 25.4624 5.38394 26.3703 5.08833 27.3627L2.59675 35.8299C2.42079 36.4281 2.58267 37.0686 3.01905 37.505C3.45543 37.9414 4.09592 38.1033 4.68714 37.9343L13.1543 35.4428C14.1467 35.1472 15.0546 34.6122 15.7866 33.8802L32.2071 17.4668L23.0573 8.31693Z" fill="#003686"/>
</svg>
