<svg width="80" height="80" viewBox="0 0 80 80" fill="none" xmlns="http://www.w3.org/2000/svg">
<g clip-path="url(#clip0_5778_78853)">
<path d="M56.4844 0.189379C57.2657 0.517504 57.8282 1.22063 57.9844 2.04875L61.0938 18.9081L77.9532 22.0019C78.7813 22.1581 79.4844 22.7206 79.8126 23.5019C80.1407 24.2831 80.0469 25.1738 79.5626 25.8769L69.8282 40.0019L79.5626 54.1113C80.0469 54.8144 80.1407 55.705 79.8126 56.4863C79.4844 57.2675 78.7813 57.83 77.9532 57.9863L61.0938 61.0956L57.9844 77.955C57.8282 78.7831 57.2657 79.4863 56.4844 79.8144C55.7032 80.1425 54.8125 80.0488 54.1094 79.5644L40 69.83L25.8907 79.5644C25.1875 80.0488 24.2969 80.1425 23.5157 79.8144C22.7344 79.4863 22.1719 78.7831 22.0157 77.955L18.9063 61.0956L2.04692 57.9863C1.2188 57.83 0.515673 57.2675 0.187548 56.4863C-0.140577 55.705 -0.0468273 54.8144 0.437548 54.1113L10.1719 40.0019L0.437548 25.8925C-0.0468273 25.1894 -0.140577 24.2988 0.187548 23.5175C0.515673 22.7363 1.2188 22.1738 2.04692 22.0175L18.9063 18.9081L22.0157 2.04875C22.1719 1.22063 22.7344 0.517504 23.5157 0.189379C24.2969 -0.138746 25.1875 -0.0449962 25.8907 0.439379L40 10.1738L54.1094 0.439379C54.8125 -0.0449962 55.7032 -0.138746 56.4844 0.189379ZM25 40.0019C25 36.0236 26.5804 32.2083 29.3934 29.3953C32.2065 26.5822 36.0218 25.0019 40 25.0019C43.9783 25.0019 47.7936 26.5822 50.6067 29.3953C53.4197 32.2083 55.0001 36.0236 55.0001 40.0019C55.0001 43.9801 53.4197 47.7954 50.6067 50.6085C47.7936 53.4215 43.9783 55.0019 40 55.0019C36.0218 55.0019 32.2065 53.4215 29.3934 50.6085C26.5804 47.7954 25 43.9801 25 40.0019ZM60.0001 40.0019C60.0001 34.6976 57.8929 29.6105 54.1422 25.8597C50.3915 22.109 45.3044 20.0019 40 20.0019C34.6957 20.0019 29.6086 22.109 25.8579 25.8597C22.1072 29.6105 20 34.6976 20 40.0019C20 45.3062 22.1072 50.3933 25.8579 54.144C29.6086 57.8947 34.6957 60.0019 40 60.0019C45.3044 60.0019 50.3915 57.8947 54.1422 54.144C57.8929 50.3933 60.0001 45.3062 60.0001 40.0019Z" fill="#EFC42D"/>
</g>
<defs>
<clipPath id="clip0_5778_78853">
<rect width="80" height="80" fill="white"/>
</clipPath>
</defs>
</svg>
