<svg width="48" height="48" viewBox="0 0 48 48" fill="none" xmlns="http://www.w3.org/2000/svg">
<g clip-path="url(#clip0_103_5393)">
<path d="M45 3.00034C45 1.79096 44.2688 0.694086 43.1438 0.225336C42.0188 -0.243414 40.7344 0.0190862 39.8719 0.872211L35.7844 4.96909C31.2844 9.46909 25.1812 12.0003 18.8156 12.0003H18H15H6C2.69063 12.0003 0 14.691 0 18.0003V27.0003C0 30.3097 2.69063 33.0003 6 33.0003V45.0003C6 46.6597 7.34062 48.0003 9 48.0003H15C16.6594 48.0003 18 46.6597 18 45.0003V33.0003H18.8156C25.1812 33.0003 31.2844 35.5316 35.7844 40.0316L39.8719 44.1191C40.7344 44.9816 42.0188 45.2347 43.1438 44.766C44.2688 44.2972 45 43.2097 45 41.991V28.1535C46.7438 27.3285 48 25.1066 48 22.491C48 19.8753 46.7438 17.6535 45 16.8285V3.00034ZM39 10.191V22.5003V34.8097C33.4875 29.7941 26.2969 27.0003 18.8156 27.0003H18V18.0003H18.8156C26.2969 18.0003 33.4875 15.2066 39 10.191Z" fill="#6F5F5F"/>
</g>
<defs>
<clipPath id="clip0_103_5393">
<rect width="48" height="48" fill="white"/>
</clipPath>
</defs>
</svg>
