<svg width="50" height="50" viewBox="0 0 50 50" fill="none" xmlns="http://www.w3.org/2000/svg">
<rect width="50" height="50" rx="5" fill="white"/>
<path d="M8 22.875C8 26.3945 10.8555 29.25 14.375 29.25H17.5094L27.2578 21.4473C28.4266 20.5109 30.0867 20.5176 31.2555 21.4605C32.4242 22.4035 32.7695 24.0238 32.1055 25.3652L30.1598 29.25H31.375H35.625C39.1445 29.25 42 26.3945 42 22.875C42 19.3555 39.1445 16.5 35.625 16.5C35.5918 16.5 35.552 16.5 35.5187 16.5C35.5918 16.1547 35.625 15.8027 35.625 15.4375C35.625 12.5023 33.2477 10.125 30.3125 10.125C28.6988 10.125 27.2512 10.8488 26.275 11.9844C25.0332 9.61367 22.5496 8 19.6875 8C15.577 8 12.25 11.327 12.25 15.4375C12.25 15.909 12.2965 16.3738 12.3762 16.8188C9.83281 17.6555 8 20.0527 8 22.875ZM29.9207 23.1141C29.5355 22.802 28.9777 22.802 28.5859 23.1074L23.2734 27.3574L17.9609 31.6074C17.609 31.8863 17.4695 32.3645 17.6223 32.7895C17.775 33.2145 18.1734 33.5 18.625 33.5H23.2801L19.8004 40.4594C19.5746 40.9043 19.6941 41.4488 20.0859 41.7609C20.4777 42.073 21.0289 42.073 21.4207 41.7676L32.0457 33.2676C32.3977 32.9887 32.5371 32.5105 32.3844 32.0856C32.2316 31.6606 31.8332 31.375 31.3816 31.375H26.7266L28.4664 27.8953L30.2062 24.4156C30.432 23.9707 30.3125 23.4262 29.9273 23.1141H29.9207Z" fill="#DDC88F"/>
</svg>
