<svg width="40" height="40" viewBox="0 0 40 40" fill="none" xmlns="http://www.w3.org/2000/svg">
<path d="M12 4C9.79375 4 8 5.79375 8 8V32C8 34.2062 9.79375 36 12 36H28C30.2062 36 32 34.2062 32 32V14H24C22.8938 14 22 13.1062 22 12V4H12ZM24 4V12H32L24 4ZM13 8H17C17.55 8 18 8.45 18 9C18 9.55 17.55 10 17 10H13C12.45 10 12 9.55 12 9C12 8.45 12.45 8 13 8ZM13 12H17C17.55 12 18 12.45 18 13C18 13.55 17.55 14 17 14H13C12.45 14 12 13.55 12 13C12 12.45 12.45 12 13 12ZM16.3875 27.8625C16.0062 29.1312 14.8375 30 13.5125 30H13C12.45 30 12 29.55 12 29C12 28.45 12.45 28 13 28H13.5125C13.9562 28 14.3438 27.7125 14.4688 27.2875L15.4 24.1938C15.6125 23.4875 16.2625 23 17 23C17.7375 23 18.3875 23.4813 18.6 24.1938L19.325 26.6063C19.7875 26.2188 20.375 26 21 26C21.9937 26 22.9 26.5625 23.3438 27.45L23.6187 28H27C27.55 28 28 28.45 28 29C28 29.55 27.55 30 27 30H23C22.6187 30 22.275 29.7875 22.1062 29.45L21.5562 28.3438C21.45 28.1313 21.2375 28 21.0063 28C20.775 28 20.5563 28.1313 20.4563 28.3438L19.9062 29.45C19.725 29.8188 19.3313 30.0375 18.925 30C18.5188 29.9625 18.1687 29.6813 18.0562 29.2938L17 25.8125L16.3875 27.8625Z" fill="#fff"/>
</svg>
