<svg width="40" height="40" viewBox="0 0 40 40" fill="none" xmlns="http://www.w3.org/2000/svg">
<path d="M33.1219 6.87806C33.1219 6.12228 32.665 5.43681 31.9619 5.14387C31.2589 4.85093 30.4562 5.01498 29.9172 5.54812L27.3628 8.10839C24.5506 10.9206 20.7366 12.5024 16.7585 12.5024H16.2488H14.374H8.74959C6.68146 12.5024 5 14.1839 5 16.252V21.8764C5 23.9446 6.68146 25.626 8.74959 25.626V33.1252C8.74959 34.1622 9.58739 35 10.6244 35H14.374C15.411 35 16.2488 34.1622 16.2488 33.1252V25.626H16.7585C20.7366 25.626 24.5506 27.2079 27.3628 30.0201L29.9172 32.5745C30.4562 33.1135 31.2589 33.2717 31.9619 32.9787C32.665 32.6858 33.1219 32.0062 33.1219 31.2445V22.597C34.2117 22.0815 34.9967 20.693 34.9967 19.0584C34.9967 17.4238 34.2117 16.0353 33.1219 15.5197V6.87806ZM29.3724 11.3717V19.0642V26.7568C25.9274 23.6223 21.4338 21.8764 16.7585 21.8764H16.2488V16.252H16.7585C21.4338 16.252 25.9274 14.5061 29.3724 11.3717Z" fill="#fff"/>
</svg>
