<svg width="67" height="66" viewBox="0 0 67 66" fill="none" xmlns="http://www.w3.org/2000/svg">
<path d="M19.4169 13.2002C19.4169 11.6356 18.1529 10.3716 16.5883 10.3716C15.0238 10.3716 13.7598 11.6356 13.7598 13.2002V16.0287V42.9002V52.8002C13.7598 54.3647 15.0238 55.6287 16.5883 55.6287C18.1529 55.6287 19.4169 54.3647 19.4169 52.8002V41.4859L25.1006 40.0627C28.7335 39.1523 32.5786 39.5766 35.9287 41.2472C39.8357 43.2007 44.3702 43.4394 48.454 41.9013L51.5212 40.7522C52.6261 40.3368 53.3598 39.2849 53.3598 38.1004V16.2055C53.3598 14.1725 51.2207 12.8466 49.3998 13.757L48.5512 14.1813C44.4586 16.232 39.6412 16.232 35.5486 14.1813C32.446 12.6256 28.8838 12.2367 25.516 13.0764L19.4169 14.6144V13.2002Z" fill="#003686"/>
</svg>
