<svg width="41" height="40" viewBox="0 0 41 40" fill="none" xmlns="http://www.w3.org/2000/svg">
<g clip-path="url(#clip0_5785_17996)">
<g clip-path="url(#clip1_5785_17996)">
<path d="M7.99918 8.61085C7.99918 6.51489 9.67869 4.81439 11.7488 4.81439C13.8189 4.81439 15.4984 6.51489 15.4984 8.61085V21.6216C15.4984 22.99 16.053 24.1447 16.6936 24.9831C17.5138 26.0588 17.9981 27.3954 17.9981 28.8587C17.9981 32.3546 15.2015 35.1861 11.7488 35.1861C8.29603 35.1861 5.49946 32.3546 5.49946 28.8587C5.49946 27.3954 5.98378 26.0588 6.804 24.991C7.44456 24.1526 7.99918 22.9979 7.99918 21.6296V8.61085ZM11.7488 -0.247559C6.91336 -0.247559 2.99973 3.715 2.99973 8.61085V21.6137C2.99973 21.6216 2.99192 21.6375 2.9841 21.6612C2.96848 21.7086 2.92161 21.7877 2.85131 21.8827C1.3749 23.8125 0.5 26.2328 0.5 28.8587C0.5 35.1465 5.53851 40.248 11.7488 40.248C17.959 40.248 22.9976 35.1465 22.9976 28.8587C22.9976 26.2328 22.1226 23.8125 20.6462 21.8906C20.5759 21.7957 20.5291 21.7166 20.5135 21.6691C20.5056 21.6454 20.4978 21.6296 20.4978 21.6216V8.61085C20.4978 3.715 16.5842 -0.247559 11.7488 -0.247559ZM11.7488 32.6551C13.8189 32.6551 15.4984 30.9546 15.4984 28.8587C15.4984 27.2056 14.4516 25.7978 12.9986 25.2757V8.61085C12.9986 7.91483 12.4362 7.34537 11.7488 7.34537C11.0614 7.34537 10.4989 7.91483 10.4989 8.61085V25.2757C9.04595 25.7978 7.99918 27.2056 7.99918 28.8587C7.99918 30.9546 9.67869 32.6551 11.7488 32.6551ZM35.4962 12.4073H37.9959C39.0036 12.4073 39.9176 11.7904 40.3082 10.8413C40.6988 9.89216 40.48 8.80859 39.7692 8.08093L34.7697 3.01898C33.7933 2.03032 32.2075 2.03032 31.231 3.01898L26.2316 8.08093C25.5129 8.80859 25.302 9.89216 25.6926 10.8413C26.0832 11.7904 26.9893 12.4073 28.0048 12.4073H30.5046V35.1861C30.5046 36.586 31.6216 37.7171 33.0043 37.7171C34.3869 37.7171 35.504 36.586 35.504 35.1861V12.4073H35.4962Z" fill="#003686"/>
</g>
</g>
<defs>
<clipPath id="clip0_5785_17996">
<rect width="40" height="40" fill="white" transform="translate(0.5)"/>
</clipPath>
<clipPath id="clip1_5785_17996">
<rect width="40" height="40" fill="white" transform="translate(0.5)"/>
</clipPath>
</defs>
</svg>
