<svg width="32" height="31" viewBox="0 0 32 31" fill="none" xmlns="http://www.w3.org/2000/svg">
<path fill-rule="evenodd" clip-rule="evenodd" d="M12.5746 5.83951V4.29451C12.5746 3.43993 13.2638 2.74951 14.1168 2.74951C14.9699 2.74951 15.659 3.43993 15.659 4.29451V5.83951H20.5762V4.29451C20.5762 3.43993 21.2653 2.74951 22.1184 2.74951C22.9714 2.74951 23.6605 3.43993 23.6605 4.29451V5.83951H26.2867C27.5639 5.83951 28.6 6.87756 28.6 8.15702V10.4745H7.94807V8.15702C7.94807 6.87756 8.98423 5.83951 10.2614 5.83951H12.5746ZM7.94807 12.0195H28.6V21.0842C28.6 22.3636 27.5639 23.4017 26.2867 23.4017H10.2614C8.98423 23.4017 7.94807 22.3636 7.94807 21.0842V12.0195ZM5.28802 11.8241C5.28802 11.2192 4.79769 10.7289 4.19284 10.7289C3.58798 10.7289 3.09766 11.2192 3.09766 11.8241V22.1502C3.09766 25.5201 5.82949 28.252 9.19937 28.252H22.498C23.1028 28.252 23.5932 27.7616 23.5932 27.1568C23.5932 26.5519 23.1028 26.0616 22.498 26.0616H9.19937C7.03919 26.0616 5.28802 24.3104 5.28802 22.1502V11.8241Z" fill="#003686"/>
</svg>
