<svg width="80" height="80" viewBox="0 0 80 80" fill="none" xmlns="http://www.w3.org/2000/svg">
<circle cx="40" cy="40" r="38" fill="#6E7BBE" stroke="#4C599A" stroke-width="4"/>
<path d="M24.3126 16.2539C25.4269 16.2539 26.3272 17.1541 26.3272 18.2684V20.283H34.3853V18.2684C34.3853 17.1541 35.2855 16.2539 36.3998 16.2539C37.5141 16.2539 38.4143 17.1541 38.4143 18.2684V20.283H41.4361C43.1044 20.283 44.4579 21.6365 44.4579 23.3048V26.3265H16.2545V23.3048C16.2545 21.6365 17.608 20.283 19.2763 20.283H22.2981V18.2684C22.2981 17.1541 23.1983 16.2539 24.3126 16.2539ZM16.2545 28.3411H44.4579V45.4646C44.4579 47.1328 43.1044 48.4864 41.4361 48.4864H19.2763C17.608 48.4864 16.2545 47.1328 16.2545 45.4646V28.3411ZM21.2908 32.3701C20.7368 32.3701 20.2836 32.8234 20.2836 33.3774V39.421C20.2836 39.975 20.7368 40.4282 21.2908 40.4282H27.3344C27.8884 40.4282 28.3417 39.975 28.3417 39.421V33.3774C28.3417 32.8234 27.8884 32.3701 27.3344 32.3701H21.2908Z" fill="white"/>
<path d="M49.0304 39.8165L47.7904 37.2849C47.5855 36.8453 46.9445 36.8294 46.7185 37.2849L45.4785 39.8165L42.7306 40.2137C42.2419 40.2878 42.0318 40.8969 42.3943 41.2624L44.3909 43.222L43.918 45.9813C43.8445 46.4738 44.3489 46.8552 44.8007 46.6274L47.265 45.314L49.7135 46.6062C50.1653 46.834 50.675 46.4526 50.5962 45.9601L50.1233 43.2008L52.1199 41.2624C52.4772 40.9022 52.2723 40.2931 51.7836 40.2137L49.0357 39.8165H49.0304ZM43.8918 50.5095C42.9618 50.5095 42.2104 51.2669 42.2104 52.2043V62.3731C42.2104 63.3105 42.9618 64.0679 43.8918 64.0679H50.6172C51.5472 64.0679 52.2985 63.3105 52.2985 62.3731V52.2043C52.2985 51.2669 51.5472 50.5095 50.6172 50.5095H43.8918ZM32.1223 53.8991C31.1923 53.8991 30.4409 54.6565 30.4409 55.5939V62.3731C30.4409 63.3105 31.1923 64.0679 32.1223 64.0679H38.8477C39.7777 64.0679 40.5291 63.3105 40.5291 62.3731V55.5939C40.5291 54.6565 39.7777 53.8991 38.8477 53.8991H32.1223ZM53.9799 58.9835V62.3731C53.9799 63.3105 54.7313 64.0679 55.6613 64.0679H62.3867C63.3167 64.0679 64.068 63.3105 64.068 62.3731V58.9835C64.068 58.0461 63.3167 57.2887 62.3867 57.2887H55.6613C54.7313 57.2887 53.9799 58.0461 53.9799 58.9835Z" fill="white"/>
<path fill-rule="evenodd" clip-rule="evenodd" d="M46.7185 37.2849C46.9445 36.8294 47.5855 36.8453 47.7904 37.2849L49.0304 39.8164H49.0357L51.7836 40.2137C52.2723 40.2931 52.4772 40.9022 52.1199 41.2623L50.1233 43.2007L50.5962 45.9601C50.675 46.4526 50.1653 46.8339 49.7135 46.6062L47.265 45.3139L44.8007 46.6274C44.3489 46.8551 43.8445 46.4738 43.918 45.9812L44.3909 43.2219L42.3943 41.2623C42.0318 40.8969 42.2419 40.2878 42.7306 40.2137L45.4785 39.8164L46.7185 37.2849ZM44.147 37.9881L42.4445 38.2342L42.4305 38.2363C40.3183 38.5568 39.4635 41.1478 40.9745 42.6709L40.9839 42.6804L42.2428 43.916L41.9431 45.6646L41.94 45.6858C41.75 46.9581 42.5049 48.0941 43.5771 48.5227C41.6924 48.6819 40.2332 50.2575 40.2107 52.1596C39.7901 51.9916 39.3305 51.8991 38.8477 51.8991H32.1223C30.0727 51.8991 28.4409 53.5669 28.4409 55.5939V62.373C28.4409 64.4 30.0727 66.0678 32.1223 66.0678H38.8477C39.8283 66.0678 40.7133 65.686 41.3697 65.0657C42.0261 65.686 42.9111 66.0678 43.8918 66.0678H50.6172C51.5978 66.0678 52.4828 65.686 53.1392 65.0657C53.7956 65.686 54.6806 66.0678 55.6613 66.0678H62.3867C64.4362 66.0678 66.068 64.4 66.068 62.373V58.9834C66.068 56.9565 64.4362 55.2887 62.3867 55.2887H55.6613C55.1786 55.2887 54.719 55.3812 54.2985 55.5491V52.2043C54.2985 50.2665 52.8072 48.657 50.8853 48.5191C51.9881 48.1093 52.7823 46.9644 52.571 45.644L52.5693 45.6331L52.2726 43.9016L53.5265 42.6842L53.5397 42.6709C55.0487 41.1499 54.1905 38.5787 52.1046 38.2396L52.0872 38.2368L50.3615 37.9873L49.5924 36.4171C48.661 34.4648 45.8862 34.462 44.9269 36.3961L44.147 37.9881ZM49.0794 48.5095C48.9904 48.4757 48.9016 48.4367 48.8133 48.3922L48.7965 48.3837L47.2696 47.5778L45.7213 48.4031L45.7009 48.4134C45.6305 48.4488 45.56 48.4808 45.4894 48.5095H49.0794ZM54.2985 57.9893C54.098 58.2684 53.9799 58.6118 53.9799 58.9834V62.373C53.9799 62.6804 54.0607 62.9684 54.202 63.2166C54.4918 63.7257 55.0362 64.0678 55.6613 64.0678H62.3867C63.3167 64.0678 64.068 63.3105 64.068 62.373V58.9834C64.068 58.046 63.3167 57.2887 62.3867 57.2887H55.6613C55.1 57.2887 54.6038 57.5645 54.2985 57.9893ZM52.2985 52.2043C52.2985 51.2669 51.5472 50.5095 50.6172 50.5095H43.8918C42.9618 50.5095 42.2104 51.2669 42.2104 52.2043V62.373C42.2104 62.6804 42.2912 62.9684 42.4325 63.2166C42.7223 63.7257 43.2667 64.0678 43.8918 64.0678H50.6172C51.2423 64.0678 51.7867 63.7257 52.0764 63.2166C52.2178 62.9684 52.2985 62.6804 52.2985 62.373V52.2043ZM40.3069 63.2166C40.4483 62.9684 40.5291 62.6804 40.5291 62.373V55.5939C40.5291 55.2222 40.4109 54.8788 40.2104 54.5997C39.9052 54.1749 39.409 53.8991 38.8477 53.8991H32.1223C31.1923 53.8991 30.4409 54.6564 30.4409 55.5939V62.373C30.4409 63.3105 31.1923 64.0678 32.1223 64.0678H38.8477C39.4728 64.0678 40.0172 63.7257 40.3069 63.2166Z" fill="#6E7BBE"/>
</svg>
