<svg width="66" height="67" viewBox="0 0 66 67" fill="none" xmlns="http://www.w3.org/2000/svg">
<path fill-rule="evenodd" clip-rule="evenodd" d="M38.6534 29.5547C39.7625 30.3872 39.9868 31.9612 39.1542 33.0703L25.0181 51.9031C24.2057 52.9853 22.6819 53.2292 21.5723 52.4545L15.9709 48.5436L7.21207 58.3463C6.28805 59.3805 4.70066 59.4697 3.66653 58.5457C2.6324 57.6217 2.54314 56.0343 3.46715 55.0002L13.7099 43.5368C14.5566 42.5891 15.9779 42.4235 17.0199 43.151L22.4581 46.9479L35.1378 30.0555C35.9703 28.9464 37.5443 28.7222 38.6534 29.5547Z" fill="#003686"/>
<path fill-rule="evenodd" clip-rule="evenodd" d="M32.9856 26.7002C30.4758 28.9114 30.2337 32.7387 32.445 35.2485C34.6563 37.7583 38.4835 38.0003 40.9934 35.789C43.5032 33.5778 43.7452 29.7505 41.5339 27.2407C39.3226 24.7309 35.4954 24.4889 32.9856 26.7002ZM23.6526 42.995C17.1631 35.6293 17.8733 24.3974 25.239 17.9078C32.6048 11.4182 43.8367 12.1284 50.3263 19.4942C56.8159 26.8599 56.1056 38.0918 48.7399 44.5814C41.3742 51.071 30.1422 50.3608 23.6526 42.995Z" fill="#F5F5F5"/>
<path fill-rule="evenodd" clip-rule="evenodd" d="M30.7725 24.1881C26.8752 27.6217 26.4994 33.5646 29.9331 37.4618C33.3668 41.359 39.3096 41.7348 43.2068 38.3012C47.1041 34.8675 47.4799 28.9247 44.0462 25.0274C40.6125 21.1302 34.6697 20.7544 30.7725 24.1881ZM26.1649 40.7817C20.8977 34.8034 21.4742 25.6871 27.4525 20.4199C33.4309 15.1527 42.5472 15.7292 47.8144 21.7075C53.0816 27.6858 52.5051 36.8021 46.5268 42.0693C40.5485 47.3365 31.4322 46.7601 26.1649 40.7817Z" fill="#003686"/>
<path fill-rule="evenodd" clip-rule="evenodd" d="M55.1565 55.6621L42.9827 41.8447L46.7509 38.5248L58.9247 52.3421L55.1565 55.6621Z" fill="#003686"/>
<path fill-rule="evenodd" clip-rule="evenodd" d="M47.9075 43.3214C49.3244 42.1333 51.4361 42.3188 52.6242 43.7357L61.0203 53.7485C62.2083 55.1654 62.0229 57.2771 60.606 58.4652C59.1891 59.6533 57.0774 59.4678 55.8893 58.0509L47.4933 48.0381C46.3052 46.6213 46.4906 44.5095 47.9075 43.3214Z" fill="#003686"/>
</svg>
