<svg width="40" height="40" viewBox="0 0 40 40" fill="none" xmlns="http://www.w3.org/2000/svg">
<path d="M20.0527 19.1875V7.84297C20.0527 7.38594 20.4082 7 20.8652 7C27.1469 7 32.2402 12.0934 32.2402 18.375C32.2402 18.832 31.8543 19.1875 31.3973 19.1875H20.0527ZM6.24023 20.8125C6.24023 14.6527 10.8156 9.5543 16.752 8.7418C17.2191 8.67578 17.6152 9.05156 17.6152 9.52383V21.625L25.5625 29.5723C25.9027 29.9125 25.8773 30.4711 25.4863 30.7453C23.4957 32.1672 21.0582 33 18.4277 33C11.6992 33 6.24023 27.5461 6.24023 20.8125ZM32.9715 21.625C33.4437 21.625 33.8145 22.0211 33.7535 22.4883C33.3625 25.327 31.9965 27.8508 30.0008 29.7145C29.6961 29.9988 29.2187 29.9785 28.9242 29.6789L20.8652 21.625H32.9715Z" fill="#003686"/>
</svg>
