<svg width="41" height="40" viewBox="0 0 41 40" fill="none" xmlns="http://www.w3.org/2000/svg">
<g clip-path="url(#clip0_5785_18013)">
<path d="M8.00179 8.60661C8.00179 6.50992 9.68188 4.80883 11.7527 4.80883C13.8235 4.80883 15.5036 6.50992 15.5036 8.60661V21.6219C15.5036 22.9907 16.0584 24.1459 16.6992 24.9845C17.5197 26.0606 18.0042 27.3977 18.0042 28.8614C18.0042 32.3586 15.2066 35.1911 11.7527 35.1911C8.29874 35.1911 5.50119 32.3586 5.50119 28.8614C5.50119 27.3977 5.98568 26.0606 6.80619 24.9925C7.44697 24.1538 8.00179 22.9986 8.00179 21.6298V8.60661ZM11.7527 -0.254883C6.91559 -0.254883 3.0006 3.70905 3.0006 8.60661V21.614C3.0006 21.6219 2.99278 21.6377 2.98497 21.6615C2.96934 21.709 2.92245 21.7881 2.85212 21.883C1.37521 23.8136 0.5 26.2346 0.5 28.8614C0.5 35.1515 5.54027 40.2548 11.7527 40.2548C17.9651 40.2548 23.0054 35.1515 23.0054 28.8614C23.0054 26.2346 22.1302 23.8136 20.6532 21.8909C20.5829 21.796 20.536 21.7169 20.5204 21.6694C20.5126 21.6457 20.5048 21.6298 20.5048 21.6219V8.60661C20.5048 3.70905 16.5898 -0.254883 11.7527 -0.254883ZM11.7527 32.6592C13.8235 32.6592 15.5036 30.9581 15.5036 28.8614C15.5036 27.2078 14.4565 25.7995 13.003 25.2773V21.2659C13.003 20.5696 12.4404 20 11.7527 20C11.065 20 10.5024 20.5696 10.5024 21.2659V25.2773C9.04892 25.7995 8.00179 27.2078 8.00179 28.8614C8.00179 30.9581 9.68188 32.6592 11.7527 32.6592ZM38.009 27.5955H35.5084V4.80883C35.5084 3.40839 34.3909 2.27697 33.0078 2.27697C31.6246 2.27697 30.5072 3.40839 30.5072 4.80883V27.5955H28.0066C26.9985 27.5955 26.0842 28.2127 25.6935 29.1621C25.3028 30.1115 25.5216 31.1955 26.2327 31.9234L31.2339 36.9871C31.7028 37.4618 32.3357 37.7308 32.9999 37.7308C33.6642 37.7308 34.2971 37.4618 34.766 36.9871L39.7672 31.9234C40.4861 31.1955 40.6971 30.1115 40.3064 29.1621C39.9157 28.2127 39.0092 27.5955 37.9933 27.5955H38.009Z" fill="#003686"/>
</g>
<defs>
<clipPath id="clip0_5785_18013">
<rect width="40" height="40" fill="white" transform="translate(0.5)"/>
</clipPath>
</defs>
</svg>
