<svg width="48" height="48" viewBox="0 0 48 48" fill="none" xmlns="http://www.w3.org/2000/svg">
<path d="M16 2.66699C17.475 2.66699 18.6667 3.85866 18.6667 5.33366V8.00033H29.3334V5.33366C29.3334 3.85866 30.525 2.66699 32 2.66699C33.475 2.66699 34.6667 3.85866 34.6667 5.33366V8.00033H38.6667C40.875 8.00033 42.6667 9.79199 42.6667 12.0003V16.0003H5.33337V12.0003C5.33337 9.79199 7.12504 8.00033 9.33337 8.00033H13.3334V5.33366C13.3334 3.85866 14.525 2.66699 16 2.66699ZM5.33337 18.667H42.6667V41.3337C42.6667 43.542 40.875 45.3337 38.6667 45.3337H9.33337C7.12504 45.3337 5.33337 43.542 5.33337 41.3337V18.667ZM12 24.0003C11.2667 24.0003 10.6667 24.6003 10.6667 25.3337V33.3337C10.6667 34.067 11.2667 34.667 12 34.667H20C20.7334 34.667 21.3334 34.067 21.3334 33.3337V25.3337C21.3334 24.6003 20.7334 24.0003 20 24.0003H12Z" fill="#003686"/>
</svg>
