<svg width="67" height="36" viewBox="0 0 67 36" fill="none" xmlns="http://www.w3.org/2000/svg">
<rect width="67" height="36" rx="18" fill="#4D8CCA"/>
<path d="M10.4297 28V11.698H13.7517L18.4817 20.388L20.1097 23.908H20.2197C20.0657 22.214 19.8017 20.058 19.8017 18.21V11.698H22.8817V28H19.5817L14.8737 19.288L13.2237 15.79H13.1137C13.2677 17.55 13.5097 19.596 13.5097 21.466V28H10.4297ZM26.9083 28V11.698H36.8963V14.426H30.1643V18.188H35.8843V20.916H30.1643V25.272H37.1383V28H26.9083ZM41.9834 28L38.8594 11.698H42.1594L43.4574 19.662C43.6994 21.378 43.9634 23.094 44.2054 24.854H44.2934C44.6234 23.094 44.9754 21.356 45.3274 19.662L47.2194 11.698H50.0134L51.8834 19.662C52.2354 21.334 52.5654 23.094 52.9174 24.854H53.0274C53.2694 23.094 53.5114 21.356 53.7534 19.662L55.0514 11.698H58.1314L55.1174 28H51.0694L49.2434 19.948C48.9794 18.672 48.7374 17.418 48.5394 16.164H48.4514C48.2314 17.418 48.0114 18.672 47.7474 19.948L45.9654 28H41.9834Z" fill="white"/>
</svg>
