<svg width="32" height="32" viewBox="0 0 32 32" fill="none" xmlns="http://www.w3.org/2000/svg">
<path d="M13.6107 2.83591C14.2995 3.14138 14.7487 3.83018 14.7487 4.58487V8.4182H21.457C27.2789 8.4182 31.9987 13.138 31.9987 18.9599C31.9987 25.7461 27.1172 28.7768 25.9971 29.3877C25.8474 29.4716 25.6797 29.5015 25.512 29.5015C24.8591 29.5015 24.332 28.9685 24.332 28.3216C24.332 27.8724 24.5896 27.4591 24.919 27.1536C25.482 26.6265 26.2487 25.5724 26.2487 23.7575C26.2487 20.583 23.6732 18.0075 20.4987 18.0075H14.7487V21.8409C14.7487 22.5955 14.3055 23.2843 13.6107 23.5898C12.9159 23.8953 12.1133 23.7695 11.5503 23.2664L1.96693 14.6414C1.56563 14.27 1.33203 13.7549 1.33203 13.2099C1.33203 12.6648 1.56563 12.1497 1.96693 11.7843L11.5503 3.15934C12.1133 2.65023 12.9219 2.52445 13.6107 2.83591Z" fill="#003686"/>
</svg>
