<svg width="40" height="40" viewBox="0 0 40 40" fill="none" xmlns="http://www.w3.org/2000/svg">
<g clip-path="url(#clip0_6068_149706)">
<path d="M10 2.22266C8.15974 2.22266 6.66669 3.71571 6.66669 5.55599V34.4449C6.66669 36.2852 8.15974 37.7782 10 37.7782H16.6667V32.2227C16.6667 30.3824 18.1597 28.8893 20 28.8893C21.8403 28.8893 23.3334 30.3824 23.3334 32.2227V37.7782H30C31.8403 37.7782 33.3334 36.2852 33.3334 34.4449V5.55599C33.3334 3.71571 31.8403 2.22266 30 2.22266H10ZM11.1111 18.8893C11.1111 18.2782 11.6111 17.7782 12.2222 17.7782H14.4445C15.0556 17.7782 15.5556 18.2782 15.5556 18.8893V21.1115C15.5556 21.7227 15.0556 22.2227 14.4445 22.2227H12.2222C11.6111 22.2227 11.1111 21.7227 11.1111 21.1115V18.8893ZM18.8889 17.7782H21.1111C21.7222 17.7782 22.2222 18.2782 22.2222 18.8893V21.1115C22.2222 21.7227 21.7222 22.2227 21.1111 22.2227H18.8889C18.2778 22.2227 17.7778 21.7227 17.7778 21.1115V18.8893C17.7778 18.2782 18.2778 17.7782 18.8889 17.7782ZM24.4445 18.8893C24.4445 18.2782 24.9445 17.7782 25.5556 17.7782H27.7778C28.3889 17.7782 28.8889 18.2782 28.8889 18.8893V21.1115C28.8889 21.7227 28.3889 22.2227 27.7778 22.2227H25.5556C24.9445 22.2227 24.4445 21.7227 24.4445 21.1115V18.8893ZM12.2222 8.88932H14.4445C15.0556 8.88932 15.5556 9.38932 15.5556 10.0004V12.2227C15.5556 12.8338 15.0556 13.3338 14.4445 13.3338H12.2222C11.6111 13.3338 11.1111 12.8338 11.1111 12.2227V10.0004C11.1111 9.38932 11.6111 8.88932 12.2222 8.88932ZM17.7778 10.0004C17.7778 9.38932 18.2778 8.88932 18.8889 8.88932H21.1111C21.7222 8.88932 22.2222 9.38932 22.2222 10.0004V12.2227C22.2222 12.8338 21.7222 13.3338 21.1111 13.3338H18.8889C18.2778 13.3338 17.7778 12.8338 17.7778 12.2227V10.0004ZM25.5556 8.88932H27.7778C28.3889 8.88932 28.8889 9.38932 28.8889 10.0004V12.2227C28.8889 12.8338 28.3889 13.3338 27.7778 13.3338H25.5556C24.9445 13.3338 24.4445 12.8338 24.4445 12.2227V10.0004C24.4445 9.38932 24.9445 8.88932 25.5556 8.88932Z" fill="#9E3352"/>
</g>
<defs>
<clipPath id="clip0_6068_149706">
<rect width="26.6667" height="35.5556" fill="white" transform="translate(6.66669 2.22266)"/>
</clipPath>
</defs>
</svg>
