<svg width="40" height="40" viewBox="0 0 40 40" fill="none" xmlns="http://www.w3.org/2000/svg">
<path d="M32.9205 5.97242C31.6239 4.67586 29.5281 4.67586 28.2315 5.97242L26.4495 7.74853L32.2456 13.5446L34.0276 11.7625C35.3241 10.466 35.3241 8.37017 34.0276 7.07361L32.9205 5.97242ZM15.2067 18.9972C14.8456 19.3584 14.5673 19.8024 14.4075 20.2938L12.655 25.5511C12.4833 26.0602 12.6195 26.6227 12.9984 27.0075C13.3773 27.3923 13.9398 27.5226 14.4548 27.3509L19.7121 25.5985C20.1976 25.4386 20.6416 25.1603 21.0087 24.7992L30.9135 14.8885L25.1115 9.08654L15.2067 18.9972ZM10.6836 8.47674C7.54576 8.47674 5 11.0225 5 14.1603V29.3164C5 32.4542 7.54576 35 10.6836 35H25.8397C28.9775 35 31.5233 32.4542 31.5233 29.3164V23.6329C31.5233 22.585 30.6767 21.7384 29.6287 21.7384C28.5808 21.7384 27.7342 22.585 27.7342 23.6329V29.3164C27.7342 30.3643 26.8876 31.211 25.8397 31.211H10.6836C9.63565 31.211 8.78904 30.3643 8.78904 29.3164V14.1603C8.78904 13.1124 9.63565 12.2658 10.6836 12.2658H16.3671C17.415 12.2658 18.2616 11.4192 18.2616 10.3713C18.2616 9.32335 17.415 8.47674 16.3671 8.47674H10.6836Z" fill="#003686"/>
</svg>
