<svg width="448" height="512" viewBox="0 0 448 512" fill="none" xmlns="http://www.w3.org/2000/svg">
<g clip-path="url(#clip0_1_2)">
<path d="M224 0C241.7 0 256 14.3 256 32V62.1L271 47.1C280.4 37.7 295.6 37.7 304.9 47.1C314.2 56.5 314.3 71.7 304.9 81L255.9 130V200.3L317.3 164.5L335 98.4C338.4 85.6 351.6 78 364.4 81.4C377.2 84.8 384.8 98 381.4 110.8L376.2 130.1L399.8 116.3C415.1 107.4 434.7 112.6 443.6 127.8C452.5 143 447.4 162.7 432.1 171.6L406.8 186.4L428.5 192.2C441.3 195.6 448.9 208.8 445.5 221.6C442.1 234.4 428.9 242 416.1 238.6L348.4 220.5L287.5 256L348.4 291.5L416.1 273.4C428.9 270 442.1 277.6 445.5 290.4C448.9 303.2 441.3 316.4 428.5 319.8L406.8 325.6L432.1 340.4C447.4 349.3 452.5 368.9 443.6 384.2C434.7 399.5 415.1 404.6 399.8 395.7L376.2 381.9L381.4 401.2C384.8 414 377.2 427.2 364.4 430.6C351.6 434 338.4 426.4 335 413.6L317.3 347.5L256 311.7V382L305 431C314.4 440.4 314.4 455.6 305 464.9C295.6 474.2 280.4 474.3 271.1 464.9L256.1 449.9V480C256.1 497.7 241.8 512 224.1 512C206.4 512 192.1 497.7 192.1 480V449.9L177.1 464.9C167.7 474.3 152.5 474.3 143.2 464.9C133.9 455.5 133.8 440.3 143.2 431L192.2 382V311.7L130.8 347.5L113.1 413.6C109.7 426.4 96.5 434 83.7 430.6C70.9 427.2 63.3 414 66.7 401.2L71.9 381.9L48.1 395.6C32.8 404.5 13.2 399.3 4.3 384.1C-4.6 368.9 0.6 349.2 15.8 340.3L41.1 325.5L19.4 319.7C6.6 316.3 -1 303.1 2.4 290.3C5.8 277.5 19 269.9 31.8 273.3L99.5 291.4L160.5 256L99.6 220.5L31.9 238.6C19.1 242 5.9 234.4 2.5 221.6C-0.9 208.8 6.7 195.6 19.5 192.2L41.2 186.4L15.9 171.6C0.599999 162.7 -4.5 143.1 4.4 127.9C13.3 112.7 32.9 107.5 48.2 116.4L71.8 130.2L66.6 110.9C63.2 98.1 70.8 84.9 83.6 81.5C96.4 78.1 109.6 85.7 113 98.5L130.7 164.6L192 200.3V130L143 81C133.6 71.6 133.6 56.4 143 47.1C152.4 37.8 167.6 37.7 176.9 47.1L191.9 62.1L192 32C192 14.3 206.3 0 224 0Z" fill="#80CFF3"/>
</g>
<defs>
<clipPath id="clip0_1_2">
<rect width="448" height="512" fill="white"/>
</clipPath>
</defs>
</svg>
