<svg width="60" height="61" viewBox="0 0 60 61" fill="none" xmlns="http://www.w3.org/2000/svg">
<path d="M32.1571 48.7844C30.964 49.9612 29.0264 49.9612 27.8333 48.7844L12.5615 33.7221C11.3684 32.5454 11.3684 30.6344 12.5615 29.4576C13.7546 28.2809 15.6922 28.2809 16.8853 29.4576L30 42.3924L43.1147 29.467C44.3078 28.2903 46.2454 28.2903 47.4385 29.467C48.6316 30.6438 48.6316 32.5548 47.4385 33.7316L32.1667 48.7939L32.1571 48.7844ZM47.4289 15.6474L32.1571 30.7097C30.964 31.8864 29.0264 31.8864 27.8333 30.7097L12.5615 15.6474C11.3684 14.4707 11.3684 12.5596 12.5615 11.3829C13.7546 10.2061 15.6922 10.2061 16.8853 11.3829L30 24.3176L43.1147 11.3923C44.3078 10.2156 46.2454 10.2156 47.4385 11.3923C48.6316 12.569 48.6316 14.4801 47.4385 15.6568L47.4289 15.6474Z" fill="#0C9398"/>
</svg>
