<svg width="54" height="54" viewBox="0 0 54 54" fill="none" xmlns="http://www.w3.org/2000/svg">
<path d="M30.3333 4.33333C30.3333 2.48958 28.8438 1 27 1C25.1562 1 23.6667 2.48958 23.6667 4.33333V27.6667C23.6667 29.5104 25.1562 31 27 31C28.8438 31 30.3333 29.5104 30.3333 27.6667V4.33333ZM15.2812 13.5625C16.6979 12.3854 16.8854 10.2812 15.7083 8.86458C14.5312 7.44792 12.4271 7.26042 11.0104 8.4375C5.51042 13.0208 2 19.9375 2 27.6667C2 41.4688 13.1979 52.6667 27 52.6667C40.8021 52.6667 52 41.4688 52 27.6667C52 19.9375 48.4792 13.0208 42.9792 8.4375C41.5625 7.26042 39.4583 7.45833 38.2812 8.86458C37.1042 10.2708 37.3021 12.3854 38.7083 13.5625C42.7604 16.9271 45.3229 22 45.3229 27.6667C45.3229 37.7917 37.1146 46 26.9896 46C16.8646 46 8.65625 37.7917 8.65625 27.6667C8.65625 22 11.2292 16.9271 15.2708 13.5625H15.2812Z" fill="white"/>
</svg>
