<svg width="65" height="65" viewBox="0 0 65 65" fill="none" xmlns="http://www.w3.org/2000/svg">
<path d="M9.38437 12.5813C9.13125 12.2063 9 11.7563 9 11.3063C9 10.0312 10.0312 9 11.3063 9H21.5531C22.6031 9 23.5875 9.55312 24.1219 10.4531L30.5438 21.15C26.025 21.7219 21.9844 23.8313 18.975 26.9531L9.38437 12.5813ZM56.6062 12.5813L47.025 26.9531C44.0156 23.8313 39.975 21.7219 35.4563 21.15L41.8781 10.4531C42.4219 9.55312 43.3969 9 44.4469 9H54.6937C55.9688 9 57 10.0312 57 11.3063C57 11.7563 56.8687 12.2063 56.6156 12.5813H56.6062ZM16.5 40.5C16.5 36.1239 18.2384 31.9271 21.3327 28.8327C24.4271 25.7384 28.6239 24 33 24C37.3761 24 41.5729 25.7384 44.6673 28.8327C47.7616 31.9271 49.5 36.1239 49.5 40.5C49.5 44.8761 47.7616 49.0729 44.6673 52.1673C41.5729 55.2616 37.3761 57 33 57C28.6239 57 24.4271 55.2616 21.3327 52.1673C18.2384 49.0729 16.5 44.8761 16.5 40.5ZM33.7875 31.6031C33.4688 30.9469 32.5406 30.9469 32.2125 31.6031L30.1125 35.8594C29.9812 36.1219 29.7375 36.3 29.4562 36.3375L24.75 37.0219C24.0281 37.125 23.7469 38.0062 24.2625 38.5219L27.6656 41.8406C27.8719 42.0469 27.9656 42.3281 27.9188 42.6188L27.1125 47.2969C26.9906 48.0094 27.7406 48.5625 28.3875 48.225L32.5875 46.0125C32.8406 45.8812 33.15 45.8812 33.4031 46.0125L37.6031 48.225C38.25 48.5625 39 48.0187 38.8781 47.2969L38.0719 42.6188C38.025 42.3375 38.1187 42.0469 38.325 41.8406L41.7281 38.5219C42.2531 38.0156 41.9625 37.1344 41.2406 37.0219L36.5437 36.3375C36.2625 36.3 36.0094 36.1125 35.8875 35.8594L33.7875 31.6031Z" fill="#ffffff"/>
</svg>
