<svg width="66" height="67" viewBox="0 0 66 67" fill="none" xmlns="http://www.w3.org/2000/svg">
<path d="M9.38437 13.0813C9.13125 12.7063 9 12.2563 9 11.8063C9 10.5312 10.0312 9.5 11.3063 9.5H21.5531C22.6031 9.5 23.5875 10.0531 24.1219 10.9531L30.5438 21.65C26.025 22.2219 21.9844 24.3313 18.975 27.4531L9.38437 13.0813ZM56.6062 13.0813L47.025 27.4531C44.0156 24.3313 39.975 22.2219 35.4563 21.65L41.8781 10.9531C42.4219 10.0531 43.3969 9.5 44.4469 9.5H54.6937C55.9688 9.5 57 10.5312 57 11.8063C57 12.2563 56.8687 12.7063 56.6156 13.0813H56.6062ZM16.5 41C16.5 36.6239 18.2384 32.4271 21.3327 29.3327C24.4271 26.2384 28.6239 24.5 33 24.5C37.3761 24.5 41.5729 26.2384 44.6673 29.3327C47.7616 32.4271 49.5 36.6239 49.5 41C49.5 45.3761 47.7616 49.5729 44.6673 52.6673C41.5729 55.7616 37.3761 57.5 33 57.5C28.6239 57.5 24.4271 55.7616 21.3327 52.6673C18.2384 49.5729 16.5 45.3761 16.5 41ZM33.7875 32.1031C33.4688 31.4469 32.5406 31.4469 32.2125 32.1031L30.1125 36.3594C29.9812 36.6219 29.7375 36.8 29.4562 36.8375L24.75 37.5219C24.0281 37.625 23.7469 38.5062 24.2625 39.0219L27.6656 42.3406C27.8719 42.5469 27.9656 42.8281 27.9188 43.1188L27.1125 47.7969C26.9906 48.5094 27.7406 49.0625 28.3875 48.725L32.5875 46.5125C32.8406 46.3812 33.15 46.3812 33.4031 46.5125L37.6031 48.725C38.25 49.0625 39 48.5187 38.8781 47.7969L38.0719 43.1188C38.025 42.8375 38.1187 42.5469 38.325 42.3406L41.7281 39.0219C42.2531 38.5156 41.9625 37.6344 41.2406 37.5219L36.5437 36.8375C36.2625 36.8 36.0094 36.6125 35.8875 36.3594L33.7875 32.1031Z" fill="#003686"/>
</svg>
