<svg width="80" height="80" viewBox="0 0 80 80" fill="none" xmlns="http://www.w3.org/2000/svg">
<circle cx="40" cy="40" r="38" fill="#E79460" stroke="#BC6F3F" stroke-width="4"/>
<path d="M44.9833 20.6724C47.1867 21.1131 48.6189 23.2569 48.1782 25.4601L47.9833 26.4262C47.5341 28.6887 46.7036 30.841 45.5426 32.7985H57.746C59.9917 32.7985 61.8138 34.6203 61.8138 36.8659C61.8138 38.4336 60.9239 39.7978 59.6189 40.4757C60.5426 41.2214 61.1358 42.3654 61.1358 43.645C61.1358 45.6278 59.7121 47.2802 57.8392 47.6361C58.2121 48.2547 58.4239 48.975 58.4239 49.7461C58.4239 51.551 57.246 53.0848 55.6189 53.6102C55.6782 53.8898 55.7121 54.1864 55.7121 54.4914C55.7121 56.737 53.89 58.5589 51.6443 58.5589H43.3816C41.7714 58.5589 40.2036 58.0843 38.8646 57.1946L35.6019 55.0168C33.3392 53.5085 31.9833 50.9663 31.9833 48.2462V45.0008V40.9333V38.8233C31.9833 36.349 33.1104 34.0187 35.0341 32.468L35.6612 31.968C37.907 30.1716 39.4409 27.6464 40.0002 24.8331L40.1951 23.8671C40.6358 21.6639 42.7799 20.2318 44.9833 20.6724ZM21.1358 34.1543H26.5595C28.0595 34.1543 29.2714 35.366 29.2714 36.8659V55.8473C29.2714 57.3471 28.0595 58.5589 26.5595 58.5589H21.1358C19.6358 58.5589 18.424 57.3471 18.424 55.8473V36.8659C18.424 35.366 19.6358 34.1543 21.1358 34.1543Z" fill="white"/>
</svg>
