<svg width="65" height="65" viewBox="0 0 65 65" fill="none" xmlns="http://www.w3.org/2000/svg">
<path d="M15 15C15 13.3406 13.6594 12 12 12C10.3406 12 9 13.3406 9 15V46.5C9 50.6437 12.3562 54 16.5 54H54C55.6594 54 57 52.6594 57 51C57 49.3406 55.6594 48 54 48H16.5C15.675 48 15 47.325 15 46.5V15ZM53.1188 23.1188C54.2906 21.9469 54.2906 20.0438 53.1188 18.8719C51.9469 17.7 50.0437 17.7 48.8719 18.8719L39 28.7531L33.6188 23.3719C32.4469 22.2 30.5438 22.2 29.3719 23.3719L18.8719 33.8719C17.7 35.0437 17.7 36.9469 18.8719 38.1188C20.0438 39.2906 21.9469 39.2906 23.1188 38.1188L31.5 29.7469L36.8812 35.1281C38.0531 36.3 39.9563 36.3 41.1281 35.1281L53.1281 23.1281L53.1188 23.1188Z" fill="#003686"/>
</svg>
