<svg width="91" height="91" viewBox="0 0 91 91" fill="none" xmlns="http://www.w3.org/2000/svg">
<g clip-path="url(#clip0_5569_30096)">
<path d="M6.51489 54.5625H70.113C72.3928 54.5625 74.2459 52.7095 74.2459 50.4297C74.2459 49.6099 73.9988 48.8125 73.5496 48.1387L65.0706 35.4033C64.071 33.8984 62.3977 33 60.5896 33H16.0496C14.2527 33 12.5681 33.8984 11.5686 35.4033L3.07837 48.1274C2.62915 48.8125 2.38208 49.6099 2.38208 50.4185C2.38208 52.7095 4.23511 54.5625 6.51489 54.5625ZM9.56958 58.1562V76.125V85.1094C9.56958 88.0854 11.9841 90.5 14.9602 90.5H40.1165C43.0925 90.5 45.5071 88.0854 45.5071 85.1094V76.125V58.1562H38.3196V76.125H16.7571V58.1562H9.56958ZM59.8821 58.1562V86.9062C59.8821 88.894 61.488 90.5 63.4758 90.5C65.4636 90.5 67.0696 88.894 67.0696 86.9062V58.1562H59.8821Z" fill="#4D8CCA"/>
<path d="M80.5721 0.580524C80.9123 0.717223 81.1572 1.01015 81.2252 1.35515L82.5791 8.37888L89.92 9.66775C90.2806 9.73285 90.5868 9.96719 90.7296 10.2927C90.8725 10.6181 90.8317 10.9892 90.6208 11.2821L86.3822 17.1667L90.6208 23.0447C90.8317 23.3376 90.8725 23.7087 90.7296 24.0342C90.5868 24.3596 90.2806 24.594 89.92 24.6591L82.5791 25.9545L81.2252 32.9782C81.1572 33.3232 80.9123 33.6161 80.5721 33.7528C80.2319 33.8895 79.8441 33.8505 79.538 33.6487L73.3945 29.5933L67.2509 33.6487C66.9448 33.8505 66.557 33.8895 66.2168 33.7528C65.8766 33.6161 65.6317 33.3232 65.5637 32.9782L64.2098 25.9545L56.8689 24.6591C56.5083 24.594 56.2021 24.3596 56.0593 24.0342C55.9164 23.7087 55.9572 23.3376 56.1681 23.0447L60.4067 17.1667L56.1681 11.2886C55.9572 10.9957 55.9164 10.6246 56.0593 10.2992C56.2021 9.9737 56.5083 9.73935 56.8689 9.67426L64.2098 8.37888L65.5637 1.35515C65.6317 1.01015 65.8766 0.717223 66.2168 0.580524C66.557 0.443825 66.9448 0.482882 67.2509 0.684675L73.3945 4.74008L79.538 0.684675C79.8441 0.482882 80.2319 0.443825 80.5721 0.580524ZM66.8631 17.1667C66.8631 15.5093 67.5513 13.9198 68.7761 12.7479C70.001 11.576 71.6622 10.9176 73.3945 10.9176C75.1267 10.9176 76.7879 11.576 78.0128 12.7479C79.2377 13.9198 79.9258 15.5093 79.9258 17.1667C79.9258 18.824 79.2377 20.4135 78.0128 21.5854C76.7879 22.7574 75.1267 23.4158 73.3945 23.4158C71.6622 23.4158 70.001 22.7574 68.7761 21.5854C67.5513 20.4135 66.8631 18.824 66.8631 17.1667ZM82.1029 17.1667C82.1029 14.9568 81.1854 12.8375 79.5522 11.275C77.9191 9.71238 75.7041 8.83454 73.3945 8.83454C71.0848 8.83454 68.8698 9.71238 67.2367 11.275C65.6035 12.8375 64.686 14.9568 64.686 17.1667C64.686 19.3765 65.6035 21.4958 67.2367 23.0584C68.8698 24.6209 71.0848 25.4988 73.3945 25.4988C75.7041 25.4988 77.9191 24.6209 79.5522 23.0584C81.1854 21.4958 82.1029 19.3765 82.1029 17.1667Z" fill="#4D8CCA"/>
</g>
<defs>
<clipPath id="clip0_5569_30096">
<rect width="90" height="90" fill="white" transform="translate(0.814209 0.5)"/>
</clipPath>
</defs>
</svg>
