<svg width="45" height="45" viewBox="0 0 45 45" fill="none" xmlns="http://www.w3.org/2000/svg">
<path d="M22.5 5.96387C26.8221 5.96387 30.9671 7.68079 34.0233 10.7369C37.0794 13.7931 38.7963 17.9381 38.7963 22.2602C38.7963 26.5822 37.0794 30.7272 34.0233 33.7834C30.9671 36.8395 26.8221 38.5565 22.5 38.5565C18.178 38.5565 14.033 36.8395 10.9768 33.7834C7.92066 30.7272 6.20374 26.5822 6.20374 22.2602C6.20374 17.9381 7.92066 13.7931 10.9768 10.7369C14.033 7.68079 18.178 5.96387 22.5 5.96387ZM20.9723 13.6028V22.2602C20.9723 22.7694 21.2269 23.2469 21.6534 23.5333L27.7645 27.6074C28.4647 28.0784 29.4132 27.8875 29.8843 27.1809C30.3554 26.4743 30.1644 25.5322 29.4578 25.0611L24.0278 21.4453V13.6028C24.0278 12.7561 23.3467 12.075 22.5 12.075C21.6534 12.075 20.9723 12.7561 20.9723 13.6028Z" fill="white"/>
</svg>
