<svg width="80" height="80" viewBox="0 0 80 80" fill="none" xmlns="http://www.w3.org/2000/svg">
<circle cx="40" cy="40" r="38" fill="#E86161" stroke="#BF4545" stroke-width="4"/>
<path d="M24.3121 16.2539C25.4264 16.2539 26.3267 17.1541 26.3267 18.2684V20.283H34.3848V18.2684C34.3848 17.1541 35.285 16.2539 36.3993 16.2539C37.5136 16.2539 38.4138 17.1541 38.4138 18.2684V20.283H41.4356C43.1039 20.283 44.4574 21.6365 44.4574 23.3048V26.3265H16.254V23.3048C16.254 21.6365 17.6075 20.283 19.2758 20.283H22.2976V18.2684C22.2976 17.1541 23.1979 16.2539 24.3121 16.2539ZM16.254 28.3411H44.4574V45.4646C44.4574 47.1328 43.1039 48.4864 41.4356 48.4864H19.2758C17.6075 48.4864 16.254 47.1328 16.254 45.4646V28.3411ZM21.2903 32.3701C20.7364 32.3701 20.2831 32.8234 20.2831 33.3774V39.421C20.2831 39.975 20.7364 40.4282 21.2903 40.4282H27.3339C27.8879 40.4282 28.3412 39.975 28.3412 39.421V33.3774C28.3412 32.8234 27.8879 32.3701 27.3339 32.3701H21.2903Z" fill="white"/>
<path d="M50.4235 65.0674C54.3073 65.0674 58.0321 63.5246 60.7784 60.7783C63.5247 58.032 65.0676 54.3072 65.0676 50.4234C65.0676 46.5395 63.5247 42.8147 60.7784 40.0684C58.0321 37.3222 54.3073 35.7793 50.4235 35.7793C46.5396 35.7793 42.8149 37.3222 40.0686 40.0684C37.3223 42.8147 35.7794 46.5395 35.7794 50.4234C35.7794 54.3072 37.3223 58.032 40.0686 60.7783C42.8149 63.5246 46.5396 65.0674 50.4235 65.0674ZM55.2947 42.1861C55.732 42.5623 55.8438 43.1929 55.5591 43.7013L52.4981 49.203H56.1184C56.6472 49.203 57.115 49.5386 57.2777 50.0369C57.4404 50.5352 57.2676 51.0844 56.8506 51.3996L47.0879 58.7217C46.6303 59.0674 45.9896 59.0471 45.5523 58.6607C45.115 58.2742 45.0031 57.6539 45.2879 57.1454L48.3489 51.6437H44.7286C44.1998 51.6437 43.732 51.3081 43.5692 50.8098C43.4065 50.3115 43.5794 49.7623 43.9964 49.4471L53.7591 42.1251C54.2167 41.7793 54.8574 41.7996 55.2947 42.1861Z" fill="white"/>
<path fill-rule="evenodd" clip-rule="evenodd" d="M52.0384 45.9156L47.0675 49.6437H49.9642L52.0384 45.9156ZM50.8828 51.203L48.8086 54.9312L53.7794 51.203H50.8828ZM47.0879 58.7217L56.8506 51.3996C57.2676 51.0844 57.4404 50.5352 57.2777 50.0369C57.115 49.5386 56.6472 49.203 56.1184 49.203H52.4981L55.5591 43.7013C55.8438 43.1929 55.732 42.5623 55.2947 42.1861C54.8574 41.7996 54.2167 41.7793 53.7591 42.1251L43.9964 49.4471C43.5794 49.7623 43.4065 50.3115 43.5692 50.8098C43.732 51.3081 44.1998 51.6437 44.7286 51.6437H48.3489L45.2879 57.1454C45.0031 57.6539 45.115 58.2742 45.5523 58.6607C45.9896 59.0471 46.6303 59.0674 47.0879 58.7217ZM62.1926 62.1925C59.0713 65.3139 54.8378 67.0674 50.4235 67.0674C46.0092 67.0674 41.7757 65.3139 38.6544 62.1925C35.533 59.0711 33.7794 54.8376 33.7794 50.4234C33.7794 46.0091 35.533 41.7756 38.6544 38.6542C41.7757 35.5329 46.0092 33.7793 50.4235 33.7793C54.8378 33.7793 59.0713 35.5329 62.1926 38.6542C65.314 41.7756 67.0676 46.0091 67.0676 50.4234C67.0676 54.8376 65.314 59.0711 62.1926 62.1925ZM60.7784 60.7783C58.0321 63.5246 54.3073 65.0674 50.4235 65.0674C46.5396 65.0674 42.8149 63.5246 40.0686 60.7783C37.3223 58.032 35.7794 54.3072 35.7794 50.4234C35.7794 46.5395 37.3223 42.8147 40.0686 40.0684C42.8149 37.3222 46.5396 35.7793 50.4235 35.7793C54.3073 35.7793 58.0321 37.3222 60.7784 40.0684C63.5247 42.8147 65.0676 46.5395 65.0676 50.4234C65.0676 54.3072 63.5247 58.032 60.7784 60.7783Z" fill="#E86161"/>
</svg>
