<svg width="36" height="37" viewBox="0 0 36 37" fill="none" xmlns="http://www.w3.org/2000/svg">
<g clip-path="url(#clip0_288_24094)">
<path d="M9 2.43848C7.34375 2.43848 6 3.78223 6 5.43848V31.4385C6 33.0947 7.34375 34.4385 9 34.4385H15V29.4385C15 27.7822 16.3438 26.4385 18 26.4385C19.6562 26.4385 21 27.7822 21 29.4385V34.4385H27C28.6562 34.4385 30 33.0947 30 31.4385V5.43848C30 3.78223 28.6562 2.43848 27 2.43848H9ZM10 17.4385C10 16.8885 10.45 16.4385 11 16.4385H13C13.55 16.4385 14 16.8885 14 17.4385V19.4385C14 19.9885 13.55 20.4385 13 20.4385H11C10.45 20.4385 10 19.9885 10 19.4385V17.4385ZM17 16.4385H19C19.55 16.4385 20 16.8885 20 17.4385V19.4385C20 19.9885 19.55 20.4385 19 20.4385H17C16.45 20.4385 16 19.9885 16 19.4385V17.4385C16 16.8885 16.45 16.4385 17 16.4385ZM22 17.4385C22 16.8885 22.45 16.4385 23 16.4385H25C25.55 16.4385 26 16.8885 26 17.4385V19.4385C26 19.9885 25.55 20.4385 25 20.4385H23C22.45 20.4385 22 19.9885 22 19.4385V17.4385ZM11 8.43848H13C13.55 8.43848 14 8.88848 14 9.43848V11.4385C14 11.9885 13.55 12.4385 13 12.4385H11C10.45 12.4385 10 11.9885 10 11.4385V9.43848C10 8.88848 10.45 8.43848 11 8.43848ZM16 9.43848C16 8.88848 16.45 8.43848 17 8.43848H19C19.55 8.43848 20 8.88848 20 9.43848V11.4385C20 11.9885 19.55 12.4385 19 12.4385H17C16.45 12.4385 16 11.9885 16 11.4385V9.43848ZM23 8.43848H25C25.55 8.43848 26 8.88848 26 9.43848V11.4385C26 11.9885 25.55 12.4385 25 12.4385H23C22.45 12.4385 22 11.9885 22 11.4385V9.43848C22 8.88848 22.45 8.43848 23 8.43848Z" fill="#003686"/>
</g>
<defs>
<clipPath id="clip0_288_24094">
<rect width="24" height="32" fill="white" transform="translate(6 2.43848)"/>
</clipPath>
</defs>
</svg>
