<svg width="40" height="41" viewBox="0 0 40 41" fill="none" xmlns="http://www.w3.org/2000/svg">
<path d="M21.4381 7.75536C20.6427 6.97087 19.351 6.97087 18.5556 7.75536L8.37439 17.7969C7.57898 18.5814 7.57898 19.8554 8.37439 20.6399C9.16979 21.4244 10.4615 21.4244 11.2569 20.6399L20.0001 12.0167L28.7432 20.6336C29.5386 21.4181 30.8303 21.4181 31.6257 20.6336C32.4211 19.8491 32.4211 18.5751 31.6257 17.7906L21.4445 7.74909L21.4381 7.75536ZM31.6194 29.8467L21.4381 19.8052C20.6427 19.0207 19.351 19.0207 18.5556 19.8052L8.37439 29.8467C7.57898 30.6312 7.57898 31.9052 8.37439 32.6897C9.16979 33.4742 10.4615 33.4742 11.2569 32.6897L20.0001 24.0666L28.7432 32.6835C29.5386 33.468 30.8303 33.468 31.6257 32.6835C32.4211 31.899 32.4211 30.6249 31.6257 29.8404L31.6194 29.8467Z" fill="#003686"/>
</svg>
