<svg width="109" height="164" viewBox="0 0 109 164" fill="none" xmlns="http://www.w3.org/2000/svg">
<g clip-path="url(#clip0_2_11)">
<path fill-rule="evenodd" clip-rule="evenodd" d="M0 0V163.5L54.5 138.569V0H0ZM54.5 0H109V163.5L54.5 138.569V0Z" fill="#4D8CCA"/>
<path d="M23.72 105.488L17.924 88.072C17.7933 87.6987 17.84 87.3533 18.064 87.036C18.288 86.7187 18.596 86.56 18.988 86.56H19.996C20.4627 86.56 20.892 86.7093 21.284 87.008C21.676 87.288 21.928 87.652 22.04 88.1L26.324 103.136C26.324 103.155 26.3333 103.164 26.352 103.164C26.3707 103.164 26.38 103.155 26.38 103.136L30.72 88.072C30.8507 87.624 31.1027 87.26 31.476 86.98C31.868 86.7 32.2973 86.56 32.764 86.56H33.66C34.052 86.56 34.36 86.7187 34.584 87.036C34.808 87.3533 34.8547 87.6987 34.724 88.072L28.928 105.488C28.7787 105.936 28.508 106.3 28.116 106.58C27.7427 106.86 27.3133 107 26.828 107H25.82C25.3533 107 24.924 106.86 24.532 106.58C24.1587 106.3 23.888 105.936 23.72 105.488ZM39.661 107C39.2316 107 38.8583 106.841 38.541 106.524C38.2236 106.207 38.065 105.833 38.065 105.404V94.036C38.065 93.6067 38.2236 93.2333 38.541 92.916C38.8583 92.5987 39.2316 92.44 39.661 92.44H40.389C40.8183 92.44 41.1916 92.5987 41.509 92.916C41.8263 93.2333 41.985 93.6067 41.985 94.036V105.404C41.985 105.833 41.8263 106.207 41.509 106.524C41.1916 106.841 40.8183 107 40.389 107H39.661ZM39.661 89.36C39.2316 89.36 38.8583 89.2013 38.541 88.884C38.2236 88.5667 38.065 88.1933 38.065 87.764V87.596C38.065 87.1667 38.2236 86.7933 38.541 86.476C38.8583 86.1587 39.2316 86 39.661 86H40.389C40.8183 86 41.1916 86.1587 41.509 86.476C41.8263 86.7933 41.985 87.1667 41.985 87.596V87.764C41.985 88.1933 41.8263 88.5667 41.509 88.884C41.1916 89.2013 40.8183 89.36 40.389 89.36H39.661ZM52.7619 94.96C50.6152 94.96 49.5419 96.5467 49.5419 99.72C49.5419 101.307 49.8312 102.501 50.4099 103.304C50.9886 104.088 51.7726 104.48 52.7619 104.48C53.6392 104.48 54.3952 104.191 55.0299 103.612C55.6646 103.033 55.9819 102.371 55.9819 101.624V97.816C55.9819 97.0693 55.6646 96.4067 55.0299 95.828C54.3952 95.2493 53.6392 94.96 52.7619 94.96ZM51.6419 107.28C49.9806 107.28 48.5992 106.608 47.4979 105.264C46.3966 103.901 45.8459 102.053 45.8459 99.72C45.8459 97.312 46.3686 95.4547 47.4139 94.148C48.4779 92.8227 49.8872 92.16 51.6419 92.16C53.2286 92.16 54.6286 92.7387 55.8419 93.896C55.8606 93.9147 55.8792 93.924 55.8979 93.924C55.9166 93.924 55.9259 93.9147 55.9259 93.896V87.596C55.9259 87.1667 56.0846 86.7933 56.4019 86.476C56.7192 86.1587 57.0926 86 57.5219 86H58.0819C58.5112 86 58.8846 86.1587 59.2019 86.476C59.5192 86.7933 59.6779 87.1667 59.6779 87.596V105.404C59.6779 105.833 59.5192 106.207 59.2019 106.524C58.8846 106.841 58.5112 107 58.0819 107H57.7739C57.3259 107 56.9432 106.851 56.6259 106.552C56.3272 106.235 56.1686 105.852 56.1499 105.404L56.1219 105.208C56.1219 105.189 56.1126 105.18 56.0939 105.18C56.0752 105.18 56.0566 105.189 56.0379 105.208C54.8059 106.589 53.3406 107.28 51.6419 107.28ZM69.6297 94.764C68.6777 94.764 67.9404 95.0347 67.4177 95.576C66.9137 96.0987 66.5964 96.948 66.4657 98.124C66.4657 98.2733 66.5404 98.348 66.6897 98.348H72.1777C72.3271 98.348 72.4017 98.2733 72.4017 98.124C72.3271 95.884 71.4031 94.764 69.6297 94.764ZM70.3297 107.28C67.8844 107.28 65.9991 106.645 64.6737 105.376C63.3671 104.088 62.7137 102.203 62.7137 99.72C62.7137 97.256 63.3017 95.38 64.4777 94.092C65.6537 92.804 67.3524 92.16 69.5737 92.16C73.7177 92.16 75.8457 94.512 75.9577 99.216C75.9764 99.664 75.8177 100.037 75.4817 100.336C75.1457 100.635 74.7537 100.784 74.3057 100.784H66.6617C66.4937 100.784 66.4284 100.868 66.4657 101.036C66.5964 102.287 67.0071 103.201 67.6977 103.78C68.4071 104.34 69.4337 104.62 70.7777 104.62C71.6177 104.62 72.5511 104.48 73.5777 104.2C73.9137 104.107 74.2217 104.163 74.5017 104.368C74.8004 104.573 74.9497 104.853 74.9497 105.208C74.9497 105.637 74.8191 106.02 74.5577 106.356C74.3151 106.673 73.9884 106.869 73.5777 106.944C72.5324 107.168 71.4497 107.28 70.3297 107.28ZM87.8203 96.052C87.279 95.268 86.4576 94.876 85.3563 94.876C84.255 94.876 83.4243 95.268 82.8643 96.052C82.323 96.8173 82.0523 98.04 82.0523 99.72C82.0523 101.4 82.323 102.632 82.8643 103.416C83.4243 104.181 84.255 104.564 85.3563 104.564C86.4576 104.564 87.279 104.181 87.8203 103.416C88.3803 102.632 88.6603 101.4 88.6603 99.72C88.6603 98.04 88.3803 96.8173 87.8203 96.052ZM90.5643 105.32C89.3323 106.627 87.5963 107.28 85.3563 107.28C83.1163 107.28 81.371 106.627 80.1203 105.32C78.8883 103.995 78.2723 102.128 78.2723 99.72C78.2723 97.312 78.8883 95.4547 80.1203 94.148C81.371 92.8227 83.1163 92.16 85.3563 92.16C87.5963 92.16 89.3323 92.8227 90.5643 94.148C91.815 95.4547 92.4403 97.312 92.4403 99.72C92.4403 102.128 91.815 103.995 90.5643 105.32Z" fill="white"/>
<path d="M26 34.5C26 31.4664 28.7405 29 32.1111 29H56.5556C59.9262 29 62.6667 31.4664 62.6667 34.5V56.5C62.6667 59.5336 59.9262 62 56.5556 62H32.1111C28.7405 62 26 59.5336 26 56.5V34.5ZM79.3863 32.0765C80.3794 32.5578 81 33.4859 81 34.5V56.5C81 57.514 80.3794 58.4421 79.3863 58.9234C78.3933 59.4047 77.1901 59.3531 76.2448 58.7859L67.0782 53.286L65.7222 52.4695V51V40V38.5305L67.0782 37.714L76.2448 32.2141C77.1806 31.6554 78.3837 31.5953 79.3863 32.0765Z" fill="white"/>
</g>
<defs>
<clipPath id="clip0_2_11">
<rect width="109" height="164" fill="white"/>
</clipPath>
</defs>
</svg>
