<svg width="31" height="31" viewBox="0 0 31 31" fill="none" xmlns="http://www.w3.org/2000/svg">
<path d="M22.6711 29.9183C24.6035 29.9183 26.4568 29.1506 27.8232 27.7842C29.1897 26.4177 29.9573 24.5644 29.9573 22.632C29.9573 20.6996 29.1897 18.8463 27.8232 17.4798C26.4568 16.1134 24.6035 15.3457 22.6711 15.3457C20.7386 15.3457 18.8853 16.1134 17.5189 17.4798C16.1524 18.8463 15.3848 20.6996 15.3848 22.632C15.3848 24.5644 16.1524 26.4177 17.5189 27.7842C18.8853 29.1506 20.7386 29.9183 22.6711 29.9183ZM25.0948 18.5335C25.3123 18.7207 25.368 19.0344 25.2263 19.2874L23.7033 22.0248H25.5046C25.7677 22.0248 26.0005 22.1918 26.0814 22.4397C26.1624 22.6877 26.0764 22.9609 25.8689 23.1177L21.0114 26.7609C20.7837 26.9329 20.4649 26.9228 20.2474 26.7305C20.0298 26.5383 19.9741 26.2296 20.1158 25.9766L21.6388 23.2392H19.8375C19.5744 23.2392 19.3416 23.0722 19.2607 22.8243C19.1797 22.5763 19.2657 22.3031 19.4732 22.1462L24.3307 18.5031C24.5584 18.3311 24.8772 18.3412 25.0948 18.5335Z" fill="#003686"/>
<path fill-rule="evenodd" clip-rule="evenodd" d="M9.51055 4.57965C9.51055 3.90306 8.96393 3.35645 8.28734 3.35645C7.61076 3.35645 7.06414 3.90306 7.06414 4.57965V5.80285H5.22934C4.21637 5.80285 3.39453 6.62469 3.39453 7.63766V9.47246H20.5194V7.63766C20.5194 6.62469 19.6975 5.80285 18.6846 5.80285H16.8498V4.57965C16.8498 3.90306 16.3031 3.35645 15.6266 3.35645C14.95 3.35645 14.4034 3.90306 14.4034 4.57965V5.80285H9.51055V4.57965ZM20.5194 10.6957H3.39453V21.0929C3.39453 22.1059 4.21637 22.9277 5.22934 22.9277H13.567C13.5639 22.8295 13.5623 22.731 13.5623 22.6321C13.5623 18.3429 16.5272 14.7462 20.5194 13.7797V10.6957ZM5.84094 13.7537C5.84094 13.4173 6.11616 13.1421 6.45254 13.1421H10.1221C10.4585 13.1421 10.7338 13.4173 10.7338 13.7537V17.4233C10.7338 17.7597 10.4585 18.0349 10.1221 18.0349H6.45254C6.11616 18.0349 5.84094 17.7597 5.84094 17.4233V13.7537Z" fill="#003686"/>
</svg>
