<?xml version="1.0" encoding="UTF-8"?>
<svg xmlns="http://www.w3.org/2000/svg" version="1.1" viewBox="0 0 152 134">
  <defs>
    <style>
      .cls-1 {
        fill: #ff7575;
      }

      .cls-2 {
        fill: #303030;
        stroke: #000;
      }
    </style>
  </defs>
  <!-- Generator: Adobe Illustrator 28.7.1, SVG Export Plug-In . SVG Version: 1.2.0 Build 142)  -->
  <g>
    <g id="_レイヤー_1" data-name="レイヤー_1">
      <path class="cls-2" d="M2.2,114.4c-2.2,3.8-2.2,8.5,0,12.2,2.2,3.8,6.2,6.1,10.6,6.1h126.6c4.4,0,8.4-2.4,10.6-6.1,2.2-3.8,2.2-8.5,0-12.3h0L86.5,6.5c-2.2-3.8-6.2-6-10.5-6s-8.3,2.3-10.5,6L2.2,114.4h0Z"/>
      <path class="cls-1" d="M76,38.5c-3.9,0-7,3.1-7,7v32.8c0,3.9,3.1,7,7,7s7-3.1,7-7v-32.8c0-3.9-3.1-7-7-7ZM85.4,104.1c0-5.2-4.2-9.4-9.4-9.4s-9.4,4.2-9.4,9.4,4.2,9.4,9.4,9.4,9.4-4.2,9.4-9.4Z"/>
    </g>
  </g>
</svg>