<svg width="40" height="40" viewBox="0 0 40 40" fill="none" xmlns="http://www.w3.org/2000/svg">
<path d="M23.5875 5.65884C25.2125 5.98381 26.2688 7.56492 25.9438 9.18978L25.8 9.90221C25.4688 11.5708 24.8563 13.1582 24 14.6018H33C34.6562 14.6018 36 15.9454 36 17.6015C36 18.7577 35.3438 19.7638 34.3813 20.2638C35.0625 20.8137 35.5 21.6574 35.5 22.6011C35.5 24.0634 34.45 25.2821 33.0688 25.5446C33.3438 26.0008 33.5 26.532 33.5 27.1007C33.5 28.4318 32.6313 29.563 31.4312 29.9504C31.475 30.1567 31.5 30.3754 31.5 30.6004C31.5 32.2565 30.1562 33.6001 28.5 33.6001H22.4062C21.2188 33.6001 20.0625 33.2501 19.075 32.5939L16.6687 30.9878C15 29.8754 14 28.0006 14 25.9945V23.601V20.6013V19.0451C14 17.2203 14.8313 15.5017 16.25 14.3581L16.7125 13.9893C18.3687 12.6645 19.5 10.8021 19.9125 8.72732L20.0562 8.01488C20.3813 6.39003 21.9625 5.33387 23.5875 5.65884ZM6 15.6017H10C11.1062 15.6017 12 16.4954 12 17.6015V31.6003C12 32.7064 11.1062 33.6001 10 33.6001H6C4.89375 33.6001 4 32.7064 4 31.6003V17.6015C4 16.4954 4.89375 15.6017 6 15.6017Z" fill="#003686"/>
</svg>
