<svg width="66" height="81" viewBox="0 0 66 81" fill="none" xmlns="http://www.w3.org/2000/svg">
<path d="M20.7143 10.3477C15.6272 10.3477 11.5 15.4126 11.5 21.6553V59.3477C11.5 65.5904 15.6272 70.6553 20.7143 70.6553H48.3571H51.4286C53.1275 70.6553 54.5 68.971 54.5 66.8861C54.5 64.8013 53.1275 63.1169 51.4286 63.1169V55.5784C53.1275 55.5784 54.5 53.8941 54.5 51.8092V14.1169C54.5 12.032 53.1275 10.3477 51.4286 10.3477H48.3571H20.7143ZM20.7143 55.5784H45.2857V63.1169H20.7143C19.0154 63.1169 17.6429 61.4325 17.6429 59.3477C17.6429 57.2628 19.0154 55.5784 20.7143 55.5784ZM23.7857 27.3092C23.7857 26.2727 24.4768 25.4246 25.3214 25.4246H43.75C44.5946 25.4246 45.2857 26.2727 45.2857 27.3092C45.2857 28.3457 44.5946 29.1938 43.75 29.1938H25.3214C24.4768 29.1938 23.7857 28.3457 23.7857 27.3092ZM25.3214 32.963H43.75C44.5946 32.963 45.2857 33.8111 45.2857 34.8477C45.2857 35.8842 44.5946 36.7323 43.75 36.7323H25.3214C24.4768 36.7323 23.7857 35.8842 23.7857 34.8477C23.7857 33.8111 24.4768 32.963 25.3214 32.963Z" fill="#4D8CCA"/>
</svg>
