<svg width="80" height="81" viewBox="0 0 80 81" fill="none" xmlns="http://www.w3.org/2000/svg">
<path d="M71.2072 29.0836C71.6316 30.255 71.2735 31.5611 70.3584 32.3958L64.6159 37.7007C64.7618 38.8182 64.8414 39.9627 64.8414 41.1206C64.8414 42.2785 64.7618 43.423 64.6159 44.5405L70.3584 49.8454C71.2735 50.6802 71.6316 51.9862 71.2072 53.1576C70.6237 54.7598 69.9208 56.2947 69.1118 57.7758L68.4885 58.8664C67.6132 60.3474 66.6318 61.7477 65.5575 63.0672C64.7751 64.0366 63.4754 64.3598 62.3083 63.9828L54.9213 61.5996C53.1441 62.9864 51.1813 64.1443 49.0859 65.0195L47.4282 72.7076C47.1629 73.9328 46.2346 74.9022 45.0144 75.1042C43.1843 75.4138 41.301 75.5754 39.378 75.5754C37.455 75.5754 35.5718 75.4138 33.7416 75.1042C32.5215 74.9022 31.5931 73.9328 31.3279 72.7076L29.6701 65.0195C27.5747 64.1443 25.6119 62.9864 23.8347 61.5996L16.461 63.9962C15.2939 64.3732 13.9942 64.0366 13.2117 63.0807C12.1375 61.7612 11.1561 60.3609 10.2808 58.8798L9.65748 57.7893C8.84849 56.3082 8.14559 54.7733 7.56206 53.171C7.13767 51.9997 7.49575 50.6936 8.41084 49.8589L14.1534 44.554C14.0075 43.423 13.9279 42.2785 13.9279 41.1206C13.9279 39.9627 14.0075 38.8182 14.1534 37.7007L8.41084 32.3958C7.49575 31.5611 7.13767 30.255 7.56206 29.0836C8.14559 27.4814 8.84849 25.9465 9.65748 24.4654L10.2808 23.3748C11.1561 21.8938 12.1375 20.4935 13.2117 19.174C13.9942 18.2046 15.2939 17.8815 16.461 18.2585L23.848 20.6416C25.6251 19.2548 27.5879 18.0969 29.6834 17.2217L31.3411 9.53368C31.6064 8.30844 32.5347 7.33902 33.7548 7.13705C35.585 6.81391 37.4683 6.65234 39.3913 6.65234C41.3143 6.65234 43.1975 6.81391 45.0277 7.12359C46.2478 7.32555 47.1762 8.29497 47.4414 9.52021L49.0992 17.2083C51.1946 18.0834 53.1574 19.2413 54.9345 20.6282L62.3216 18.245C63.4886 17.868 64.7883 18.2046 65.5708 19.1606C66.645 20.48 67.6264 21.8803 68.5017 23.3614L69.1251 24.452C69.9341 25.933 70.637 27.4679 71.2205 29.0702L71.2072 29.0836ZM39.3913 51.8919C42.2051 51.8919 44.9038 50.7571 46.8935 48.7371C48.8832 46.7171 50.001 43.9773 50.001 41.1206C50.001 38.2639 48.8832 35.5241 46.8935 33.5041C44.9038 31.4841 42.2051 30.3493 39.3913 30.3493C36.5774 30.3493 33.8788 31.4841 31.8891 33.5041C29.8993 35.5241 28.7815 38.2639 28.7815 41.1206C28.7815 43.9773 29.8993 46.7171 31.8891 48.7371C33.8788 50.7571 36.5774 51.8919 39.3913 51.8919Z" fill="#4D8CCA"/>
</svg>
