<svg width="80" height="81" viewBox="0 0 80 81" fill="none" xmlns="http://www.w3.org/2000/svg">
<path d="M6.15387 25.3886C6.15387 21.1647 9.58806 17.7305 13.812 17.7305H44.4445C48.6684 17.7305 52.1026 21.1647 52.1026 25.3886V56.0211C52.1026 60.245 48.6684 63.6792 44.4445 63.6792H13.812C9.58806 63.6792 6.15387 60.245 6.15387 56.0211V25.3886ZM73.0547 22.0142C74.2992 22.6843 75.0769 23.9766 75.0769 25.3886V56.0211C75.0769 57.433 74.2992 58.7253 73.0547 59.3954C71.8103 60.0655 70.3026 59.9937 69.118 59.204L57.6308 51.5459L55.9316 50.4091V48.3629V33.0467V31.0006L57.6308 29.8638L69.118 22.2057C70.2906 21.4279 71.7983 21.3441 73.0547 22.0142Z" fill="#4D8CCA"/>
</svg>
