<?xml version="1.0" encoding="UTF-8"?>
<svg xmlns="http://www.w3.org/2000/svg" version="1.1" viewBox="0 0 80 81">
  <defs>
    <style>
      .cls-1, .cls-2 {
        fill: #4d8cca;
      }

      .cls-2 {
        stroke: #fff;
        stroke-width: 3px;
      }
    </style>
  </defs>
  <!-- Generator: Adobe Illustrator 28.7.1, SVG Export Plug-In . SVG Version: 1.2.0 Build 142)  -->
  <g>
    <g id="_レイヤー_1" data-name="レイヤー_1">
      <g id="_レイヤー_1-2" data-name="_レイヤー_1">
        <path class="cls-1" d="M8.1,47.4c-3.2-3.6-6.3-7-5.5-12.4.8-5.4,2.1-10.2,2.9-14.1-1-4.3-1.4-7.5-2.5-11.2-1.4-5.3,6.1-8.5,8-1.3,2.4,9.5,2.6,9.4,3.7,10.7,1.9,2.3,4.3.5,6.2-1.4s8.3-9.1,13.9-14.5c4.6-4.4,9,2.3,6.3,5.6s-5.5,5.8-11.2,12.3c4.7-1.2,6.6,4.4,4.6,6.2,4.1,1.1,4.3,6.5,1,8.1,3.4,1.3,3,6-.4,8-1.8,1.1-10.7,7.6-13.7,8.3-4.7,1.1-8.4,1-13.1-4.3h-.2Z"/>
        <path class="cls-2" d="M37.6,58.9l2.8-2.6v-2.8l-2.9-2.6h0c-.9-.9-1.4-2.3-.9-3.6h0c.3-1,.8-2,1.3-2.9h0l.4-.6h0c.6-1,1.2-1.9,1.9-2.7.9-1,2.4-1.4,3.6-1h0l3.7,1.2c.7-.5,1.5-1,2.4-1.4l.8-3.8h0c.3-1.3,1.3-2.4,2.7-2.6,1.2-.2,2.4-.3,3.6-.3s2.4,0,3.6.3c1.4.3,2.4,1.3,2.7,2.6h0l.8,3.8c.8.4,1.6.9,2.4,1.4l3.7-1.2h0c1.2-.4,2.6,0,3.5,1h0c.7.9,1.3,1.8,1.9,2.7h0l.4.6h0c.5.9.9,1.9,1.3,2.9,0,0,.3.9.3,1h0c0,.9-.4,1.9-1.1,2.5h0l-2.9,2.6v2.8l2.9,2.6h0c1,.9,1.4,2.3.9,3.6h0c-.4,1-.8,2-1.3,2.9h0l-.4.6h0c-.6.9-1.1,1.9-1.8,2.8-.9,1.1-2.3,1.4-3.6,1l-3.7-1.2c-.8.5-1.6,1-2.4,1.4l-.8,3.8h0c-.3,1.3-1.3,2.3-2.7,2.6h0c-1.2.2-2.4.3-3.6.3s-2.4,0-3.6-.3c-1.4-.2-2.4-1.3-2.7-2.6h0l-.8-3.8c-.9-.4-1.7-.9-2.4-1.4h0l-3.7,1.2h0c-1.2.4-2.7,0-3.5-1h0c-.7-.8-1.3-1.7-1.9-2.7h0l-.4-.6h0c-.5-.9-1-1.9-1.3-2.9h0c-.5-1.3,0-2.7.9-3.6h0ZM60.4,58.2c-.9.9-2.1,1.4-3.4,1.4s-2.5-.5-3.4-1.4-1.4-2.1-1.4-3.4.5-2.5,1.4-3.4,2.1-1.4,3.4-1.4,2.5.5,3.4,1.4,1.4,2.1,1.4,3.4-.5,2.5-1.4,3.4Z"/>
      </g>
    </g>
  </g>
</svg>