<svg width="80" height="81" viewBox="0 0 80 81" fill="none" xmlns="http://www.w3.org/2000/svg">
<path fill-rule="evenodd" clip-rule="evenodd" d="M50.9119 31.4108C50.9119 42.4567 40.332 51.4115 27.2748 51.4115C22.9337 51.4115 18.8767 50.4228 15.3766 48.6955C14.5357 49.1501 13.5584 49.5933 12.5129 49.991C10.4333 50.7751 7.9332 51.4115 5.45584 51.4115C4.67172 51.4115 3.97852 50.8888 3.72851 50.1501C3.4785 49.4114 3.75124 48.5932 4.37626 48.1273L4.39899 48.1046C4.42171 48.0932 4.46717 48.0591 4.52399 48.0137C4.63763 47.9228 4.80809 47.775 5.01264 47.5932C5.42175 47.2182 5.97858 46.6727 6.52406 45.9681C7.14908 45.1727 7.74001 44.2295 8.13775 43.1612C5.30811 39.8543 3.6376 35.7973 3.6376 31.4108C3.6376 20.365 14.2175 11.4102 27.2748 11.4102C40.332 11.4102 50.9119 20.365 50.9119 31.4108ZM29.9453 54.9344C43.2867 53.7866 54.5484 44.1726 54.5484 31.4108L54.537 31.3995C54.537 30.8085 54.5143 30.2176 54.4689 29.638C66.7079 30.3881 76.356 39.0361 76.356 49.5819C76.356 53.9798 74.6855 58.0367 71.8558 61.3323C72.2536 62.3892 72.8445 63.3437 73.4695 64.1392C74.015 64.8438 74.5718 65.3893 74.9809 65.7643C75.1855 65.9575 75.3559 66.0938 75.4696 66.1847C75.498 66.2075 75.5236 66.2245 75.5449 66.2387C75.5662 66.2529 75.5832 66.2643 75.5946 66.2757L75.6173 66.2984C76.2537 66.7643 76.5151 67.5825 76.2764 68.3325C76.0378 69.0826 75.3332 69.594 74.5491 69.594C72.0717 69.594 69.5716 68.9576 67.492 68.1734C66.4465 67.7757 65.4806 67.3325 64.6283 66.8779C61.1282 68.6053 57.0712 69.594 52.7302 69.594C41.8662 69.594 32.7068 63.3892 29.9453 54.9344ZM26.778 39.1779C21.9946 39.1779 18.1203 35.2332 18.1203 30.3629C18.1203 25.4925 21.9946 21.5478 26.778 21.5478C31.5613 21.5478 35.4356 25.4925 35.4356 30.3629C35.4356 32.3628 34.7809 34.2084 33.677 35.685L29.8406 30.9964C29.2292 30.2472 28.1361 30.148 27.4002 30.7706C26.6643 31.3931 26.5669 32.506 27.1784 33.2553L31.0743 38.0155C29.8081 38.7537 28.3418 39.1779 26.778 39.1779ZM33.3164 40.7559C31.4287 41.9886 29.1844 42.704 26.778 42.704C20.0845 42.704 14.6572 37.178 14.6572 30.3629C14.6572 23.5477 20.0845 18.0217 26.778 18.0217C33.4714 18.0217 38.8987 23.5477 38.8987 30.3629C38.8987 33.4536 37.784 36.28 35.9388 38.4452L38.4983 41.5745C39.1097 42.3238 39.0123 43.4367 38.2764 44.0593C37.5405 44.6819 36.4475 44.5827 35.836 43.8334L33.3164 40.7559Z" fill="#4D8CCA"/>
</svg>
