<svg width="80" height="81" viewBox="0 0 80 81" fill="none" xmlns="http://www.w3.org/2000/svg">
<path d="M39.3846 70.655C47.2187 70.655 54.7319 67.543 60.2714 62.0034C65.811 56.4639 68.9231 48.9507 68.9231 41.1166C68.9231 33.2825 65.811 25.7693 60.2714 20.2297C54.7319 14.6902 47.2187 11.5781 39.3846 11.5781C31.5505 11.5781 24.0373 14.6902 18.4977 20.2297C12.9582 25.7693 9.84613 33.2825 9.84613 41.1166C9.84613 48.9507 12.9582 56.4639 18.4977 62.0034C24.0373 67.543 31.5505 70.655 39.3846 70.655ZM29.4384 30.6512C30.35 28.0781 32.7961 26.3474 35.5307 26.3474H42.2577C46.2846 26.3474 49.5384 29.6127 49.5384 33.6281C49.5384 36.2358 48.1423 38.6474 45.8807 39.9512L42.1538 42.0858C42.1307 43.5858 40.8961 44.8089 39.3846 44.8089C37.85 44.8089 36.6154 43.5743 36.6154 42.0397V40.482C36.6154 39.4897 37.1461 38.5781 38.0115 38.082L43.1231 35.1512C43.6654 34.8397 44 34.2627 44 33.6397C44 32.6704 43.2154 31.8974 42.2577 31.8974H35.5307C35.1384 31.8974 34.7923 32.1397 34.6654 32.5089L34.6192 32.6474C34.1115 34.0897 32.5192 34.8397 31.0884 34.332C29.6577 33.8243 28.8961 32.232 29.4038 30.8012L29.45 30.6627L29.4384 30.6512ZM35.6923 52.1935C35.6923 51.2142 36.0813 50.2751 36.7737 49.5827C37.4662 48.8902 38.4053 48.5012 39.3846 48.5012C40.3639 48.5012 41.303 48.8902 41.9954 49.5827C42.6879 50.2751 43.0769 51.2142 43.0769 52.1935C43.0769 53.1728 42.6879 54.1119 41.9954 54.8044C41.303 55.4968 40.3639 55.8858 39.3846 55.8858C38.4053 55.8858 37.4662 55.4968 36.7737 54.8044C36.0813 54.1119 35.6923 53.1728 35.6923 52.1935Z" fill="#4D8CCA"/>
</svg>
