<svg width="48" height="48" viewBox="0 0 48 48" fill="none" xmlns="http://www.w3.org/2000/svg">
<path d="M33.8906 0.112065C34.3594 0.30894 34.6969 0.730815 34.7906 1.22769L36.6562 11.3433L46.7719 13.1996C47.2687 13.2933 47.6906 13.6308 47.8875 14.0996C48.0844 14.5683 48.0281 15.1027 47.7375 15.5246L41.8969 23.9996L47.7375 32.4652C48.0281 32.8871 48.0844 33.4214 47.8875 33.8902C47.6906 34.3589 47.2687 34.6964 46.7719 34.7902L36.6562 36.6558L34.7906 46.7714C34.6969 47.2683 34.3594 47.6902 33.8906 47.8871C33.4219 48.0839 32.8875 48.0277 32.4656 47.7371L24 41.8964L15.5344 47.7371C15.1125 48.0277 14.5781 48.0839 14.1094 47.8871C13.6406 47.6902 13.3031 47.2683 13.2094 46.7714L11.3437 36.6558L1.22812 34.7902C0.731242 34.6964 0.309367 34.3589 0.112492 33.8902C-0.084383 33.4214 -0.028133 32.8871 0.262492 32.4652L6.10312 23.9996L0.262492 15.5339C-0.028133 15.1121 -0.084383 14.5777 0.112492 14.1089C0.309367 13.6402 0.731242 13.3027 1.22812 13.2089L11.3437 11.3433L13.2094 1.22769C13.3031 0.730815 13.6406 0.30894 14.1094 0.112065C14.5781 -0.0848102 15.1125 -0.0285602 15.5344 0.262065L24 6.10269L32.4656 0.262065C32.8875 -0.0285602 33.4219 -0.0848102 33.8906 0.112065ZM15 23.9996C15 21.6126 15.9482 19.3234 17.636 17.6356C19.3239 15.9478 21.613 14.9996 24 14.9996C26.3869 14.9996 28.6761 15.9478 30.364 17.6356C32.0518 19.3234 33 21.6126 33 23.9996C33 26.3865 32.0518 28.6757 30.364 30.3635C28.6761 32.0514 26.3869 32.9996 24 32.9996C21.613 32.9996 19.3239 32.0514 17.636 30.3635C15.9482 28.6757 15 26.3865 15 23.9996ZM36 23.9996C36 20.817 34.7357 17.7647 32.4853 15.5143C30.2348 13.2638 27.1826 11.9996 24 11.9996C20.8174 11.9996 17.7651 13.2638 15.5147 15.5143C13.2643 17.7647 12 20.817 12 23.9996C12 27.1822 13.2643 30.2344 15.5147 32.4848C17.7651 34.7353 20.8174 35.9996 24 35.9996C27.1826 35.9996 30.2348 34.7353 32.4853 32.4848C34.7357 30.2344 36 27.1822 36 23.9996Z" fill="#DDB23B"/>
</svg>
