<svg width="180" height="90" viewBox="0 0 180 90" fill="none" xmlns="http://www.w3.org/2000/svg">
<path d="M131.196 11.7082C132.393 8.02297 137.607 8.02296 138.804 11.7082L144.205 28.3303C144.741 29.9784 146.276 31.0942 148.009 31.0942H165.487C169.362 31.0942 170.973 36.0527 167.838 38.3303L153.698 48.6033C152.296 49.6219 151.71 51.4274 152.245 53.0755L157.646 69.6976C158.844 73.3828 154.626 76.4473 151.491 74.1697L137.351 63.8967C135.949 62.8781 134.051 62.8781 132.649 63.8967L118.509 74.1697C115.374 76.4473 111.156 73.3828 112.354 69.6976L117.755 53.0755C118.29 51.4274 117.704 49.6219 116.302 48.6033L102.162 38.3303C99.0272 36.0527 100.638 31.0942 104.513 31.0942H121.991C123.724 31.0942 125.259 29.9784 125.795 28.3303L131.196 11.7082Z" fill="black" fill-opacity="0.15"/>
<path d="M41.1958 11.7082C42.3932 8.02297 47.6068 8.02296 48.8042 11.7082L54.2051 28.3303C54.7406 29.9784 56.2764 31.0942 58.0093 31.0942H75.4868C79.3617 31.0942 80.9728 36.0527 77.838 38.3303L63.6983 48.6033C62.2964 49.6219 61.7098 51.4274 62.2453 53.0755L67.6461 69.6976C68.8435 73.3828 64.6256 76.4473 61.4907 74.1697L47.3511 63.8967C45.9492 62.8781 44.0508 62.8781 42.6489 63.8967L28.5093 74.1697C25.3744 76.4473 21.1565 73.3828 22.3539 69.6976L27.7547 53.0755C28.2902 51.4274 27.7036 49.6219 26.3017 48.6033L12.1621 38.3303C9.0272 36.0527 10.6383 31.0942 14.5132 31.0942H31.9907C33.7236 31.0942 35.2594 29.9784 35.7949 28.3303L41.1958 11.7082Z" fill="black" fill-opacity="0.15"/>
</svg>
