<svg width="44" height="41" viewBox="0 0 44 41" fill="none" xmlns="http://www.w3.org/2000/svg">
<path d="M24.308 1.72466C23.8847 0.856898 22.9902 0.304688 22.008 0.304688C21.0257 0.304688 20.1392 0.856898 19.708 1.72466L14.5729 12.1614L3.10483 13.8338C2.1465 13.9758 1.34789 14.6385 1.0524 15.5457C0.756914 16.4529 0.996497 17.4548 1.6833 18.1253L10.0048 26.2586L8.04025 37.7524C7.88052 38.6991 8.27983 39.6615 9.07046 40.2216C9.86108 40.7817 10.9073 40.8527 11.7698 40.403L22.0159 34.9993L32.2621 40.403C33.1246 40.8527 34.1708 40.7896 34.9614 40.2216C35.7521 39.6536 36.1514 38.6991 35.9916 37.7524L34.0191 26.2586L42.3406 18.1253C43.0274 17.4548 43.275 16.4529 42.9715 15.5457C42.668 14.6385 41.8774 13.9758 40.9191 13.8338L29.443 12.1614L24.308 1.72466Z" fill="#6F5F5F"/>
</svg>
