<svg width="24" height="24" viewBox="0 0 24 24" fill="none" xmlns="http://www.w3.org/2000/svg">
<path d="M15.7638 3.65985L14.0605 5.36313L18.6355 9.93806L20.3388 8.23478C21.2185 7.35498 21.2185 5.92972 20.3388 5.04992L18.9522 3.65985C18.0724 2.78005 16.6471 2.78005 15.7673 3.65985H15.7638ZM13.2652 6.15846L5.06199 14.3652C4.696 14.7312 4.42854 15.1852 4.28074 15.6814L3.03495 19.9149C2.94697 20.2141 3.02791 20.5343 3.2461 20.7525C3.46429 20.9707 3.78453 21.0516 4.08014 20.9672L8.31372 19.7214C8.80992 19.5736 9.26389 19.3061 9.62989 18.9401L17.8401 10.7334L13.2652 6.15846Z" fill="#003686"/>
</svg>
