<svg width="24" height="24" viewBox="0 0 24 24" fill="none" xmlns="http://www.w3.org/2000/svg">
<path d="M13.5428 3.89999C13.5428 3.07031 12.8788 2.39999 12.057 2.39999C11.2353 2.39999 10.5713 3.07031 10.5713 3.89999V10.65H3.88562C3.06383 10.65 2.3999 11.3203 2.3999 12.15C2.3999 12.9797 3.06383 13.65 3.88562 13.65H10.5713V20.4C10.5713 21.2297 11.2353 21.9 12.057 21.9C12.8788 21.9 13.5428 21.2297 13.5428 20.4V13.65H20.2285C21.0503 13.65 21.7142 12.9797 21.7142 12.15C21.7142 11.3203 21.0503 10.65 20.2285 10.65H13.5428V3.89999Z" fill="#003686"/>
</svg>
