<svg width="24" height="24" viewBox="0 0 24 24" fill="none" xmlns="http://www.w3.org/2000/svg">
<path d="M8.00033 1.33334C8.73783 1.33334 9.33366 1.92918 9.33366 2.66668V4.00001H14.667V2.66668C14.667 1.92918 15.2628 1.33334 16.0003 1.33334C16.7378 1.33334 17.3337 1.92918 17.3337 2.66668V4.00001H19.3337C20.4378 4.00001 21.3337 4.89584 21.3337 6.00001V8.00001H2.66699V6.00001C2.66699 4.89584 3.56283 4.00001 4.66699 4.00001H6.66699V2.66668C6.66699 1.92918 7.26283 1.33334 8.00033 1.33334ZM2.66699 9.33334H21.3337V20.6667C21.3337 21.7708 20.4378 22.6667 19.3337 22.6667H4.66699C3.56283 22.6667 2.66699 21.7708 2.66699 20.6667V9.33334ZM6.00033 12C5.63366 12 5.33366 12.3 5.33366 12.6667V16.6667C5.33366 17.0333 5.63366 17.3333 6.00033 17.3333H10.0003C10.367 17.3333 10.667 17.0333 10.667 16.6667V12.6667C10.667 12.3 10.367 12 10.0003 12H6.00033Z" fill="#003686"/>
</svg>
