<svg width="24" height="24" viewBox="0 0 24 24" fill="none" xmlns="http://www.w3.org/2000/svg">
<path d="M8 10.7243C8 9.21972 9.21972 8 10.7243 8H19.6757C21.1803 8 22.4 9.21972 22.4 10.7243V19.6757C22.4 21.1803 21.1803 22.4 19.6757 22.4H10.7243C9.21972 22.4 8 21.1803 8 19.6757V10.7243Z" fill="#003686"/>
<path d="M13.2758 13.4054V16H4.32442V13.4054H13.2758ZM13.4055 13.2757V4.32433C13.4055 4.25268 13.3474 4.1946 13.2758 4.1946H4.32442C4.25277 4.1946 4.19469 4.25268 4.19469 4.32433V13.2757C4.19469 13.3473 4.25277 13.4054 4.32442 13.4054V16C2.84333 16 1.63828 14.8181 1.60098 13.346L1.6001 13.2757V4.32433C1.6001 2.81973 2.81982 1.60001 4.32442 1.60001H13.2758L13.3461 1.60089C14.8182 1.63819 16.0001 2.84324 16.0001 4.32433V13.2757L15.9992 13.346C15.9625 14.7947 14.7948 15.9624 13.3461 15.9991L13.2758 16V13.4054C13.3474 13.4054 13.4055 13.3473 13.4055 13.2757Z" fill="#003686"/>
</svg>
