<svg width="30" height="30" viewBox="0 0 30 30" fill="none" xmlns="http://www.w3.org/2000/svg">
<path d="M13.9082 2.28691C14.6141 2.033 15.3859 2.033 16.0969 2.28691L25.8469 5.7705C27.1367 6.23261 28 7.45644 28 8.83261V21.1674C28 22.5385 27.1367 23.7674 25.8418 24.2295L16.0918 27.7131C15.3859 27.967 14.6141 27.967 13.9031 27.7131L4.15313 24.2295C2.86328 23.7623 2 22.5385 2 21.1623V8.83261C2 7.46152 2.86328 6.23261 4.1582 5.7705L13.9082 2.28691ZM15 5.34902L6.1793 8.49746L15 11.6459L23.8207 8.49746L15 5.34902ZM16.625 24.067L24.75 21.1674V11.6205L16.625 14.5201V24.067Z" fill="#003686"/>
</svg>
