<svg width="40" height="40" viewBox="0 0 40 40" fill="none" xmlns="http://www.w3.org/2000/svg">
<path d="M20.0526 19.1875V7.84297C20.0526 7.38594 20.408 7 20.8651 7C27.1467 7 32.2401 12.0934 32.2401 18.375C32.2401 18.832 31.8541 19.1875 31.3971 19.1875H20.0526ZM6.24008 20.8125C6.24008 14.6527 10.8155 9.5543 16.7518 8.7418C17.219 8.67578 17.6151 9.05156 17.6151 9.52383V21.625L25.5623 29.5723C25.9026 29.9125 25.8772 30.4711 25.4862 30.7453C23.4956 32.1672 21.058 33 18.4276 33C11.6991 33 6.24008 27.5461 6.24008 20.8125ZM32.9713 21.625C33.4436 21.625 33.8143 22.0211 33.7534 22.4883C33.3623 25.327 31.9963 27.8508 30.0006 29.7145C29.6959 29.9988 29.2186 29.9785 28.9241 29.6789L20.8651 21.625H32.9713Z" fill="#003686"/>
</svg>
