<svg width="30" height="30" viewBox="0 0 30 30" fill="none" xmlns="http://www.w3.org/2000/svg">
<path d="M27 25.5625C26.9997 26.9079 25.8963 27.9998 24.5361 28H6.46387C5.10373 27.9998 4.00026 26.9078 4 25.5625V11.75H27V25.5625ZM9.96289 20.75C9.25723 20.75 8.68555 21.3217 8.68555 22.0273C8.68557 22.733 9.25724 23.3046 9.96289 23.3047H15.9258C16.6315 23.3047 17.2041 22.733 17.2041 22.0273C17.2041 21.3216 16.6315 20.75 15.9258 20.75H9.96289ZM9.96289 15.6387C9.25729 15.6387 8.68565 16.2104 8.68555 16.916C8.68555 17.6217 9.25723 18.1943 9.96289 18.1943H20.6113C21.3169 18.1942 21.8887 17.6216 21.8887 16.916C21.8886 16.2105 21.3169 15.6388 20.6113 15.6387H9.96289ZM20.4287 2C21.3374 2.00007 22.0713 2.72622 22.0713 3.625V5.25H24.5361C25.8964 5.25022 27 6.34193 27 7.6875V10.125H4V7.6875C4 6.34194 5.10357 5.25022 6.46387 5.25H8.92871V3.625C8.92871 2.72622 9.66265 2.00007 10.5713 2C11.48 2 12.2139 2.72617 12.2139 3.625V5.25H18.7861V3.625C18.7861 2.72617 19.52 2 20.4287 2Z" fill="#003686"/>
</svg>
