<svg width="25" height="24" viewBox="0 0 25 24" fill="none" xmlns="http://www.w3.org/2000/svg">
<path d="M7.78571 6.60714C7.78571 5.52187 6.9067 4.64285 5.82143 4.64285H3.46429C2.37902 4.64285 1.5 5.52187 1.5 6.60714V8.96428C1.5 10.0495 2.37902 10.9286 3.46429 10.9286H5.82143C6.9067 10.9286 7.78571 10.0495 7.78571 8.96428V6.60714ZM7.78571 16.0357C7.78571 14.9504 6.9067 14.0714 5.82143 14.0714H3.46429C2.37902 14.0714 1.5 14.9504 1.5 16.0357V18.3929C1.5 19.4781 2.37902 20.3571 3.46429 20.3571H5.82143C6.9067 20.3571 7.78571 19.4781 7.78571 18.3929V16.0357ZM9.35714 6.60714V8.96428C9.35714 10.0495 10.2362 10.9286 11.3214 10.9286H13.6786C14.7638 10.9286 15.6429 10.0495 15.6429 8.96428V6.60714C15.6429 5.52187 14.7638 4.64285 13.6786 4.64285H11.3214C10.2362 4.64285 9.35714 5.52187 9.35714 6.60714ZM15.6429 16.0357C15.6429 14.9504 14.7638 14.0714 13.6786 14.0714H11.3214C10.2362 14.0714 9.35714 14.9504 9.35714 16.0357V18.3929C9.35714 19.4781 10.2362 20.3571 11.3214 20.3571H13.6786C14.7638 20.3571 15.6429 19.4781 15.6429 18.3929V16.0357ZM17.2143 6.60714V8.96428C17.2143 10.0495 18.0933 10.9286 19.1786 10.9286H21.5357C22.621 10.9286 23.5 10.0495 23.5 8.96428V6.60714C23.5 5.52187 22.621 4.64285 21.5357 4.64285H19.1786C18.0933 4.64285 17.2143 5.52187 17.2143 6.60714ZM23.5 16.0357C23.5 14.9504 22.621 14.0714 21.5357 14.0714H19.1786C18.0933 14.0714 17.2143 14.9504 17.2143 16.0357V18.3929C17.2143 19.4781 18.0933 20.3571 19.1786 20.3571H21.5357C22.621 20.3571 23.5 19.4781 23.5 18.3929V16.0357Z" fill="#003686"/>
</svg>
