<svg width="24" height="24" viewBox="0 0 24 24" fill="none" xmlns="http://www.w3.org/2000/svg">
<path d="M2.3999 4.25379C2.3999 3.22997 3.23275 2.39999 4.26011 2.39999H8.51201C9.53938 2.39999 10.3722 3.22997 10.3722 4.25379V8.49103C10.3722 9.51485 9.53938 10.3448 8.51201 10.3448H4.26011C3.23275 10.3448 2.3999 9.51485 2.3999 8.49103V4.25379Z" fill="#003686"/>
<path d="M13.0298 4.25379C13.0298 3.22997 13.8626 2.39999 14.89 2.39999H19.1419C20.1693 2.39999 21.0021 3.22997 21.0021 4.25379V8.49103C21.0021 9.51485 20.1693 10.3448 19.1419 10.3448H14.89C13.8626 10.3448 13.0298 9.51485 13.0298 8.49103V4.25379Z" fill="#003686"/>
<path d="M2.3999 14.8469C2.3999 13.8231 3.23275 12.9931 4.26011 12.9931H8.51201C9.53938 12.9931 10.3722 13.8231 10.3722 14.8469V19.0842C10.3722 20.108 9.53938 20.9379 8.51201 20.9379H4.26011C3.23275 20.9379 2.3999 20.108 2.3999 19.0842V14.8469Z" fill="#003686"/>
<path d="M14.8923 13.9931H19.1443C19.6224 13.9932 20.0045 14.3785 20.0046 14.8466V19.0839C20.0046 19.5522 19.6225 19.9383 19.1443 19.9384H14.8923C14.414 19.9384 14.032 19.5522 14.032 19.0839V14.8466C14.0321 14.4078 14.3676 14.0422 14.8035 13.998L14.8923 13.9931Z" stroke="#003686" stroke-width="2"/>
</svg>
