<svg width="24" height="24" viewBox="0 0 24 24" fill="none" xmlns="http://www.w3.org/2000/svg">
<path d="M7.14305 2.71157V4.03849H5.17162C4.08323 4.03849 3.2002 4.93002 3.2002 6.02887V8.01926H21.6002V6.02887C21.6002 4.93002 20.7172 4.03849 19.6288 4.03849H17.6573V2.71157C17.6573 1.97761 17.07 1.38464 16.3431 1.38464C15.6161 1.38464 15.0288 1.97761 15.0288 2.71157V4.03849H9.77162V2.71157C9.77162 1.97761 9.1843 1.38464 8.45734 1.38464C7.73037 1.38464 7.14305 1.97761 7.14305 2.71157ZM21.6002 9.34618H3.2002V20.625C3.2002 21.7239 4.08323 22.6154 5.17162 22.6154H19.6288C20.7172 22.6154 21.6002 21.7239 21.6002 20.625V9.34618ZM12.4002 11.6683C12.9464 11.6683 13.3859 12.112 13.3859 12.6635V14.9856H15.6859C16.2322 14.9856 16.6716 15.4293 16.6716 15.9808C16.6716 16.5323 16.2322 16.976 15.6859 16.976H13.3859V19.2981C13.3859 19.8496 12.9464 20.2933 12.4002 20.2933C11.8539 20.2933 11.4145 19.8496 11.4145 19.2981V16.976H9.11448C8.56823 16.976 8.12877 16.5323 8.12877 15.9808C8.12877 15.4293 8.56823 14.9856 9.11448 14.9856H11.4145V12.6635C11.4145 12.112 11.8539 11.6683 12.4002 11.6683Z" fill="#003686"/>
</svg>
