<svg width="24" height="24" viewBox="0 0 24 24" fill="none" xmlns="http://www.w3.org/2000/svg">
<path d="M9.07 3.06374C9.2725 2.65499 9.68875 2.39999 10.1425 2.39999H14.6575C15.1112 2.39999 15.5275 2.65499 15.73 3.06374L16 3.59999H19.6C20.2637 3.59999 20.8 4.13624 20.8 4.79999C20.8 5.46374 20.2637 5.99999 19.6 5.99999H5.2C4.53625 5.99999 4 5.46374 4 4.79999C4 4.13624 4.53625 3.59999 5.2 3.59999H8.8L9.07 3.06374ZM5.2 7.19999H19.6V19.2C19.6 20.5237 18.5237 21.6 17.2 21.6H7.6C6.27625 21.6 5.2 20.5237 5.2 19.2V7.19999ZM8.8 9.59999C8.47 9.59999 8.2 9.86999 8.2 10.2V18.6C8.2 18.93 8.47 19.2 8.8 19.2C9.13 19.2 9.4 18.93 9.4 18.6V10.2C9.4 9.86999 9.13 9.59999 8.8 9.59999ZM12.4 9.59999C12.07 9.59999 11.8 9.86999 11.8 10.2V18.6C11.8 18.93 12.07 19.2 12.4 19.2C12.73 19.2 13 18.93 13 18.6V10.2C13 9.86999 12.73 9.59999 12.4 9.59999ZM16 9.59999C15.67 9.59999 15.4 9.86999 15.4 10.2V18.6C15.4 18.93 15.67 19.2 16 19.2C16.33 19.2 16.6 18.93 16.6 18.6V10.2C16.6 9.86999 16.33 9.59999 16 9.59999Z" fill="#003686"/>
</svg>
