<svg width="25" height="24" viewBox="0 0 25 24" fill="none" xmlns="http://www.w3.org/2000/svg">
<g clip-path="url(#clip0_7936_130864)">
<path d="M2.375 2.25C1.75156 2.25 1.25 2.75156 1.25 3.375V5.625C1.25 6.24844 1.75156 6.75 2.375 6.75H4.625C5.24844 6.75 5.75 6.24844 5.75 5.625V3.375C5.75 2.75156 5.24844 2.25 4.625 2.25H2.375ZM9.5 3C8.67031 3 8 3.67031 8 4.5C8 5.32969 8.67031 6 9.5 6H23C23.8297 6 24.5 5.32969 24.5 4.5C24.5 3.67031 23.8297 3 23 3H9.5ZM9.5 10.5C8.67031 10.5 8 11.1703 8 12C8 12.8297 8.67031 13.5 9.5 13.5H23C23.8297 13.5 24.5 12.8297 24.5 12C24.5 11.1703 23.8297 10.5 23 10.5H9.5ZM9.5 18C8.67031 18 8 18.6703 8 19.5C8 20.3297 8.67031 21 9.5 21H23C23.8297 21 24.5 20.3297 24.5 19.5C24.5 18.6703 23.8297 18 23 18H9.5ZM1.25 10.875V13.125C1.25 13.7484 1.75156 14.25 2.375 14.25H4.625C5.24844 14.25 5.75 13.7484 5.75 13.125V10.875C5.75 10.2516 5.24844 9.75 4.625 9.75H2.375C1.75156 9.75 1.25 10.2516 1.25 10.875ZM2.375 17.25C1.75156 17.25 1.25 17.7516 1.25 18.375V20.625C1.25 21.2484 1.75156 21.75 2.375 21.75H4.625C5.24844 21.75 5.75 21.2484 5.75 20.625V18.375C5.75 17.7516 5.24844 17.25 4.625 17.25H2.375Z" fill="#003686"/>
</g>
<defs>
<clipPath id="clip0_7936_130864">
<rect width="24" height="24" fill="white" transform="translate(0.5)"/>
</clipPath>
</defs>
</svg>
