<svg width="25" height="22" viewBox="0 0 25 22" fill="none" xmlns="http://www.w3.org/2000/svg">
<path d="M1.29739 9.2243C0.467275 10.0334 0.467275 11.3475 1.29739 12.1567L9.79781 20.4424C10.6279 21.2515 11.976 21.2515 12.8062 20.4424C13.6363 19.6332 13.6363 18.3192 12.8062 17.51L7.9317 12.7587L21.9242 12.7587C23.0996 12.7587 24.0493 11.833 24.0493 10.6872C24.0493 9.54148 23.0996 8.61581 21.9242 8.61581L7.9317 8.61581L12.8062 3.86447C13.6363 3.05532 13.6363 1.74126 12.8062 0.932107C11.976 0.122955 10.6279 0.122955 9.79781 0.932108L1.29739 9.21782L1.29739 9.2243Z" fill="#003686"/>
</svg>
