<svg width="24" height="24" viewBox="0 0 24 24" fill="none" xmlns="http://www.w3.org/2000/svg">
<g clip-path="url(#clip0_7946_4590)">
<path d="M12.001 2.40039C18.1863 2.40073 23.2 6.36533 23.2002 11.2588C23.2002 16.1524 18.1865 20.1178 12.001 20.1182C10.3782 20.1181 8.83736 19.8462 7.44634 19.3564C6.92581 19.7269 6.07697 20.2334 5.07134 20.6592C4.02153 21.1021 2.75639 21.4814 1.50103 21.4814C1.21689 21.4813 0.962905 21.3149 0.853566 21.0596C0.74436 20.8041 0.806264 20.5142 1.00298 20.3184L1.01568 20.3057C1.02875 20.2929 1.04631 20.2756 1.07232 20.2461C1.12043 20.195 1.19543 20.1135 1.28716 20.0029C1.46646 19.79 1.70745 19.4745 1.9522 19.083C2.38954 18.3761 2.80465 17.4475 2.88775 16.4043C1.57548 14.9562 0.800832 13.1796 0.800832 11.2588C0.801105 6.36518 5.81545 2.40048 12.001 2.40039ZM12.0001 5C11.4896 5.00002 11.0773 5.41239 11.0772 5.92285V10.0771H6.9229C6.41244 10.0773 6.00005 10.4895 6.00005 11C6.00005 11.5105 6.41244 11.9227 6.9229 11.9229H11.0772V16.0771C11.0773 16.5876 11.4896 17 12.0001 17C12.5106 17 12.9228 16.5876 12.9229 16.0771V11.9229H17.0772C17.5877 11.9227 18.0001 11.5105 18.0001 11C18.0001 10.4895 17.5877 10.0773 17.0772 10.0771H12.9229V5.92285C12.9228 5.41238 12.5106 5 12.0001 5Z" fill="#003686"/>
</g>
<defs>
<clipPath id="clip0_7946_4590">
<rect width="24" height="24" fill="white"/>
</clipPath>
</defs>
</svg>
