<svg width="24" height="24" viewBox="0 0 24 24" fill="none" xmlns="http://www.w3.org/2000/svg">
<g clip-path="url(#clip0_7946_131327)">
<path d="M18.0558 6.62319L16.447 8.23184L20.7681 12.5526L22.3769 10.944C23.2079 10.113 23.2079 8.76695 22.3769 7.93604L21.0673 6.62319C20.2363 5.79227 18.8901 5.79227 18.0591 6.62319H18.0558ZM15.6958 8.98299L7.94771 16.7338C7.60202 17.0795 7.34941 17.5082 7.2098 17.9768L6.03313 21.9752C5.95003 22.2577 6.02648 22.5602 6.23257 22.7663C6.43865 22.9723 6.74113 23.0488 7.02034 22.969L11.019 21.7924C11.4877 21.6528 11.9165 21.4002 12.2622 21.0546L20.0169 13.3038L15.6958 8.98299Z" fill="#003686"/>
<path d="M6.28528 0.75C6.87301 0.750084 7.34778 1.22572 7.34778 1.81348V5.22168H10.757C11.3448 5.22168 11.8204 5.69735 11.8204 6.28516C11.8204 6.87289 11.3447 7.34766 10.757 7.34766H7.34778V10.7568C7.34778 11.3446 6.87301 11.8202 6.28528 11.8203C5.69747 11.8203 5.2218 11.3446 5.2218 10.7568V7.34766H1.8136C1.22585 7.34766 0.750206 6.87289 0.750122 6.28516C0.750122 5.69735 1.22579 5.22168 1.8136 5.22168H5.2218V1.81348C5.2218 1.22567 5.69747 0.75 6.28528 0.75Z" fill="#003686" stroke="#003686" stroke-width="0.5"/>
</g>
<defs>
<clipPath id="clip0_7946_131327">
<rect width="24" height="24" fill="white"/>
</clipPath>
</defs>
</svg>
