<svg width="24" height="24" viewBox="0 0 24 24" fill="none" xmlns="http://www.w3.org/2000/svg">
<path d="M13.5374 3.63749C13.5374 2.953 12.9844 2.39999 12.2999 2.39999C11.6154 2.39999 11.0624 2.953 11.0624 3.63749V13.0232L8.22389 10.1846C7.74049 9.70124 6.95545 9.70124 6.47205 10.1846C5.98865 10.668 5.98865 11.4531 6.47205 11.9365L11.4221 16.8865C11.9054 17.3699 12.6905 17.3699 13.1739 16.8865L18.1239 11.9365C18.6073 11.4531 18.6073 10.668 18.1239 10.1846C17.6405 9.70124 16.8554 9.70124 16.3721 10.1846L13.5374 13.0232V3.63749ZM4.8749 16.0125C3.50979 16.0125 2.3999 17.1224 2.3999 18.4875V19.725C2.3999 21.0901 3.50979 22.2 4.8749 22.2H19.7249C21.09 22.2 22.1999 21.0901 22.1999 19.725V18.4875C22.1999 17.1224 21.09 16.0125 19.7249 16.0125H15.7997L14.0479 17.7643C13.0811 18.7311 11.5149 18.7311 10.5481 17.7643L8.8001 16.0125H4.8749ZM19.1062 18.1781C19.3523 18.1781 19.5884 18.2759 19.7624 18.45C19.9365 18.624 20.0343 18.8601 20.0343 19.1062C20.0343 19.3524 19.9365 19.5885 19.7624 19.7625C19.5884 19.9366 19.3523 20.0344 19.1062 20.0344C18.86 20.0344 18.6239 19.9366 18.4499 19.7625C18.2758 19.5885 18.178 19.3524 18.178 19.1062C18.178 18.8601 18.2758 18.624 18.4499 18.45C18.6239 18.2759 18.86 18.1781 19.1062 18.1781Z" fill="#003686"/>
</svg>
