<svg width="61" height="70" viewBox="0 0 61 70" fill="none" xmlns="http://www.w3.org/2000/svg">
<path d="M52.2857 47.9375L52.2857 56.5625C52.2857 58.9479 50.3386 60.875 47.9286 60.875L13.0714 60.875C10.6614 60.875 8.71429 58.9479 8.71429 56.5625L8.71429 47.9375C8.71429 45.5521 6.76719 43.625 4.35714 43.625C1.9471 43.625 1.84541e-06 45.5521 1.74114e-06 47.9375L1.36413e-06 56.5625C1.05192e-06 63.7051 5.85491 69.5 13.0714 69.5L47.9286 69.5C55.1451 69.5 61 63.7051 61 56.5625L61 47.9375C61 45.5522 59.0529 43.625 56.6429 43.625C54.2328 43.625 52.2857 45.5522 52.2857 47.9375ZM27.4228 46.6707C29.1248 48.3553 31.8888 48.3553 33.5908 46.6707L51.0194 29.4207C52.7214 27.7361 52.7214 25.0004 51.0194 23.3158C49.3174 21.6312 46.5533 21.6312 44.8513 23.3158L34.8571 33.2076L34.8571 4.8125C34.8571 2.42715 32.91 0.499999 30.5 0.499999C28.09 0.499999 26.1429 2.42715 26.1429 4.8125L26.1429 33.2076L16.1487 23.3158C14.4467 21.6312 11.6826 21.6312 9.98058 23.3158C8.27857 25.0004 8.27857 27.7361 9.98058 29.4207L27.4092 46.6707L27.4228 46.6707Z" fill="#D6D7DB"/>
</svg>
