<svg width="30" height="30" viewBox="0 0 30 30" fill="none" xmlns="http://www.w3.org/2000/svg">
<path d="M15.125 6.46429C17.2036 6.46429 19.1143 7.19503 20.6083 8.41836L18.8437 10.183C18.5947 10.432 18.5243 10.8055 18.6542 11.1248C18.7842 11.4442 19.1035 11.6607 19.4554 11.6607H25.5179C25.9942 11.6607 26.3839 11.271 26.3839 10.7946V4.73214C26.3839 4.3803 26.1728 4.06635 25.848 3.93103C25.5233 3.7957 25.1498 3.87148 24.9062 4.12048L23.0658 5.96088C20.9385 4.11507 18.1617 3 15.125 3C14.535 3 13.9612 3.0433 13.3929 3.1245V6.6375C13.9504 6.52383 14.5296 6.46429 15.125 6.46429ZM8.41836 9.64169L10.183 11.4063C10.432 11.6553 10.8055 11.7257 11.1248 11.5958C11.4442 11.4658 11.6607 11.1465 11.6607 10.7946V4.73214C11.6607 4.2558 11.271 3.86607 10.7946 3.86607H4.73214C4.3803 3.86607 4.06635 4.07718 3.93103 4.40195C3.7957 4.72673 3.87148 5.10022 4.12048 5.34381L5.96088 7.18421C4.11507 9.3115 3 12.0883 3 15.125C3 15.715 3.0433 16.2888 3.1245 16.8571H6.6375C6.52383 16.2996 6.46429 15.7204 6.46429 15.125C6.46429 13.0464 7.19503 11.1357 8.41836 9.64169ZM27.1255 13.3929H23.6125C23.7262 13.9504 23.7857 14.5296 23.7857 15.125C23.7857 17.2036 23.055 19.1143 21.8316 20.6083L20.067 18.8437C19.818 18.5947 19.4445 18.5243 19.1252 18.6542C18.8058 18.7842 18.5893 19.1035 18.5893 19.4554V25.5179C18.5893 25.9942 18.979 26.3839 19.4554 26.3839H25.5179C25.8697 26.3839 26.1836 26.1728 26.319 25.848C26.4543 25.5233 26.3785 25.1498 26.1295 24.9062L24.2891 23.0658C26.1349 20.9385 27.25 18.1617 27.25 15.125C27.25 14.535 27.2067 13.9612 27.1255 13.3929ZM15.125 23.7857C13.0464 23.7857 11.1357 23.055 9.64169 21.8316L11.4063 20.067C11.6553 19.818 11.7257 19.4445 11.5958 19.1252C11.4658 18.8058 11.1465 18.5893 10.7946 18.5893H4.73214C4.2558 18.5893 3.86607 18.979 3.86607 19.4554V25.5179C3.86607 25.8697 4.07718 26.1836 4.40195 26.319C4.72673 26.4543 5.10022 26.3785 5.34381 26.1295L7.18421 24.2891C9.3115 26.1349 12.0883 27.25 15.125 27.25C15.715 27.25 16.2888 27.2067 16.8571 27.1255V23.6125C16.2996 23.7262 15.7204 23.7857 15.125 23.7857Z" fill="#003686"/>
</svg>
