<svg width="30" height="30" viewBox="0 0 30 30" fill="none" xmlns="http://www.w3.org/2000/svg">
<path d="M9.93 14.5C10.5762 14.5 11.1 15.0238 11.1 15.67V18.53C11.1 19.1762 10.5762 19.7 9.93 19.7H7.07C6.42383 19.7 5.9 19.1762 5.9 18.53V15.67C5.9 15.0238 6.42383 14.5 7.07 14.5H9.93Z" fill="#003686"/>
<path d="M16.43 14.5C17.0762 14.5 17.6 15.0238 17.6 15.67V18.53C17.6 19.1762 17.0762 19.7 16.43 19.7H13.57C12.9238 19.7 12.4 19.1762 12.4 18.53V15.67C12.4 15.0238 12.9238 14.5 13.57 14.5H16.43Z" fill="#003686"/>
<path fill-rule="evenodd" clip-rule="evenodd" d="M26.7 4.1C27.418 4.1 28 4.68203 28 5.4V23.6C28 24.318 27.418 24.9 26.7 24.9C25.982 24.9 25.4 24.318 25.4 23.6H4.6C4.6 24.318 4.01797 24.9 3.3 24.9C2.58203 24.9 2 24.318 2 23.6V5.4C2 4.68203 2.58203 4.1 3.3 4.1C4.01797 4.1 4.6 4.68203 4.6 5.4V10.6H25.4V5.4C25.4 4.68203 25.982 4.1 26.7 4.1ZM4.6 21H25.4V13.2H4.6V21Z" fill="#003686"/>
<path d="M20.33 4.1C20.9762 4.1 21.5 4.62383 21.5 5.27V8.13C21.5 8.77617 20.9762 9.3 20.33 9.3H17.47C16.8238 9.3 16.3 8.77617 16.3 8.13V5.27C16.3 4.62383 16.8238 4.1 17.47 4.1H20.33Z" fill="#003686"/>
</svg>
